Winston[wght].glyphspackage
{
color = 11;
glyphname = exclam;
layers = (
{
layerId = "A06B8506-BBE1-4A28-92E2-491406422708";
shapes = (
{
closed = 1;
nodes = (
(384,490,l),
(496,1472,l),
(54,1472,l),
(166,490,l)
);
},
{
closed = 1;
nodes = (
(460,0,l),
(460,370,l),
(86,370,l),
(86,0,l)
);
}
);
width = 550;
},
{
layerId = "2D3E1F4A-4F79-435C-922D-C1502E296E5C";
shapes = (
{
closed = 1;
nodes = (
(297,404,l),
(361,1472,l),
(108,1472,l),
(171,404,l)
);
},
{
closed = 1;
nodes = (
(353,0,l),
(353,241,l),
(113,241,l),
(113,0,l)
);
}
);
width = 468;
},
{
layerId = "F480A0F6-CE20-4515-90A8-C409EEC2FB0B";
shapes = (
{
closed = 1;
nodes = (
(232,328,l),
(254,1472,l),
(166,1472,l),
(186,328,l)
);
},
{
closed = 1;
nodes = (
(270,0,l),
(270,128,l),
(148,128,l),
(148,0,l)
);
}
);
width = 418;
}
);
leftKerningGroup = exclam;
rightKerningGroup = exclam;
unicode = 33;
}
{
color = 11;
glyphname = numbersign;
layers = (
{
layerId = "7B66E43B-35BC-4CDD-B71B-7D56A9572330";
shapes = (
{
closed = 1;
nodes = (
(382,0,l),
(440,334,l),
(618,334,l),
(558,0,l),
(788,0,l),
(850,334,l),
(1058,334,l),
(1058,552,l),
(892,552,l),
(960,936,l),
(1104,936,l),
(1104,1156,l),
(1004,1156,l),
(1062,1472,l),
(830,1472,l),
(770,1156,l),
(594,1156,l),
(654,1472,l),
(420,1472,l),
(362,1156,l),
(156,1156,l),
(156,936,l),
(320,936,l),
(250,552,l),
(112,552,l),
(112,334,l),
(208,334,l),
(148,0,l)
);
},
{
closed = 1;
nodes = (
(552,936,l),
(730,936,l),
(660,552,l),
(484,552,l)
);
}
);
width = 1212;
},
{
layerId = "FC5D3D8C-AB50-41A9-8405-C9FF1CAE1726";
shapes = (
{
closed = 1;
nodes = (
(323,0,l),
(389,371,l),
(682,371,l),
(614,0,l),
(764,0,l),
(833,371,l),
(1091,371,l),
(1091,512,l),
(858,512,l),
(944,976,l),
(1132,976,l),
(1132,1118,l),
(971,1118,l),
(1037,1472,l),
(886,1472,l),
(821,1118,l),
(528,1118,l),
(593,1472,l),
(443,1472,l),
(379,1118,l),
(121,1118,l),
(121,976,l),
(353,976,l),
(266,512,l),
(80,512,l),
(80,371,l),
(241,371,l),
(171,0,l)
);
},
{
closed = 1;
nodes = (
(501,976,l),
(795,976,l),
(709,512,l),
(416,512,l)
);
}
);
width = 1211;
},
{
layerId = "EA701F3C-7533-4E12-969A-F8F539424701";
shapes = (
{
closed = 1;
nodes = (
(270,0,l),
(344,404,l),
(738,404,l),
(664,0,l),
(742,0,l),
(818,404,l),
(1120,404,l),
(1120,476,l),
(828,476,l),
(930,1012,l),
(1156,1012,l),
(1156,1084,l),
(942,1084,l),
(1014,1472,l),
(936,1472,l),
(866,1084,l),
(470,1084,l),
(540,1472,l),
(464,1472,l),
(394,1084,l),
(90,1084,l),
(90,1012,l),
(382,1012,l),
(280,476,l),
(52,476,l),
(52,404,l),
(270,404,l),
(192,0,l)
);
},
{
closed = 1;
nodes = (
(456,1012,l),
(852,1012,l),
(752,476,l),
(356,476,l)
);
}
);
width = 1210;
}
);
leftKerningGroup = numbersign;
rightKerningGroup = numbersign;
unicode = 35;
}
{
color = 11;
glyphname = dollar;
layers = (
{
layerId = "A6805B89-47EA-471F-88E2-6C6BDB91AD06";
shapes = (
{
closed = 1;
nodes = (
(785,-240,l),
(785,42,l),
(733,-6,l),
(1007,26,o),
(1193,196,o),
(1193,450,cs),
(1193,660,o),
(1073,794,o),
(825,852,cs),
(599,902,ls),
(483,930,o),
(445,972,o),
(445,1032,cs),
(445,1120,o),
(525,1182,o),
(665,1182,cs),
(813,1182,o),
(945,1136,o),
(1041,1054,c),
(1141,1328,l),
(1045,1418,o),
(887,1474,o),
(729,1484,c),
(785,1444,l),
(785,1712,l),
(505,1712,l),
(505,1444,l),
(565,1480,l),
(279,1448,o),
(91,1266,o),
(91,1016,cs),
(91,796,o),
(213,660,o),
(457,604,cs),
(683,550,ls),
(801,524,o),
(841,484,o),
(841,422,cs),
(841,348,o),
(781,290,o),
(615,290,cs),
(457,290,o),
(287,346,o),
(167,430,c),
(67,144,l),
(187,50,o),
(373,-4,o),
(565,-12,c),
(505,42,l),
(505,-240,l)
);
}
);
width = 1254;
},
{
layerId = "74EDEEDC-441F-4395-93E2-DA3D8F4EBC35";
shapes = (
{
closed = 1;
nodes = (
(730,-240,l),
(730,29,l),
(692,-7,l),
(957,12,o),
(1141,167,o),
(1141,410,cs),
(1141,610,o),
(1020,729,o),
(766,786,cs),
(560,831,ls),
(402,867,o),
(338,935,o),
(338,1051,cs),
(338,1202,o),
(457,1303,o),
(645,1303,cs),
(801,1303,o),
(930,1254,o),
(1034,1148,c),
(1100,1307,l),
(999,1417,o),
(842,1474,o),
(697,1481,c),
(730,1449,l),
(730,1712,l),
(562,1712,l),
(562,1449,l),
(594,1480,l),
(320,1464,o),
(138,1288,o),
(138,1045,cs),
(138,834,o),
(254,708,o),
(496,654,cs),
(700,607,ls),
(872,569,o),
(940,506,o),
(940,398,cs),
(940,263,o),
(841,169,o),
(625,169,cs),
(444,169,o),
(302,223,o),
(177,326,c),
(108,161,l),
(234,48,o),
(413,-6,o),
(603,-10,c),
(562,28,l),
(562,-240,l)
);
}
);
width = 1254;
},
{
layerId = "5CA5D978-5DFF-4019-A5DD-99A0755926E0";
shapes = (
{
closed = 1;
nodes = (
(681,-240,l),
(681,18,l),
(655,-8,l),
(913,0,o),
(1095,142,o),
(1095,374,cs),
(1095,566,o),
(973,672,o),
(713,728,cs),
(525,768,ls),
(331,812,o),
(243,902,o),
(243,1068,cs),
(243,1274,o),
(397,1410,o),
(627,1410,cs),
(791,1410,o),
(917,1358,o),
(1027,1230,c),
(1063,1288,l),
(959,1416,o),
(803,1474,o),
(669,1478,c),
(681,1454,l),
(681,1712,l),
(613,1712,l),
(613,1454,l),
(619,1480,l),
(357,1478,o),
(179,1308,o),
(179,1070,cs),
(179,868,o),
(291,750,o),
(531,698,cs),
(715,658,ls),
(935,608,o),
(1027,526,o),
(1027,376,cs),
(1027,188,o),
(893,62,o),
(633,62,cs),
(433,62,o),
(315,114,o),
(185,234,c),
(145,176,l),
(275,46,o),
(449,-8,o),
(637,-8,c),
(613,16,l),
(613,-240,l)
);
}
);
width = 1254;
}
);
unicode = 36;
}
{
color = 11;
glyphname = percent;
layers = (
{
layerId = "A6805B89-47EA-471F-88E2-6C6BDB91AD06";
shapes = (
{
closed = 1;
nodes = (
(1480,1410,l),
(1258,1540,l),
(444,62,l),
(668,-66,l)
);
},
{
closed = 1;
nodes = (
(676,596,o),
(810,770,o),
(810,1046,cs),
(810,1322,o),
(674,1496,o),
(434,1496,cs),
(198,1496,o),
(62,1328,o),
(62,1046,cs),
(62,770,o),
(194,596,o),
(434,596,cs)
);
},
{
closed = 1;
nodes = (
(374,814,o),
(342,868,o),
(342,1046,cs),
(342,1224,o),
(374,1276,o),
(434,1276,cs),
(496,1276,o),
(528,1220,o),
(528,1046,cs),
(528,872,o),
(496,814,o),
(434,814,cs)
);
},
{
closed = 1;
nodes = (
(1730,-24,o),
(1866,150,o),
(1866,428,cs),
(1866,702,o),
(1728,876,o),
(1492,876,cs),
(1254,876,o),
(1114,708,o),
(1114,428,cs),
(1114,150,o),
(1250,-24,o),
(1492,-24,cs)
);
},
{
closed = 1;
nodes = (
(1428,194,o),
(1398,252,o),
(1398,428,cs),
(1398,606,o),
(1428,658,o),
(1492,658,cs),
(1550,658,o),
(1584,602,o),
(1584,428,cs),
(1584,256,o),
(1550,194,o),
(1492,194,cs)
);
}
);
width = 1924;
},
{
layerId = "74EDEEDC-441F-4395-93E2-DA3D8F4EBC35";
shapes = (
{
closed = 1;
nodes = (
(1410,1449,l),
(1274,1527,l),
(451,22,l),
(589,-55,l)
);
},
{
closed = 1;
nodes = (
(664,591,o),
(790,756,o),
(790,1042,cs),
(790,1325,o),
(661,1491,o),
(443,1491,cs),
(227,1491,o),
(98,1328,o),
(98,1042,cs),
(98,756,o),
(224,591,o),
(443,591,cs)
);
},
{
closed = 1;
nodes = (
(331,728,o),
(268,822,o),
(268,1042,cs),
(268,1259,o),
(331,1353,o),
(443,1353,cs),
(555,1353,o),
(620,1257,o),
(620,1042,cs),
(620,824,o),
(555,728,o),
(443,728,cs)
);
},
{
closed = 1;
nodes = (
(1638,-20,o),
(1764,146,o),
(1764,431,cs),
(1764,714,o),
(1637,880,o),
(1419,880,cs),
(1201,880,o),
(1071,717,o),
(1071,431,cs),
(1071,145,o),
(1198,-20,o),
(1419,-20,cs)
);
},
{
closed = 1;
nodes = (
(1305,118,o),
(1243,214,o),
(1243,431,cs),
(1243,650,o),
(1305,742,o),
(1419,742,cs),
(1530,742,o),
(1595,648,o),
(1595,431,cs),
(1595,215,o),
(1530,118,o),
(1419,118,cs)
);
}
);
width = 1860;
},
{
layerId = "5CA5D978-5DFF-4019-A5DD-99A0755926E0";
shapes = (
{
closed = 1;
nodes = (
(1358,1484,l),
(1298,1516,l),
(466,-14,l),
(528,-46,l)
);
},
{
closed = 1;
nodes = (
(662,586,o),
(782,744,o),
(782,1038,cs),
(782,1328,o),
(658,1486,o),
(460,1486,cs),
(262,1486,o),
(140,1328,o),
(140,1038,cs),
(140,744,o),
(260,586,o),
(460,586,cs)
);
},
{
closed = 1;
nodes = (
(302,652,o),
(212,782,o),
(212,1038,cs),
(212,1290,o),
(302,1420,o),
(460,1420,cs),
(616,1420,o),
(710,1290,o),
(710,1038,cs),
(710,782,o),
(616,652,o),
(460,652,cs)
);
},
{
closed = 1;
nodes = (
(1566,-16,o),
(1684,142,o),
(1684,434,cs),
(1684,724,o),
(1566,884,o),
(1364,884,cs),
(1164,884,o),
(1042,724,o),
(1042,434,cs),
(1042,140,o),
(1162,-16,o),
(1364,-16,cs)
);
},
{
closed = 1;
nodes = (
(1206,50,o),
(1116,180,o),
(1116,434,cs),
(1116,688,o),
(1206,816,o),
(1364,816,cs),
(1522,816,o),
(1614,688,o),
(1614,434,cs),
(1614,178,o),
(1522,50,o),
(1364,50,cs)
);
}
);
width = 1822;
}
);
leftKerningGroup = percent;
rightKerningGroup = percent;
unicode = 37;
}
{
color = 11;
glyphname = ampersand;
layers = (
{
layerId = "7B66E43B-35BC-4CDD-B71B-7D56A9572330";
shapes = (
{
closed = 1;
nodes = (
(806,-24,o),
(966,46,o),
(1094,160,c),
(1020,160,l),
(1174,0,l),
(1610,0,l),
(1218,384,l),
(1218,302,l),
(1334,462,o),
(1402,678,o),
(1410,906,c),
(1120,906,l),
(1108,754,o),
(1076,618,o),
(1012,502,c),
(1088,504,l),
(790,814,l),
(786,746,l),
(972,844,o),
(1066,980,o),
(1066,1150,cs),
(1066,1360,o),
(918,1496,o),
(680,1496,cs),
(416,1496,o),
(238,1344,o),
(238,1120,cs),
(238,1000,o),
(292,878,o),
(398,780,c),
(450,844,l),
(384,812,l),
(210,710,o),
(104,584,o),
(104,400,cs),
(104,144,o),
(310,-24,o),
(632,-24,cs)
);
},
{
closed = 1;
nodes = (
(534,246,o),
(458,312,o),
(458,422,cs),
(458,522,o),
(506,600,o),
(600,656,c),
(648,682,l),
(500,680,l),
(892,278,l),
(900,360,l),
(830,286,o),
(756,246,o),
(660,246,cs)
);
},
{
closed = 1;
nodes = (
(752,1264,o),
(792,1222,o),
(792,1138,cs),
(792,1044,o),
(742,982,o),
(604,918,c),
(682,918,l),
(598,998,o),
(562,1060,o),
(562,1126,cs),
(562,1210,o),
(606,1264,o),
(682,1264,cs)
);
}
);
width = 1534;
},
{
layerId = "FC5D3D8C-AB50-41A9-8405-C9FF1CAE1726";
shapes = (
{
closed = 1;
nodes = (
(758,-20,o),
(920,60,o),
(1034,198,c),
(988,198,l),
(1160,0,l),
(1407,0,l),
(1096,335,l),
(1100,281,l),
(1195,430,o),
(1255,637,o),
(1262,870,c),
(1089,870,l),
(1081,688,o),
(1045,522,o),
(981,405,c),
(1026,407,l),
(667,819,l),
(663,778,l),
(880,913,o),
(958,1031,o),
(958,1187,cs),
(958,1373,o),
(826,1492,o),
(633,1492,cs),
(411,1492,o),
(267,1358,o),
(267,1160,cs),
(267,1046,o),
(318,938,o),
(441,801,c),
(468,839,l),
(409,802,l),
(209,664,o),
(111,546,o),
(111,362,cs),
(111,130,o),
(286,-20,o),
(574,-20,cs)
);
},
{
closed = 1;
nodes = (
(410,141,o),
(313,227,o),
(313,372,cs),
(313,503,o),
(372,589,o),
(528,700,c),
(582,735,l),
(504,733,l),
(919,264,l),
(922,323,l),
(839,204,o),
(731,141,o),
(587,141,cs)
);
},
{
closed = 1;
nodes = (
(731,1347,o),
(794,1284,o),
(794,1177,cs),
(794,1070,o),
(732,992,o),
(554,881,c),
(604,885,l),
(491,1012,o),
(455,1077,o),
(455,1162,cs),
(455,1274,o),
(526,1347,o),
(634,1347,cs)
);
}
);
width = 1397;
},
{
layerId = "EA701F3C-7533-4E12-969A-F8F539424701";
shapes = (
{
closed = 1;
nodes = (
(734,-16,o),
(898,72,o),
(1000,232,c),
(978,232,l),
(1166,0,l),
(1246,0,l),
(1008,292,l),
(1014,262,l),
(1092,402,o),
(1144,600,o),
(1150,838,c),
(1080,838,l),
(1076,630,o),
(1036,438,o),
(972,320,c),
(990,322,l),
(578,824,l),
(574,806,l),
(818,974,o),
(882,1076,o),
(882,1220,cs),
(882,1384,o),
(764,1488,o),
(610,1488,cs),
(426,1488,o),
(312,1370,o),
(312,1196,cs),
(312,1086,o),
(360,990,o),
(498,820,c),
(502,834,l),
(450,794,ls),
(226,624,o),
(136,512,o),
(136,328,cs),
(136,118,o),
(284,-16,o),
(542,-16,cs)
);
},
{
closed = 1;
nodes = (
(320,48,o),
(204,152,o),
(204,328,cs),
(204,486,o),
(272,580,o),
(484,738,cs),
(542,782,l),
(526,780,l),
(962,252,l),
(960,290,l),
(866,132,o),
(728,48,o),
(542,48,cs)
);
},
{
closed = 1;
nodes = (
(732,1420,o),
(814,1338,o),
(814,1212,cs),
(814,1092,o),
(742,1000,o),
(528,848,c),
(554,856,l),
(416,1024,o),
(380,1092,o),
(380,1194,cs),
(380,1330,o),
(474,1420,o),
(610,1420,cs)
);
}
);
width = 1314;
}
);
leftKerningGroup = ampersand;
rightKerningGroup = ampersand;
unicode = 38;
}
{
color = 11;
glyphname = quotesingle;
layers = (
{
layerId = "7B66E43B-35BC-4CDD-B71B-7D56A9572330";
shapes = (
{
closed = 1;
nodes = (
(394,946,l),
(456,1582,l),
(86,1582,l),
(148,946,l)
);
}
);
width = 542;
},
{
layerId = "FC5D3D8C-AB50-41A9-8405-C9FF1CAE1726";
shapes = (
{
closed = 1;
nodes = (
(297,965,l),
(333,1554,l),
(119,1554,l),
(156,965,l)
);
}
);
width = 453;
},
{
layerId = "EA701F3C-7533-4E12-969A-F8F539424701";
shapes = (
{
closed = 1;
nodes = (
(224,982,l),
(238,1530,l),
(162,1530,l),
(176,982,l)
);
}
);
width = 400;
}
);
leftKerningGroup = quotesingle;
rightKerningGroup = quotesingle;
unicode = 39;
}
{
color = 11;
glyphname = parenleft;
layers = (
{
layerId = "4F752F14-A5C4-4537-86AD-0C8122D258FD";
associatedMasterId = "7B66E43B-35BC-4CDD-B71B-7D56A9572330";
name = "21년 12월 18일 16:40";
shapes = (
{
closed = 1;
nodes = (
(748,-130,l),
(626,198,o),
(580,430,o),
(580,736,cs),
(580,1038,o),
(626,1272,o),
(748,1600,c),
(512,1700,l),
(272,1394,o),
(194,1076,o),
(194,736,cs),
(194,394,o),
(280,76,o),
(512,-228,c)
);
}
);
width = 818;
},
{
layerId = "7B66E43B-35BC-4CDD-B71B-7D56A9572330";
shapes = (
{
closed = 1;
nodes = (
(798,-68,l),
(622,162,o),
(554,416,o),
(554,736,cs),
(554,1056,o),
(616,1308,o),
(796,1538,c),
(512,1700,l),
(272,1394,o),
(194,1076,o),
(194,736,cs),
(194,394,o),
(280,76,o),
(512,-228,c)
);
}
);
width = 818;
},
{
layerId = "FC5D3D8C-AB50-41A9-8405-C9FF1CAE1726";
shapes = (
{
closed = 1;
nodes = (
(617,-131,l),
(465,139,o),
(398,416,o),
(398,736,cs),
(398,1055,o),
(462,1330,o),
(616,1602,c),
(448,1690,l),
(263,1379,o),
(191,1068,o),
(191,736,cs),
(191,403,o),
(267,90,o),
(448,-218,c)
);
}
);
width = 651;
},
{
layerId = "FAF9E2CA-A785-4A41-8680-C88D703FAF99";
associatedMasterId = "EA701F3C-7533-4E12-969A-F8F539424701";
name = "21년 12월 18일 16:41";
shapes = (
{
closed = 1;
nodes = (
(478,-192,l),
(350,110,o),
(282,424,o),
(282,736,cs),
(282,1046,o),
(350,1362,o),
(478,1662,c),
(416,1682,l),
(280,1366,o),
(212,1060,o),
(212,736,cs),
(212,410,o),
(280,102,o),
(416,-210,c)
);
}
);
width = 550;
},
{
layerId = "EA701F3C-7533-4E12-969A-F8F539424701";
shapes = (
{
closed = 1;
nodes = (
(482,-186,l),
(350,118,o),
(284,416,o),
(284,736,cs),
(284,1054,o),
(350,1350,o),
(482,1658,c),
(416,1682,l),
(280,1366,o),
(212,1060,o),
(212,736,cs),
(212,410,o),
(280,102,o),
(416,-210,c)
);
}
);
width = 550;
}
);
leftKerningGroup = parenleft;
rightKerningGroup = braceleft;
unicode = 40;
}
{
color = 11;
glyphname = parenright;
layers = (
{
layerId = "474CB13B-3A1A-4195-B615-B891E34BE137";
associatedMasterId = "7B66E43B-35BC-4CDD-B71B-7D56A9572330";
name = "21년 12월 18일 16:41";
shapes = (
{
closed = 1;
nodes = (
(308,-228,l),
(540,76,o),
(624,394,o),
(624,736,cs),
(624,1076,o),
(540,1394,o),
(308,1700,c),
(72,1598,l),
(192,1270,o),
(238,1038,o),
(238,736,cs),
(238,432,o),
(192,200,o),
(72,-128,c)
);
}
);
width = 818;
},
{
layerId = "7B66E43B-35BC-4CDD-B71B-7D56A9572330";
shapes = (
{
closed = 1;
nodes = (
(22,1540,l),
(196,1310,o),
(264,1054,o),
(264,736,cs),
(264,416,o),
(196,162,o),
(22,-68,c),
(308,-228,l),
(540,76,o),
(624,394,o),
(624,736,cs),
(624,1076,o),
(540,1394,o),
(308,1700,c)
);
}
);
width = 818;
},
{
layerId = "FC5D3D8C-AB50-41A9-8405-C9FF1CAE1726";
shapes = (
{
closed = 1;
nodes = (
(32,1603,l),
(186,1330,o),
(254,1053,o),
(254,736,cs),
(254,416,o),
(186,139,o),
(32,-131,c),
(202,-218,l),
(385,90,o),
(461,403,o),
(461,736,cs),
(461,1066,o),
(385,1378,o),
(202,1690,c)
);
}
);
width = 651;
},
{
layerId = "FAF9E2CA-A785-4A41-8680-C88D703FAF99";
associatedMasterId = "EA701F3C-7533-4E12-969A-F8F539424701";
name = "21년 12월 18일 16:41";
shapes = (
{
closed = 1;
nodes = (
(132,-210,l),
(272,102,o),
(342,410,o),
(342,736,cs),
(342,1058,o),
(272,1364,o),
(132,1682,c),
(72,1662,l),
(202,1356,o),
(268,1042,o),
(268,736,cs),
(268,428,o),
(202,114,o),
(72,-192,c)
);
}
);
width = 550;
},
{
layerId = "EA701F3C-7533-4E12-969A-F8F539424701";
shapes = (
{
closed = 1;
nodes = (
(66,1658,l),
(202,1348,o),
(270,1052,o),
(270,736,cs),
(270,416,o),
(202,118,o),
(66,-186,c),
(132,-210,l),
(272,102,o),
(342,410,o),
(342,736,cs),
(342,1058,o),
(272,1364,o),
(132,1682,c)
);
}
);
width = 550;
}
);
leftKerningGroup = braceright;
rightKerningGroup = parenright;
unicode = 41;
}
{
color = 11;
glyphname = asterisk;
layers = (
{
layerId = "A6805B89-47EA-471F-88E2-6C6BDB91AD06";
shapes = (
{
closed = 1;
nodes = (
(490,1014,l),
(450,1014,l),
(572,724,l),
(782,846,l),
(594,1122,l),
(544,1048,l),
(878,1020,l),
(878,1260,l),
(544,1234,l),
(594,1156,l),
(782,1432,l),
(572,1556,l),
(450,1268,l),
(490,1268,l),
(366,1556,l),
(156,1434,l),
(344,1154,l),
(396,1234,l),
(58,1260,l),
(58,1022,l),
(394,1048,l),
(344,1122,l),
(154,846,l),
(364,728,l)
);
}
);
width = 938;
},
{
layerId = "74EDEEDC-441F-4395-93E2-DA3D8F4EBC35";
shapes = (
{
closed = 1;
nodes = (
(476,1075,l),
(452,1075,l),
(598,780,l),
(728,856,l),
(545,1142,l),
(516,1103,l),
(860,1086,l),
(860,1237,l),
(516,1220,l),
(545,1178,l),
(728,1467,l),
(598,1542,l),
(452,1248,l),
(476,1248,l),
(328,1542,l),
(200,1468,l),
(383,1177,l),
(411,1220,l),
(67,1237,l),
(67,1087,l),
(410,1103,l),
(383,1142,l),
(199,856,l),
(327,781,l)
);
}
);
width = 928;
},
{
layerId = "5CA5D978-5DFF-4019-A5DD-99A0755926E0";
shapes = (
{
closed = 1;
nodes = (
(466,1128,l),
(456,1128,l),
(622,830,l),
(682,864,l),
(504,1160,l),
(494,1152,l),
(846,1144,l),
(846,1216,l),
(494,1208,l),
(504,1198,l),
(682,1498,l),
(622,1530,l),
(456,1230,l),
(466,1230,l),
(296,1530,l),
(240,1498,l),
(420,1198,l),
(426,1208,l),
(76,1216,l),
(76,1144,l),
(426,1152,l),
(420,1160,l),
(240,864,l),
(296,828,l)
);
}
);
width = 922;
}
);
leftKerningGroup = asterisk;
rightKerningGroup = asterisk;
unicode = 42;
}
{
color = 11;
glyphname = plus;
layers = (
{
layerId = "A6805B89-47EA-471F-88E2-6C6BDB91AD06";
shapes = (
{
closed = 1;
nodes = (
(724,242,l),
(724,624,l),
(1096,624,l),
(1096,862,l),
(724,862,l),
(724,1232,l),
(474,1232,l),
(474,862,l),
(104,862,l),
(104,624,l),
(474,624,l),
(474,242,l)
);
}
);
width = 1200;
},
{
layerId = "74EDEEDC-441F-4395-93E2-DA3D8F4EBC35";
shapes = (
{
closed = 1;
nodes = (
(676,242,l),
(676,669,l),
(1096,669,l),
(1096,815,l),
(676,815,l),
(676,1232,l),
(522,1232,l),
(522,815,l),
(104,815,l),
(104,669,l),
(522,669,l),
(522,242,l)
);
}
);
width = 1200;
},
{
layerId = "5CA5D978-5DFF-4019-A5DD-99A0755926E0";
shapes = (
{
closed = 1;
nodes = (
(634,242,l),
(634,708,l),
(1096,708,l),
(1096,774,l),
(634,774,l),
(634,1232,l),
(564,1232,l),
(564,774,l),
(104,774,l),
(104,708,l),
(564,708,l),
(564,242,l)
);
}
);
width = 1200;
}
);
unicode = 43;
}
{
color = 11;
glyphname = comma;
layers = (
{
layerId = "FABF1E1A-6A84-46A2-9218-EDAD5DFF74B6";
associatedMasterId = "A06B8506-BBE1-4A28-92E2-491406422708";
name = "21년 12월 18일 14:29";
shapes = (
{
closed = 1;
nodes = (
(258,-320,l),
(408,-168,o),
(460,-36,o),
(460,134,cs),
(460,370,l),
(86,370,l),
(86,0,l),
(344,0,l),
(268,86,l),
(268,-22,o),
(222,-108,o),
(122,-212,c)
);
}
);
width = 550;
},
{
layerId = "A06B8506-BBE1-4A28-92E2-491406422708";
shapes = (
{
closed = 1;
nodes = (
(225,-376,l),
(435,260,l),
(65,260,l),
(-21,-376,l)
);
}
);
width = 500;
},
{
layerId = "2D3E1F4A-4F79-435C-922D-C1502E296E5C";
shapes = (
{
closed = 1;
nodes = (
(196,-376,l),
(369,213,l),
(155,213,l),
(54,-376,l)
);
}
);
width = 500;
},
{
layerId = "47ADCA1D-9519-4AB6-ADE1-7A2DC5B971EC";
associatedMasterId = "F480A0F6-CE20-4515-90A8-C409EEC2FB0B";
name = "21년 12월 18일 14:30";
shapes = (
{
closed = 1;
nodes = (
(190,-196,l),
(254,-136,o),
(270,-60,o),
(270,22,cs),
(270,128,l),
(148,128,l),
(148,0,l),
(220,0,l),
(204,8,l),
(204,-48,o),
(196,-100,o),
(142,-162,c)
);
}
);
width = 418;
},
{
layerId = "F480A0F6-CE20-4515-90A8-C409EEC2FB0B";
shapes = (
{
closed = 1;
nodes = (
(171,-376,l),
(311,172,l),
(235,172,l),
(121,-376,l)
);
}
);
width = 500;
}
);
leftKerningGroup = period;
rightKerningGroup = period;
unicode = 44;
}
{
color = 11;
glyphname = hyphen;
layers = (
{
layerId = "7B66E43B-35BC-4CDD-B71B-7D56A9572330";
shapes = (
{
closed = 1;
nodes = (
(828,602,l),
(828,870,l),
(128,870,l),
(128,602,l)
);
}
);
width = 956;
},
{
layerId = "FC5D3D8C-AB50-41A9-8405-C9FF1CAE1726";
shapes = (
{
closed = 1;
nodes = (
(770,657,l),
(770,815,l),
(138,815,l),
(138,657,l)
);
}
);
width = 909;
},
{
layerId = "EA701F3C-7533-4E12-969A-F8F539424701";
shapes = (
{
closed = 1;
nodes = (
(726,706,l),
(726,766,l),
(154,766,l),
(154,706,l)
);
}
);
width = 880;
}
);
leftKerningGroup = hyphen;
rightKerningGroup = hyphen;
unicode = 45;
}
{
color = 11;
glyphname = period;
layers = (
{
layerId = "7B66E43B-35BC-4CDD-B71B-7D56A9572330";
shapes = (
{
closed = 1;
nodes = (
(437,0,l),
(437,370,l),
(63,370,l),
(63,0,l)
);
}
);
width = 500;
},
{
layerId = "FC5D3D8C-AB50-41A9-8405-C9FF1CAE1726";
shapes = (
{
closed = 1;
nodes = (
(370,0,l),
(370,241,l),
(130,241,l),
(130,0,l)
);
}
);
width = 500;
},
{
layerId = "EA701F3C-7533-4E12-969A-F8F539424701";
shapes = (
{
closed = 1;
nodes = (
(311,0,l),
(311,128,l),
(189,128,l),
(189,0,l)
);
}
);
width = 500;
}
);
leftKerningGroup = period;
rightKerningGroup = period;
unicode = 46;
}
{
color = 11;
glyphname = slash;
layers = (
{
layerId = "A6805B89-47EA-471F-88E2-6C6BDB91AD06";
shapes = (
{
closed = 1;
nodes = (
(742,1548,l),
(480,1622,l),
(-38,-74,l),
(224,-150,l)
);
}
);
width = 704;
},
{
layerId = "74EDEEDC-441F-4395-93E2-DA3D8F4EBC35";
shapes = (
{
closed = 1;
nodes = (
(623,1548,l),
(466,1593,l),
(-46,-76,l),
(112,-121,l)
);
}
);
width = 579;
},
{
layerId = "5CA5D978-5DFF-4019-A5DD-99A0755926E0";
shapes = (
{
closed = 1;
nodes = (
(536,1548,l),
(472,1568,l),
(-34,-78,l),
(32,-96,l)
);
}
);
width = 504;
}
);
leftKerningGroup = slash;
rightKerningGroup = slash;
unicode = 47;
}
{
glyphname = zero;
layers = (
{
layerId = "A6805B89-47EA-471F-88E2-6C6BDB91AD06";
shapes = (
{
closed = 1;
nodes = (
(988,-18,o),
(1186,250,o),
(1186,738,cs),
(1186,1214,o),
(988,1486,o),
(626,1486,cs),
(270,1486,o),
(68,1214,o),
(68,740,cs),
(68,250,o),
(270,-18,o),
(626,-18,cs)
);
},
{
closed = 1;
nodes = (
(486,258,o),
(422,400,o),
(422,738,cs),
(422,1068,o),
(486,1208,o),
(626,1208,cs),
(768,1208,o),
(832,1070,o),
(832,738,cs),
(832,402,o),
(768,258,o),
(626,258,cs)
);
}
);
width = 1254;
},
{
layerId = "74EDEEDC-441F-4395-93E2-DA3D8F4EBC35";
shapes = (
{
closed = 1;
nodes = (
(968,-17,o),
(1151,246,o),
(1151,738,cs),
(1151,1226,o),
(968,1487,o),
(626,1487,cs),
(287,1487,o),
(102,1224,o),
(102,736,cs),
(102,245,o),
(287,-17,o),
(626,-17,cs)
);
},
{
closed = 1;
nodes = (
(411,153,o),
(310,335,o),
(310,738,cs),
(310,1138,o),
(411,1317,o),
(626,1317,cs),
(845,1317,o),
(943,1140,o),
(943,738,cs),
(943,334,o),
(843,153,o),
(626,153,cs)
);
}
);
width = 1254;
},
{
layerId = "5CA5D978-5DFF-4019-A5DD-99A0755926E0";
shapes = (
{
closed = 1;
nodes = (
(950,-16,o),
(1120,242,o),
(1120,738,cs),
(1120,1236,o),
(950,1488,o),
(626,1488,cs),
(302,1488,o),
(132,1232,o),
(132,732,cs),
(132,240,o),
(302,-16,o),
(626,-16,cs)
);
},
{
closed = 1;
nodes = (
(344,60,o),
(212,278,o),
(212,738,cs),
(212,1200,o),
(344,1414,o),
(626,1414,cs),
(912,1414,o),
(1040,1202,o),
(1040,738,cs),
(1040,274,o),
(910,60,o),
(626,60,cs)
);
}
);
width = 1254;
}
);
leftKerningGroup = zero;
rightKerningGroup = zero;
unicode = 48;
}
{
glyphname = one;
layers = (
{
layerId = "7B66E43B-35BC-4CDD-B71B-7D56A9572330";
shapes = (
{
closed = 1;
nodes = (
(884,0,l),
(884,1472,l),
(624,1472,l),
(134,1192,l),
(268,928,l),
(688,1166,l),
(516,1170,l),
(516,0,l)
);
},
{
closed = 1;
nodes = (
(1202,0,l),
(1202,296,l),
(202,296,l),
(202,0,l)
);
}
);
width = 1254;
},
{
layerId = "FC5D3D8C-AB50-41A9-8405-C9FF1CAE1726";
shapes = (
{
closed = 1;
nodes = (
(796,0,l),
(796,1472,l),
(644,1472,l),
(238,1220,l),
(325,1068,l),
(695,1295,l),
(586,1309,l),
(586,0,l)
);
},
{
closed = 1;
nodes = (
(1113,0,l),
(1113,173,l),
(259,173,l),
(259,0,l)
);
}
);
width = 1254;
},
{
layerId = "EA701F3C-7533-4E12-969A-F8F539424701";
shapes = (
{
closed = 1;
nodes = (
(718,0,l),
(718,1472,l),
(662,1472,l),
(330,1244,l),
(376,1191,l),
(702,1409,l),
(648,1432,l),
(648,0,l)
);
},
{
closed = 1;
nodes = (
(1034,0,l),
(1034,64,l),
(310,64,l),
(310,0,l)
);
}
);
width = 1254;
}
);
leftKerningGroup = one;
rightKerningGroup = one;
unicode = 49;
}
{
glyphname = two;
layers = (
{
layerId = "A6805B89-47EA-471F-88E2-6C6BDB91AD06";
shapes = (
{
closed = 1;
nodes = (
(1170,0,l),
(130,0,l),
(130,126,ls),
(130,237,o),
(156,328,o),
(200,410,cs),
(260,521,o),
(359,625,o),
(493,719,cs),
(571,774,o),
(634,830,o),
(676,882,cs),
(716,932,o),
(740,983,o),
(740,1042,cs),
(740,1136,o),
(688,1184,o),
(578,1184,cs),
(460,1184,o),
(330,1136,o),
(202,1052,c),
(80,1332,l),
(202,1420,o),
(402,1488,o),
(598,1488,cs),
(916,1488,o),
(1126,1326,o),
(1126,1070,cs),
(1126,943,o),
(1080,839,o),
(1011,747,cs),
(965,685,o),
(905,624,o),
(803,545,cs),
(747,501,o),
(691,453,o),
(664,424,cs),
(627,384,o),
(610,342,o),
(610,314,cs),
(610,314,l),
(1170,314,l)
);
}
);
width = 1254;
},
{
layerId = "74EDEEDC-441F-4395-93E2-DA3D8F4EBC35";
shapes = (
{
closed = 1;
nodes = (
(1136,0,l),
(177,0,l),
(177,116,ls),
(177,228,o),
(212,326,o),
(275,418,cs),
(341,515,o),
(447,619,o),
(625,717,cs),
(688,752,o),
(761,798,o),
(812,871,cs),
(852,929,o),
(875,1000,o),
(875,1085,cs),
(875,1233,o),
(785,1317,o),
(620,1317,cs),
(479,1317,o),
(346,1266,o),
(210,1158,c),
(139,1311,l),
(258,1415,o),
(447,1487,o),
(626,1487,cs),
(902,1487,o),
(1079,1336,o),
(1079,1098,cs),
(1079,972,o),
(1046,874,o),
(983,786,cs),
(927,707,o),
(838,623,o),
(655,516,cs),
(616,493,o),
(545,450,o),
(503,401,cs),
(430,316,o),
(406,265,o),
(406,195,cs),
(406,172,l),
(1136,172,l)
);
}
);
width = 1254;
},
{
layerId = "5CA5D978-5DFF-4019-A5DD-99A0755926E0";
shapes = (
{
closed = 1;
nodes = (
(1112,0,l),
(212,0,l),
(212,108,ls),
(212,221,o),
(252,324,o),
(325,416,cs),
(400,510,o),
(512,592,o),
(649,655,cs),
(773,713,o),
(853,775,o),
(904,854,cs),
(951,926,o),
(974,1012,o),
(974,1116,cs),
(974,1304,o),
(856,1414,o),
(650,1414,cs),
(492,1414,o),
(358,1360,o),
(216,1236,c),
(182,1296,l),
(298,1412,o),
(480,1486,o),
(646,1486,cs),
(892,1486,o),
(1044,1344,o),
(1044,1118,cs),
(1044,993,o),
(1022,899,o),
(965,817,cs),
(899,723,o),
(788,646,o),
(657,580,cs),
(519,511,o),
(439,447,o),
(397,397,cs),
(331,319,o),
(286,191,o),
(286,108,cs),
(286,68,l),
(1112,68,l)
);
}
);
width = 1254;
}
);
leftKerningGroup = two;
rightKerningGroup = two;
unicode = 50;
}
{
glyphname = three;
layers = (
{
layerId = "7B66E43B-35BC-4CDD-B71B-7D56A9572330";
shapes = (
{
closed = 1;
nodes = (
(1098,1256,l),
(1098,1472,l),
(162,1472,l),
(162,1178,l),
(800,1178,l)
);
},
{
closed = 1;
nodes = (
(350,866,l),
(350,648,l),
(566,648,ls),
(718,648,o),
(804,582,o),
(804,456,cs),
(804,334,o),
(718,268,o),
(566,268,cs),
(438,268,o),
(300,316,o),
(168,402,c),
(58,142,l),
(172,38,o),
(378,-16,o),
(584,-16,cs),
(928,-16,o),
(1154,174,o),
(1154,456,cs),
(1154,742,o),
(928,934,o),
(584,934,c)
);
},
{
closed = 1;
nodes = (
(1098,1256,l),
(968,1472,l),
(350,866,l),
(472,648,l)
);
}
);
width = 1254;
},
{
layerId = "FC5D3D8C-AB50-41A9-8405-C9FF1CAE1726";
shapes = (
{
closed = 1;
nodes = (
(1063,1344,l),
(1063,1472,l),
(191,1472,l),
(191,1300,l),
(909,1300,l)
);
},
{
closed = 1;
nodes = (
(407,851,l),
(407,721,l),
(600,721,ls),
(793,721,o),
(903,620,o),
(903,439,cs),
(903,258,o),
(793,156,o),
(600,156,cs),
(452,156,o),
(312,211,o),
(178,319,c),
(106,162,l),
(227,50,o),
(413,-15,o),
(605,-15,cs),
(908,-15,o),
(1106,167,o),
(1106,439,cs),
(1106,713,o),
(908,893,o),
(605,893,c)
);
},
{
closed = 1;
nodes = (
(1063,1344,l),
(980,1472,l),
(407,851,l),
(489,722,l)
);
}
);
width = 1254;
},
{
layerId = "EA701F3C-7533-4E12-969A-F8F539424701";
shapes = (
{
closed = 1;
nodes = (
(1032,1422,l),
(1032,1472,l),
(216,1472,l),
(216,1408,l),
(1006,1408,l)
);
},
{
closed = 1;
nodes = (
(458,838,l),
(458,786,l),
(630,786,ls),
(860,786,o),
(990,654,o),
(990,424,cs),
(990,190,o),
(860,58,o),
(630,58,cs),
(464,58,o),
(322,118,o),
(186,246,c),
(148,180,l),
(276,60,o),
(444,-14,o),
(624,-14,cs),
(890,-14,o),
(1064,160,o),
(1064,424,cs),
(1064,688,o),
(890,856,o),
(624,856,c)
);
},
{
closed = 1;
nodes = (
(1032,1422,l),
(990,1472,l),
(458,838,l),
(504,788,l)
);
}
);
width = 1254;
}
);
leftKerningGroup = three;
rightKerningGroup = three;
unicode = 51;
}
{
glyphname = four;
layers = (
{
layerId = "A6805B89-47EA-471F-88E2-6C6BDB91AD06";
shapes = (
{
closed = 1;
nodes = (
(612,1472,l),
(70,584,l),
(70,318,l),
(1214,318,l),
(1214,592,l),
(336,592,l),
(384,510,l),
(974,1472,l)
);
},
{
closed = 1;
nodes = (
(726,0,l),
(1084,0,l),
(1084,858,l),
(726,858,l)
);
}
);
width = 1254;
},
{
layerId = "74EDEEDC-441F-4395-93E2-DA3D8F4EBC35";
shapes = (
{
closed = 1;
nodes = (
(682,1472,l),
(99,522,l),
(99,369,l),
(1185,369,l),
(1185,531,l),
(248,531,l),
(265,448,l),
(892,1472,l)
);
},
{
closed = 1;
nodes = (
(792,0,l),
(996,0,l),
(996,858,l),
(792,858,l)
);
}
);
width = 1254;
},
{
layerId = "5CA5D978-5DFF-4019-A5DD-99A0755926E0";
shapes = (
{
closed = 1;
nodes = (
(744,1472,l),
(124,468,l),
(124,414,l),
(1160,414,l),
(1160,478,l),
(170,478,l),
(186,439,l),
(820,1472,l)
);
},
{
closed = 1;
nodes = (
(850,0,l),
(918,0,l),
(918,858,l),
(850,858,l)
);
}
);
width = 1254;
}
);
leftKerningGroup = four;
rightKerningGroup = four;
unicode = 52;
}
{
glyphname = five;
layers = (
{
layerId = "7B66E43B-35BC-4CDD-B71B-7D56A9572330";
shapes = (
{
closed = 1;
nodes = (
(964,-16,o),
(1192,180,o),
(1192,486,cs),
(1192,770,o),
(998,958,o),
(724,958,cs),
(590,958,o),
(488,944,o),
(400,904,c),
(512,812,l),
(544,1194,l),
(1116,1194,l),
(1116,1472,l),
(224,1472,l),
(152,646,l),
(358,646,l),
(428,668,o),
(534,686,o),
(614,686,cs),
(760,686,o),
(848,606,o),
(848,472,cs),
(848,334,o),
(770,268,o),
(608,268,cs),
(476,268,o),
(346,312,o),
(212,402,c),
(96,142,l),
(212,42,o),
(414,-16,o),
(606,-16,cs)
);
}
);
width = 1254;
},
{
layerId = "FC5D3D8C-AB50-41A9-8405-C9FF1CAE1726";
shapes = (
{
closed = 1;
nodes = (
(957,-15,o),
(1157,179,o),
(1157,465,cs),
(1157,742,o),
(977,930,o),
(696,930,cs),
(542,930,o),
(418,903,o),
(337,853,c),
(403,800,l),
(445,1305,l),
(1096,1305,l),
(1096,1472,l),
(265,1472,l),
(197,695,l),
(331,695,l),
(411,739,o),
(524,764,o),
(652,764,cs),
(838,764,o),
(953,641,o),
(953,458,cs),
(953,269,o),
(841,156,o),
(642,156,cs),
(497,156,o),
(361,212,o),
(227,319,c),
(153,162,l),
(273,52,o),
(462,-15,o),
(641,-15,cs)
);
}
);
width = 1254;
},
{
layerId = "EA701F3C-7533-4E12-969A-F8F539424701";
shapes = (
{
closed = 1;
nodes = (
(950,-14,o),
(1126,178,o),
(1126,446,cs),
(1126,718,o),
(958,906,o),
(672,906,cs),
(500,906,o),
(356,866,o),
(282,808,c),
(306,790,l),
(358,1402,l),
(1078,1402,l),
(1078,1472,l),
(302,1472,l),
(236,738,l),
(308,738,l),
(396,802,o),
(516,832,o),
(686,832,cs),
(906,832,o),
(1046,672,o),
(1046,446,cs),
(1046,212,o),
(904,58,o),
(672,58,cs),
(516,58,o),
(374,124,o),
(240,246,c),
(204,180,l),
(326,60,o),
(504,-14,o),
(672,-14,cs)
);
}
);
width = 1254;
}
);
leftKerningGroup = five;
rightKerningGroup = five;
unicode = 53;
}
{
glyphname = six;
layers = (
{
layerId = "A06B8506-BBE1-4A28-92E2-491406422708";
shapes = (
{
closed = 1;
nodes = (
(288,992,o),
(62,788,o),
(62,486,cs),
(62,184,o),
(288,-16,o),
(628,-16,cs),
(970,-16,o),
(1198,184,o),
(1198,486,cs),
(1198,788,o),
(970,992,o),
(628,992,cs)
);
},
{
closed = 1;
nodes = (
(484,268,o),
(404,344,o),
(404,486,cs),
(404,626,o),
(484,704,o),
(628,704,cs),
(772,704,o),
(854,626,o),
(854,486,cs),
(854,344,o),
(772,268,o),
(628,268,cs)
);
},
{
closed = 1;
nodes = (
(636,1472,l),
(154,786,l),
(420,602,l),
(1036,1472,l)
);
}
);
width = 1255;
},
{
layerId = "2D3E1F4A-4F79-435C-922D-C1502E296E5C";
shapes = (
{
closed = 1;
nodes = (
(305,944,o),
(91,752,o),
(91,465,cs),
(91,177,o),
(305,-15,o),
(627,-15,cs),
(949,-15,o),
(1162,177,o),
(1162,465,cs),
(1162,752,o),
(949,944,o),
(627,944,cs)
);
},
{
closed = 1;
nodes = (
(414,156,o),
(295,266,o),
(295,465,cs),
(295,661,o),
(414,772,o),
(627,772,cs),
(840,772,o),
(959,661,o),
(959,465,cs),
(959,266,o),
(840,156,o),
(627,156,cs)
);
},
{
closed = 1;
nodes = (
(687,1472,l),
(188,759,l),
(344,651,l),
(919,1472,l)
);
}
);
width = 1255;
},
{
layerId = "F480A0F6-CE20-4515-90A8-C409EEC2FB0B";
shapes = (
{
closed = 1;
nodes = (
(320,902,o),
(116,720,o),
(116,446,cs),
(116,170,o),
(320,-14,o),
(626,-14,cs),
(930,-14,o),
(1130,170,o),
(1130,446,cs),
(1130,720,o),
(930,902,o),
(626,902,cs)
);
},
{
closed = 1;
nodes = (
(352,58,o),
(198,198,o),
(198,446,cs),
(198,692,o),
(352,832,o),
(626,832,cs),
(900,832,o),
(1052,692,o),
(1052,446,cs),
(1052,198,o),
(900,58,o),
(626,58,cs)
);
},
{
closed = 1;
nodes = (
(732,1472,l),
(218,736,l),
(276,694,l),
(816,1472,l)
);
}
);
width = 1255;
}
);
leftKerningGroup = six;
rightKerningGroup = six;
unicode = 54;
}
{
glyphname = seven;
layers = (
{
layerId = "7B66E43B-35BC-4CDD-B71B-7D56A9572330";
shapes = (
{
closed = 1;
nodes = (
(1170,1198,l),
(1170,1472,l),
(84,1472,l),
(84,1178,l),
(830,1178,l),
(830,1278,l),
(132,0,l),
(524,0,l)
);
}
);
width = 1254;
},
{
layerId = "FC5D3D8C-AB50-41A9-8405-C9FF1CAE1726";
shapes = (
{
closed = 1;
nodes = (
(1122,1316,l),
(1122,1472,l),
(132,1472,l),
(132,1300,l),
(947,1300,l),
(935,1376,l),
(218,0,l),
(442,0,l)
);
}
);
width = 1254;
},
{
layerId = "EA701F3C-7533-4E12-969A-F8F539424701";
shapes = (
{
closed = 1;
nodes = (
(1080,1420,l),
(1080,1472,l),
(174,1472,l),
(174,1408,l),
(1050,1408,l),
(1028,1462,l),
(294,0,l),
(370,0,l)
);
}
);
width = 1254;
}
);
leftKerningGroup = seven;
rightKerningGroup = seven;
unicode = 55;
}
{
glyphname = eight;
layers = (
{
layerId = "7B66E43B-35BC-4CDD-B71B-7D56A9572330";
shapes = (
{
closed = 1;
nodes = (
(982,-16,o),
(1202,142,o),
(1202,404,cs),
(1202,608,o),
(1086,742,o),
(874,774,c),
(874,742,l),
(1052,768,o),
(1162,902,o),
(1162,1088,cs),
(1162,1340,o),
(956,1490,o),
(626,1490,cs),
(298,1490,o),
(90,1340,o),
(90,1088,cs),
(90,910,o),
(196,778,o),
(384,740,c),
(382,774,l),
(170,750,o),
(54,610,o),
(54,404,cs),
(54,142,o),
(272,-16,o),
(626,-16,cs)
);
},
{
closed = 1;
nodes = (
(470,260,o),
(390,322,o),
(390,434,cs),
(390,550,o),
(470,602,o),
(626,602,cs),
(784,602,o),
(864,550,o),
(864,434,cs),
(864,322,o),
(784,260,o),
(626,260,cs)
);
},
{
closed = 1;
nodes = (
(498,884,o),
(426,934,o),
(426,1050,cs),
(426,1162,o),
(494,1214,o),
(626,1214,cs),
(758,1214,o),
(822,1162,o),
(822,1050,cs),
(822,934,o),
(758,884,o),
(626,884,cs)
);
}
);
width = 1254;
},
{
layerId = "FC5D3D8C-AB50-41A9-8405-C9FF1CAE1726";
shapes = (
{
closed = 1;
nodes = (
(968,-15,o),
(1164,138,o),
(1164,392,cs),
(1164,595,o),
(1036,737,o),
(825,770,c),
(836,741,l),
(1011,775,o),
(1127,912,o),
(1127,1095,cs),
(1127,1339,o),
(943,1489,o),
(626,1489,cs),
(310,1489,o),
(125,1339,o),
(125,1095,cs),
(125,915,o),
(241,779,o),
(419,740,c),
(430,770,l),
(218,740,o),
(90,596,o),
(90,392,cs),
(90,138,o),
(285,-15,o),
(626,-15,cs)
);
},
{
closed = 1;
nodes = (
(399,154,o),
(291,240,o),
(291,407,cs),
(291,572,o),
(399,663,o),
(626,663,cs),
(855,663,o),
(963,572,o),
(963,407,cs),
(963,240,o),
(855,154,o),
(626,154,cs)
);
},
{
closed = 1;
nodes = (
(428,829,o),
(326,919,o),
(326,1078,cs),
(326,1233,o),
(426,1320,o),
(626,1320,cs),
(826,1320,o),
(926,1233,o),
(926,1078,cs),
(926,919,o),
(826,829,o),
(626,829,cs)
);
}
);
width = 1254;
},
{
layerId = "EA701F3C-7533-4E12-969A-F8F539424701";
shapes = (
{
closed = 1;
nodes = (
(956,-14,o),
(1130,134,o),
(1130,382,cs),
(1130,584,o),
(992,732,o),
(782,766,c),
(802,740,l),
(974,782,o),
(1096,920,o),
(1096,1102,cs),
(1096,1338,o),
(932,1488,o),
(626,1488,cs),
(320,1488,o),
(156,1338,o),
(156,1102,cs),
(156,920,o),
(280,780,o),
(450,740,c),
(472,766,l),
(260,732,o),
(122,584,o),
(122,382,cs),
(122,134,o),
(296,-14,o),
(626,-14,cs)
);
},
{
closed = 1;
nodes = (
(336,60,o),
(204,168,o),
(204,384,cs),
(204,592,o),
(336,716,o),
(626,716,cs),
(918,716,o),
(1050,592,o),
(1050,384,cs),
(1050,168,o),
(918,60,o),
(626,60,cs)
);
},
{
closed = 1;
nodes = (
(366,780,o),
(238,906,o),
(238,1102,cs),
(238,1296,o),
(366,1414,o),
(626,1414,cs),
(886,1414,o),
(1018,1296,o),
(1018,1102,cs),
(1018,906,o),
(886,780,o),
(626,780,cs)
);
}
);
width = 1254;
}
);
leftKerningGroup = eight;
rightKerningGroup = eight;
unicode = 56;
}
{
glyphname = nine;
layers = (
{
layerId = "A6805B89-47EA-471F-88E2-6C6BDB91AD06";
shapes = (
{
closed = 1;
nodes = (
(970,480,o),
(1198,684,o),
(1198,986,cs),
(1198,1288,o),
(970,1488,o),
(628,1488,cs),
(288,1488,o),
(62,1288,o),
(62,986,cs),
(62,684,o),
(288,480,o),
(628,480,cs)
);
},
{
closed = 1;
nodes = (
(772,1204,o),
(854,1128,o),
(854,986,cs),
(854,846,o),
(772,768,o),
(628,768,cs),
(484,768,o),
(404,846,o),
(404,986,cs),
(404,1128,o),
(484,1204,o),
(628,1204,cs)
);
},
{
closed = 1;
nodes = (
(622,0,l),
(1104,686,l),
(836,870,l),
(224,0,l)
);
}
);
width = 1254;
},
{
layerId = "74EDEEDC-441F-4395-93E2-DA3D8F4EBC35";
shapes = (
{
closed = 1;
nodes = (
(949,528,o),
(1162,720,o),
(1162,1007,cs),
(1162,1295,o),
(949,1487,o),
(627,1487,cs),
(305,1487,o),
(91,1295,o),
(91,1007,cs),
(91,720,o),
(305,528,o),
(627,528,cs)
);
},
{
closed = 1;
nodes = (
(840,1316,o),
(959,1206,o),
(959,1007,cs),
(959,811,o),
(840,700,o),
(627,700,cs),
(414,700,o),
(295,811,o),
(295,1007,cs),
(295,1206,o),
(414,1316,o),
(627,1316,cs)
);
},
{
closed = 1;
nodes = (
(567,0,l),
(1066,713,l),
(909,821,l),
(335,0,l)
);
}
);
width = 1254;
},
{
layerId = "5CA5D978-5DFF-4019-A5DD-99A0755926E0";
shapes = (
{
closed = 1;
nodes = (
(930,570,o),
(1130,752,o),
(1130,1026,cs),
(1130,1302,o),
(930,1486,o),
(626,1486,cs),
(320,1486,o),
(116,1302,o),
(116,1026,cs),
(116,752,o),
(320,570,o),
(626,570,cs)
);
},
{
closed = 1;
nodes = (
(900,1414,o),
(1052,1274,o),
(1052,1026,cs),
(1052,780,o),
(900,640,o),
(626,640,cs),
(352,640,o),
(198,780,o),
(198,1026,cs),
(198,1274,o),
(352,1414,o),
(626,1414,cs)
);
},
{
closed = 1;
nodes = (
(518,0,l),
(1032,736,l),
(974,778,l),
(432,0,l)
);
}
);
width = 1254;
}
);
leftKerningGroup = nine;
rightKerningGroup = nine;
unicode = 57;
}
{
color = 11;
glyphname = colon;
layers = (
{
layerId = "A06B8506-BBE1-4A28-92E2-491406422708";
shapes = (
{
closed = 1;
nodes = (
(437,750,l),
(437,1122,l),
(63,1122,l),
(63,750,l)
);
},
{
closed = 1;
nodes = (
(437,0,l),
(437,370,l),
(63,370,l),
(63,0,l)
);
}
);
width = 500;
},
{
layerId = "2D3E1F4A-4F79-435C-922D-C1502E296E5C";
shapes = (
{
closed = 1;
nodes = (
(370,869,l),
(370,1111,l),
(130,1111,l),
(130,869,l)
);
},
{
closed = 1;
nodes = (
(370,0,l),
(370,241,l),
(130,241,l),
(130,0,l)
);
}
);
width = 500;
},
{
layerId = "F480A0F6-CE20-4515-90A8-C409EEC2FB0B";
shapes = (
{
closed = 1;
nodes = (
(311,974,l),
(311,1102,l),
(189,1102,l),
(189,974,l)
);
},
{
closed = 1;
nodes = (
(311,0,l),
(311,128,l),
(189,128,l),
(189,0,l)
);
}
);
width = 500;
}
);
leftKerningGroup = colon;
rightKerningGroup = colon;
unicode = 58;
}
{
color = 11;
glyphname = semicolon;
layers = (
{
layerId = "FABF1E1A-6A84-46A2-9218-EDAD5DFF74B6";
associatedMasterId = "A06B8506-BBE1-4A28-92E2-491406422708";
name = "21년 12월 18일 14:29";
shapes = (
{
alignment = -1;
ref = comma;
}
);
width = 550;
},
{
layerId = "A06B8506-BBE1-4A28-92E2-491406422708";
shapes = (
{
closed = 1;
nodes = (
(437,750,l),
(437,1122,l),
(63,1122,l),
(63,750,l)
);
},
{
closed = 1;
nodes = (
(226,-376,l),
(436,260,l),
(66,260,l),
(-20,-376,l)
);
}
);
width = 500;
},
{
layerId = "2D3E1F4A-4F79-435C-922D-C1502E296E5C";
shapes = (
{
closed = 1;
nodes = (
(370,869,l),
(370,1111,l),
(130,1111,l),
(130,869,l)
);
},
{
closed = 1;
nodes = (
(197,-376,l),
(370,213,l),
(156,213,l),
(55,-376,l)
);
}
);
width = 500;
},
{
layerId = "47ADCA1D-9519-4AB6-ADE1-7A2DC5B971EC";
associatedMasterId = "F480A0F6-CE20-4515-90A8-C409EEC2FB0B";
name = "21년 12월 18일 14:30";
shapes = (
{
alignment = -1;
ref = comma;
}
);
width = 418;
},
{
layerId = "F480A0F6-CE20-4515-90A8-C409EEC2FB0B";
shapes = (
{
closed = 1;
nodes = (
(311,974,l),
(311,1102,l),
(189,1102,l),
(189,974,l)
);
},
{
closed = 1;
nodes = (
(171,-376,l),
(311,172,l),
(235,172,l),
(121,-376,l)
);
}
);
width = 500;
}
);
leftKerningGroup = colon;
rightKerningGroup = colon;
unicode = 59;
}
{
color = 11;
glyphname = less;
layers = (
{
layerId = "A6805B89-47EA-471F-88E2-6C6BDB91AD06";
shapes = (
{
closed = 1;
nodes = (
(1096,468,l),
(192,826,l),
(192,648,l),
(1096,1004,l),
(1096,1272,l),
(104,872,l),
(104,606,l),
(1096,202,l)
);
}
);
width = 1200;
},
{
layerId = "74EDEEDC-441F-4395-93E2-DA3D8F4EBC35";
shapes = (
{
closed = 1;
nodes = (
(1096,379,l),
(175,787,l),
(175,685,l),
(1096,1093,l),
(1096,1261,l),
(104,815,l),
(104,659,l),
(1096,212,l)
);
}
);
width = 1200;
},
{
layerId = "5CA5D978-5DFF-4019-A5DD-99A0755926E0";
shapes = (
{
closed = 1;
nodes = (
(1096,300,l),
(160,752,l),
(160,718,l),
(1096,1172,l),
(1096,1252,l),
(104,764,l),
(104,706,l),
(1096,220,l)
);
}
);
width = 1200;
}
);
unicode = 60;
}
{
color = 11;
glyphname = equal;
layers = (
{
layerId = "7B66E43B-35BC-4CDD-B71B-7D56A9572330";
shapes = (
{
closed = 1;
nodes = (
(1096,826,l),
(1096,1066,l),
(104,1066,l),
(104,826,l)
);
},
{
closed = 1;
nodes = (
(1096,408,l),
(1096,648,l),
(104,648,l),
(104,408,l)
);
}
);
width = 1200;
},
{
layerId = "FC5D3D8C-AB50-41A9-8405-C9FF1CAE1726";
shapes = (
{
closed = 1;
nodes = (
(1096,871,l),
(1096,1020,l),
(104,1020,l),
(104,871,l)
);
},
{
closed = 1;
nodes = (
(1096,454,l),
(1096,603,l),
(104,603,l),
(104,454,l)
);
}
);
width = 1200;
},
{
layerId = "EA701F3C-7533-4E12-969A-F8F539424701";
shapes = (
{
closed = 1;
nodes = (
(1096,910,l),
(1096,980,l),
(104,980,l),
(104,910,l)
);
},
{
closed = 1;
nodes = (
(1096,494,l),
(1096,564,l),
(104,564,l),
(104,494,l)
);
}
);
width = 1200;
}
);
unicode = 61;
}
{
color = 11;
glyphname = greater;
layers = (
{
layerId = "B0FE6CA3-3B5A-43B9-ADCC-06CF5CDDB79F";
shapes = (
{
closed = 1;
nodes = (
(1096,606,l),
(1096,872,l),
(104,1272,l),
(104,1004,l),
(1008,648,l),
(1008,824,l),
(104,468,l),
(104,202,l)
);
}
);
width = 1200;
},
{
layerId = "FE1B4F78-E1AE-46DB-B09E-A4EC5EE567EB";
shapes = (
{
closed = 1;
nodes = (
(1096,659,l),
(1096,815,l),
(104,1261,l),
(104,1093,l),
(1025,685,l),
(1025,786,l),
(104,379,l),
(104,212,l)
);
}
);
width = 1200;
},
{
layerId = "958021ED-7CC5-4835-9393-1BA2EA52DC8F";
shapes = (
{
closed = 1;
nodes = (
(1096,706,l),
(1096,764,l),
(104,1252,l),
(104,1172,l),
(1040,718,l),
(1040,752,l),
(104,300,l),
(104,220,l)
);
}
);
width = 1200;
}
);
unicode = 62;
}
{
color = 11;
glyphname = question;
layers = (
{
layerId = "A6805B89-47EA-471F-88E2-6C6BDB91AD06";
shapes = (
{
closed = 1;
nodes = (
(580,490,l),
(594,558,l),
(602,620,o),
(630,682,o),
(758,792,c),
(892,892,o),
(948,992,o),
(948,1128,cs),
(948,1348,o),
(762,1496,o),
(484,1496,cs),
(312,1496,o),
(128,1436,o),
(6,1336,c),
(120,1062,l),
(228,1150,o),
(338,1190,o),
(450,1190,cs),
(540,1190,o),
(584,1152,o),
(584,1084,cs),
(584,1022,o),
(552,978,o),
(500,914,c),
(398,796,o),
(370,708,o),
(370,598,cs),
(370,490,l)
);
},
{
closed = 1;
nodes = (
(660,0,l),
(660,370,l),
(288,370,l),
(288,0,l)
);
}
);
width = 960;
},
{
layerId = "74EDEEDC-441F-4395-93E2-DA3D8F4EBC35";
shapes = (
{
closed = 1;
nodes = (
(487,404,l),
(493,458,ls),
(502,554,o),
(540,637,o),
(670,781,c),
(799,912,o),
(856,1011,o),
(856,1154,cs),
(856,1359,o),
(696,1492,o),
(457,1492,cs),
(284,1492,o),
(109,1423,o),
(1,1316,c),
(74,1157,l),
(184,1261,o),
(304,1312,o),
(441,1312,cs),
(572,1312,o),
(647,1248,o),
(647,1135,cs),
(647,1036,o),
(605,965,o),
(523,863,cs),
(395,706,o),
(362,601,o),
(362,474,cs),
(362,404,l)
);
},
{
closed = 1;
nodes = (
(542,0,l),
(542,241,l),
(303,241,l),
(303,0,l)
);
}
);
width = 894;
},
{
layerId = "5CA5D978-5DFF-4019-A5DD-99A0755926E0";
shapes = (
{
closed = 1;
nodes = (
(414,328,l),
(414,370,l),
(424,496,o),
(470,598,o),
(602,772,cs),
(726,930,o),
(784,1028,o),
(784,1176,cs),
(784,1368,o),
(648,1488,o),
(442,1488,cs),
(268,1488,o),
(102,1412,o),
(6,1298,c),
(42,1240,l),
(154,1358,o),
(284,1420,o),
(442,1420,cs),
(610,1420,o),
(712,1332,o),
(712,1180,cs),
(712,1048,o),
(662,954,o),
(552,818,cs),
(402,626,o),
(364,506,o),
(364,364,cs),
(364,328,l)
);
},
{
closed = 1;
nodes = (
(448,0,l),
(448,128,l),
(326,128,l),
(326,0,l)
);
}
);
width = 854;
}
);
leftKerningGroup = quesion;
rightKerningGroup = question;
unicode = 63;
}
{
color = 11;
glyphname = at;
layers = (
{
layerId = "7B66E43B-35BC-4CDD-B71B-7D56A9572330";
shapes = (
{
closed = 1;
nodes = (
(1206,-188,o),
(1398,-132,o),
(1522,-44,c),
(1414,170,l),
(1288,92,o),
(1148,52,o),
(982,52,cs),
(602,52,o),
(364,296,o),
(364,698,cs),
(364,1148,o),
(616,1416,o),
(1028,1416,cs),
(1408,1416,o),
(1594,1242,o),
(1594,860,cs),
(1594,656,o),
(1536,516,o),
(1460,516,cs),
(1412,516,o),
(1392,546,o),
(1392,618,cs),
(1392,652,o),
(1398,702,o),
(1408,762,cs),
(1482,1194,l),
(1178,1194,l),
(1144,1002,l),
(1200,1002,l),
(1158,1154,o),
(1078,1218,o),
(942,1218,cs),
(694,1218,o),
(520,998,o),
(520,698,cs),
(520,444,o),
(650,284,o),
(878,284,cs),
(1046,284,o),
(1170,394,o),
(1234,628,c),
(1124,544,l),
(1160,372,o),
(1268,284,o),
(1434,284,cs),
(1684,284,o),
(1846,508,o),
(1846,862,cs),
(1846,1354,o),
(1530,1660,o),
(1028,1660,cs),
(458,1660,o),
(86,1286,o),
(86,698,cs),
(86,174,o),
(454,-188,o),
(980,-188,cs)
);
},
{
closed = 1;
nodes = (
(880,532,o),
(848,592,o),
(848,702,cs),
(848,866,o),
(908,962,o),
(1010,962,cs),
(1082,962,o),
(1110,914,o),
(1110,818,cs),
(1110,640,o),
(1052,532,o),
(952,532,cs)
);
}
);
width = 1932;
},
{
layerId = "FC5D3D8C-AB50-41A9-8405-C9FF1CAE1726";
shapes = (
{
closed = 1;
nodes = (
(1206,-183,o),
(1408,-110,o),
(1535,18,c),
(1458,145,l),
(1340,29,o),
(1172,-34,o),
(971,-34,cs),
(543,-34,o),
(277,248,o),
(277,720,cs),
(277,1201,o),
(561,1505,o),
(1002,1505,cs),
(1398,1505,o),
(1636,1271,o),
(1636,870,cs),
(1636,604,o),
(1543,426,o),
(1409,426,cs),
(1338,426,o),
(1304,466,o),
(1304,555,cs),
(1304,585,o),
(1308,623,o),
(1317,666,c),
(1401,1182,l),
(1225,1182,l),
(1192,986,l),
(1223,986,l),
(1190,1129,o),
(1101,1201,o),
(958,1201,cs),
(710,1201,o),
(530,979,o),
(530,673,cs),
(530,432,o),
(649,285,o),
(861,285,cs),
(1009,285,o),
(1135,378,o),
(1202,561,c),
(1145,549,l),
(1145,383,o),
(1237,285,o),
(1397,285,cs),
(1632,285,o),
(1789,514,o),
(1789,873,cs),
(1789,1349,o),
(1477,1655,o),
(1003,1655,cs),
(471,1655,o),
(112,1283,o),
(112,720,cs),
(112,173,o),
(454,-183,o),
(970,-183,cs)
);
},
{
closed = 1;
nodes = (
(779,435,o),
(718,519,o),
(718,674,cs),
(718,897,o),
(829,1047,o),
(988,1047,cs),
(1108,1047,o),
(1162,978,o),
(1162,833,cs),
(1162,599,o),
(1051,435,o),
(893,435,cs)
);
}
);
width = 1902;
},
{
layerId = "EA701F3C-7533-4E12-969A-F8F539424701";
shapes = (
{
closed = 1;
nodes = (
(1212,-178,o),
(1422,-90,o),
(1552,72,c),
(1502,122,l),
(1392,-26,o),
(1198,-110,o),
(966,-110,cs),
(496,-110,o),
(206,206,o),
(206,740,cs),
(206,1248,o),
(518,1584,o),
(984,1584,cs),
(1394,1584,o),
(1678,1296,o),
(1678,878,cs),
(1678,558,o),
(1554,346,o),
(1370,346,cs),
(1278,346,o),
(1232,396,o),
(1232,500,cs),
(1232,526,o),
(1234,554,o),
(1242,582,c),
(1336,1172,l),
(1272,1172,l),
(1240,972,l),
(1248,972,l),
(1224,1106,o),
(1126,1186,o),
(978,1186,cs),
(730,1186,o),
(544,962,o),
(544,650,cs),
(544,422,o),
(654,286,o),
(852,286,cs),
(982,286,o),
(1110,364,o),
(1180,502,c),
(1170,554,l),
(1138,392,o),
(1216,286,o),
(1370,286,cs),
(1592,286,o),
(1744,520,o),
(1744,882,cs),
(1744,1344,o),
(1436,1650,o),
(986,1650,cs),
(488,1650,o),
(140,1280,o),
(140,740,cs),
(140,172,o),
(460,-178,o),
(966,-178,cs)
);
},
{
closed = 1;
nodes = (
(696,350,o),
(608,454,o),
(608,650,cs),
(608,924,o),
(764,1122,o),
(974,1122,cs),
(1136,1122,o),
(1214,1034,o),
(1214,846,cs),
(1214,562,o),
(1056,350,o),
(846,350,cs)
);
}
);
width = 1884;
}
);
leftKerningGroup = O;
rightKerningGroup = O;
unicode = 64;
}
{
color = 11;
glyphname = A;
layers = (
{
anchors = (
{
name = bottom;
position = "{744, 0}";
},
{
name = ogonek;
position = "{1372, 0}";
},
{
name = top;
position = "{744, 1472}";
}
);
layerId = "B0FE6CA3-3B5A-43B9-ADCC-06CF5CDDB79F";
shapes = (
{
closed = 1;
nodes = (
(342,0,l),
(494,402,l),
(354,300,l),
(1130,300,l),
(990,402,l),
(1142,0,l),
(1520,0,l),
(894,1472,l),
(594,1472,l),
(-36,0,l)
);
},
{
closed = 1;
nodes = (
(744,1074,l),
(956,494,l),
(1004,592,l),
(478,592,l),
(528,494,l),
(740,1074,l)
);
}
);
width = 1486;
},
{
anchors = (
{
name = bottom;
position = "{704, 0}";
},
{
name = ogonek;
position = "{1322, 0}";
},
{
name = top;
position = "{704, 1472}";
}
);
layerId = "FE1B4F78-E1AE-46DB-B09E-A4EC5EE567EB";
shapes = (
{
closed = 1;
nodes = (
(232,0,l),
(389,415,l),
(299,363,l),
(1103,363,l),
(1013,415,l),
(1172,0,l),
(1388,0,l),
(791,1472,l),
(615,1472,l),
(18,0,l)
);
},
{
closed = 1;
nodes = (
(704,1236,l),
(989,484,l),
(1030,533,l),
(372,533,l),
(416,484,l),
(700,1236,l)
);
}
);
width = 1406;
},
{
anchors = (
{
name = bottom;
position = "{680, 0}";
},
{
name = ogonek;
position = "{1290, 0}";
},
{
name = top;
position = "{680, 1472}";
}
);
layerId = "958021ED-7CC5-4835-9393-1BA2EA52DC8F";
shapes = (
{
closed = 1;
nodes = (
(146,0,l),
(308,426,l),
(262,418,l),
(1090,418,l),
(1044,426,l),
(1210,0,l),
(1282,0,l),
(712,1472,l),
(644,1472,l),
(76,0,l)
);
},
{
closed = 1;
nodes = (
(680,1378,l),
(1030,476,l),
(1064,480,l),
(290,480,l),
(328,476,l),
(676,1378,l)
);
}
);
width = 1358;
}
);
leftKerningGroup = A;
rightKerningGroup = A;
unicode = 65;
}
{
color = 11;
glyphname = B;
layers = (
{
anchors = (
{
name = bottom;
position = "{698, 0}";
},
{
name = top;
position = "{698, 1472}";
}
);
layerId = "A6805B89-47EA-471F-88E2-6C6BDB91AD06";
shapes = (
{
closed = 1;
nodes = (
(824,0,ls),
(1132,0,o),
(1320,160,o),
(1320,418,cs),
(1320,614,o),
(1216,742,o),
(1022,780,c),
(1016,746,l),
(1182,790,o),
(1278,916,o),
(1278,1092,cs),
(1278,1326,o),
(1104,1472,o),
(800,1472,cs),
(130,1472,l),
(130,0,l)
);
},
{
closed = 1;
nodes = (
(486,608,l),
(774,608,ls),
(910,608,o),
(970,556,o),
(970,442,cs),
(970,330,o),
(908,274,o),
(772,274,cs),
(486,274,l)
);
},
{
closed = 1;
nodes = (
(486,1198,l),
(732,1198,ls),
(866,1198,o),
(926,1150,o),
(926,1044,cs),
(926,936,o),
(864,884,o),
(732,884,cs),
(486,884,l)
);
}
);
width = 1404;
},
{
anchors = (
{
name = bottom;
position = "{680, 0}";
},
{
name = top;
position = "{679, 1472}";
}
);
layerId = "74EDEEDC-441F-4395-93E2-DA3D8F4EBC35";
shapes = (
{
closed = 1;
nodes = (
(767,0,ls),
(1066,0,o),
(1242,147,o),
(1242,406,cs),
(1242,612,o),
(1126,742,o),
(928,770,c),
(923,739,l),
(1097,780,o),
(1202,906,o),
(1202,1090,cs),
(1202,1331,o),
(1034,1472,o),
(740,1472,cs),
(162,1472,l),
(162,0,l)
);
},
{
closed = 1;
nodes = (
(365,663,l),
(746,663,ls),
(944,663,o),
(1038,585,o),
(1038,414,cs),
(1038,245,o),
(942,165,o),
(744,165,cs),
(365,165,l)
);
},
{
closed = 1;
nodes = (
(365,1307,l),
(707,1307,ls),
(901,1307,o),
(999,1228,o),
(999,1070,cs),
(999,913,o),
(899,828,o),
(708,828,cs),
(365,828,l)
);
}
);
width = 1355;
},
{
anchors = (
{
name = bottom;
position = "{672, 0}";
},
{
name = top;
position = "{670, 1472}";
}
);
layerId = "5CA5D978-5DFF-4019-A5DD-99A0755926E0";
shapes = (
{
closed = 1;
nodes = (
(724,0,ls),
(1016,0,o),
(1180,136,o),
(1180,396,cs),
(1180,610,o),
(1054,742,o),
(852,762,c),
(848,732,l),
(1030,772,o),
(1142,898,o),
(1142,1088,cs),
(1142,1336,o),
(980,1472,o),
(694,1472,cs),
(198,1472,l),
(198,0,l)
);
},
{
closed = 1;
nodes = (
(266,712,l),
(728,712,ls),
(982,712,o),
(1106,610,o),
(1106,390,cs),
(1106,170,o),
(980,68,o),
(726,68,cs),
(266,68,l)
);
},
{
closed = 1;
nodes = (
(266,1404,l),
(692,1404,ls),
(940,1404,o),
(1070,1296,o),
(1070,1092,cs),
(1070,892,o),
(938,778,o),
(694,778,cs),
(266,778,l)
);
}
);
width = 1326;
}
);
leftKerningGroup = H;
rightKerningGroup = B;
unicode = 66;
}
{
color = 11;
glyphname = C;
layers = (
{
anchors = (
{
name = bottom;
position = "{796, 0}";
},
{
name = top;
position = "{794, 1472}";
}
);
layerId = "A06B8506-BBE1-4A28-92E2-491406422708";
shapes = (
{
closed = 1;
nodes = (
(946,1186,o),
(1058,1132,o),
(1176,1046,c),
(1284,1336,l),
(1178,1432,o),
(992,1496,o),
(808,1496,cs),
(387,1496,o),
(94,1251,o),
(94,808,cs),
(94,668,ls),
(94,223,o),
(385,-24,o),
(808,-24,cs),
(992,-24,o),
(1178,40,o),
(1284,136,c),
(1176,426,l),
(1058,340,o),
(946,286,o),
(808,286,cs),
(606,286,o),
(480,395,o),
(480,668,cs),
(480,807,ls),
(480,1080,o),
(605,1186,o),
(808,1186,cs)
);
}
);
width = 1352;
},
{
anchors = (
{
name = bottom;
position = "{772, 0}";
},
{
name = top;
position = "{774, 1472}";
}
);
layerId = "2D3E1F4A-4F79-435C-922D-C1502E296E5C";
shapes = (
{
closed = 1;
nodes = (
(934,1332,o),
(1056,1278,o),
(1179,1166,c),
(1243,1310,l),
(1132,1427,o),
(962,1491,o),
(769,1491,cs),
(378,1491,o),
(122,1250,o),
(122,802,cs),
(122,674,ls),
(122,223,o),
(379,-19,o),
(769,-19,cs),
(962,-19,o),
(1132,45,o),
(1243,162,c),
(1179,307,l),
(1056,195,o),
(932,140,o),
(769,140,cs),
(484,140,o),
(313,312,o),
(313,674,cs),
(313,802,ls),
(313,1162,o),
(484,1332,o),
(769,1332,cs)
);
}
);
width = 1332;
},
{
anchors = (
{
name = bottom;
position = "{758, 0}";
},
{
name = top;
position = "{762, 1472}";
}
);
layerId = "F480A0F6-CE20-4515-90A8-C409EEC2FB0B";
shapes = (
{
closed = 1;
nodes = (
(926,1420,o),
(1054,1366,o),
(1180,1238,c),
(1218,1294,l),
(1104,1424,o),
(944,1488,o),
(746,1488,cs),
(372,1488,o),
(138,1250,o),
(138,799,cs),
(138,677,ls),
(138,223,o),
(376,-16,o),
(746,-16,cs),
(944,-16,o),
(1104,48,o),
(1218,178,c),
(1180,236,l),
(1054,108,o),
(924,52,o),
(746,52,cs),
(411,52,o),
(212,262,o),
(212,677,cs),
(212,799,ls),
(212,1211,o),
(411,1420,o),
(746,1420,cs)
);
}
);
width = 1320;
}
);
leftKerningGroup = O;
rightKerningGroup = C;
unicode = 67;
}
{
color = 11;
glyphname = D;
layers = (
{
anchors = (
{
name = bottom;
position = "{746, 0}";
},
{
name = center;
position = "{404, 748}";
},
{
name = top;
position = "{746, 1472}";
}
);
layerId = "A06B8506-BBE1-4A28-92E2-491406422708";
shapes = (
{
closed = 1;
nodes = (
(692,0,ls),
(1151,0,o),
(1418,218,o),
(1421,668,cs),
(1422,807,ls),
(1425,1255,o),
(1151,1472,o),
(692,1472,cs),
(118,1472,l),
(118,0,l)
);
},
{
closed = 1;
nodes = (
(498,1160,l),
(668,1160,ls),
(908,1160,o),
(1032,1084,o),
(1030,807,cs),
(1029,668,ls),
(1027,389,o),
(910,312,o),
(668,312,cs),
(498,312,l)
);
}
);
width = 1510;
},
{
anchors = (
{
name = bottom;
position = "{707, 0}";
},
{
name = center;
position = "{357, 748}";
},
{
name = top;
position = "{707, 1472}";
}
);
layerId = "2D3E1F4A-4F79-435C-922D-C1502E296E5C";
shapes = (
{
closed = 1;
nodes = (
(633,0,ls),
(1063,0,o),
(1313,213,o),
(1316,669,cs),
(1317,802,ls),
(1320,1256,o),
(1063,1472,o),
(633,1472,cs),
(149,1472,l),
(149,0,l)
);
},
{
closed = 1;
nodes = (
(361,1292,l),
(617,1292,ls),
(934,1292,o),
(1099,1158,o),
(1096,802,cs),
(1095,669,ls),
(1092,311,o),
(935,180,o),
(617,180,cs),
(361,180,l)
);
}
);
width = 1424;
},
{
anchors = (
{
name = bottom;
position = "{686, 0}";
},
{
name = center;
position = "{328, 748}";
},
{
name = top;
position = "{686, 1472}";
}
);
layerId = "F480A0F6-CE20-4515-90A8-C409EEC2FB0B";
shapes = (
{
closed = 1;
nodes = (
(594,0,ls),
(1000,0,o),
(1238,240,o),
(1238,702,cs),
(1238,774,ls),
(1238,1234,o),
(1000,1472,o),
(594,1472,cs),
(190,1472,l),
(190,0,l)
);
},
{
closed = 1;
nodes = (
(254,1408,l),
(586,1408,ls),
(970,1408,o),
(1168,1200,o),
(1168,774,cs),
(1168,702,ls),
(1168,274,o),
(970,64,o),
(586,64,cs),
(254,64,l)
);
}
);
width = 1372;
}
);
leftKerningGroup = H;
rightKerningGroup = O;
unicode = 68;
}
{
color = 11;
glyphname = E;
layers = (
{
anchors = (
{
name = bottom;
position = "{682, 0}";
},
{
name = ogonek;
position = "{1036, 0}";
},
{
name = top;
position = "{682, 1472}";
},
{
name = topleft;
position = "{40, 1472}";
}
);
layerId = "A6805B89-47EA-471F-88E2-6C6BDB91AD06";
shapes = (
{
closed = 1;
nodes = (
(1154,0,l),
(1154,288,l),
(486,288,l),
(486,604,l),
(1106,604,l),
(1106,890,l),
(486,890,l),
(486,1184,l),
(1154,1184,l),
(1154,1472,l),
(130,1472,l),
(130,0,l)
);
}
);
width = 1260;
},
{
anchors = (
{
name = bottom;
position = "{662, 0}";
},
{
name = ogonek;
position = "{1017, 0}";
},
{
name = top;
position = "{662, 1472}";
},
{
name = topleft;
position = "{45, 1472}";
}
);
layerId = "74EDEEDC-441F-4395-93E2-DA3D8F4EBC35";
shapes = (
{
closed = 1;
nodes = (
(1101,0,l),
(1101,170,l),
(364,170,l),
(364,662,l),
(1055,662,l),
(1055,832,l),
(364,832,l),
(364,1302,l),
(1101,1302,l),
(1101,1472,l),
(161,1472,l),
(161,0,l)
);
}
);
width = 1201;
},
{
anchors = (
{
name = bottom;
position = "{654, 0}";
},
{
name = ogonek;
position = "{1010, 0}";
},
{
name = top;
position = "{654, 1472}";
},
{
name = topleft;
position = "{58, 1472}";
}
);
layerId = "5CA5D978-5DFF-4019-A5DD-99A0755926E0";
shapes = (
{
closed = 1;
nodes = (
(1064,0,l),
(1064,66,l),
(266,66,l),
(266,714,l),
(1020,714,l),
(1020,780,l),
(266,780,l),
(266,1406,l),
(1064,1406,l),
(1064,1472,l),
(198,1472,l),
(198,0,l)
);
}
);
width = 1166;
}
);
leftKerningGroup = H;
rightKerningGroup = E;
unicode = 69;
}
{
color = 11;
glyphname = F;
layers = (
{
anchors = (
{
name = bottom;
position = "{622, 0}";
},
{
name = top;
position = "{634, 1472}";
}
);
layerId = "A06B8506-BBE1-4A28-92E2-491406422708";
shapes = (
{
closed = 1;
nodes = (
(498,0,l),
(498,590,l),
(1098,590,l),
(1098,876,l),
(498,876,l),
(498,1184,l),
(1142,1184,l),
(1142,1472,l),
(130,1472,l),
(130,0,l)
);
}
);
width = 1190;
},
{
anchors = (
{
name = bottom;
position = "{616, 0}";
},
{
name = top;
position = "{620, 1472}";
}
);
layerId = "2D3E1F4A-4F79-435C-922D-C1502E296E5C";
shapes = (
{
closed = 1;
nodes = (
(370,0,l),
(370,656,l),
(1044,656,l),
(1044,825,l),
(370,825,l),
(370,1302,l),
(1085,1302,l),
(1085,1472,l),
(162,1472,l),
(162,0,l)
);
}
);
width = 1134;
},
{
anchors = (
{
name = bottom;
position = "{618, 0}";
},
{
name = top;
position = "{616, 1472}";
}
);
layerId = "F480A0F6-CE20-4515-90A8-C409EEC2FB0B";
shapes = (
{
closed = 1;
nodes = (
(264,0,l),
(264,714,l),
(1004,714,l),
(1004,780,l),
(264,780,l),
(264,1406,l),
(1042,1406,l),
(1042,1472,l),
(198,1472,l),
(198,0,l)
);
}
);
width = 1100;
}
);
leftKerningGroup = H;
rightKerningGroup = F;
unicode = 70;
}
{
color = 11;
glyphname = G;
layers = (
{
anchors = (
{
name = bottom;
position = "{808, 0}";
},
{
name = top;
position = "{808, 1472}";
}
);
layerId = "A6805B89-47EA-471F-88E2-6C6BDB91AD06";
shapes = (
{
closed = 1;
nodes = (
(892,-24,o),
(987,10,o),
(1056,65,cs),
(1111,109,o),
(1182,201,o),
(1229,289,cs),
(1376,562,l),
(1020,562,l),
(1020,366,o),
(958,286,o),
(808,286,cs),
(600,286,o),
(480,450,o),
(480,738,cs),
(480,1026,o),
(600,1186,o),
(808,1186,cs),
(946,1186,o),
(1058,1132,o),
(1176,1046,c),
(1284,1336,l),
(1178,1432,o),
(992,1496,o),
(808,1496,cs),
(378,1496,o),
(94,1198,o),
(94,738,cs),
(94,276,o),
(376,-24,o),
(808,-24,cs)
);
},
{
closed = 1;
nodes = (
(748,828,l),
(748,562,l),
(1376,562,l),
(1376,828,l)
);
},
{
closed = 1;
nodes = (
(1166,0,l),
(1376,0,l),
(1376,562,l),
(1106,562,l),
(1106,422,l)
);
}
);
width = 1528;
},
{
anchors = (
{
name = bottom;
position = "{772, 0}";
},
{
name = top;
position = "{772, 1472}";
}
);
layerId = "74EDEEDC-441F-4395-93E2-DA3D8F4EBC35";
shapes = (
{
closed = 1;
nodes = (
(864,-20,o),
(960,9,o),
(1038,60,cs),
(1113,107,o),
(1201,227,o),
(1231,321,cs),
(1327,619,l),
(1122,619,l),
(1122,308,o),
(1010,162,o),
(772,162,cs),
(492,162,o),
(335,370,o),
(335,738,cs),
(335,1104,o),
(492,1310,o),
(772,1310,cs),
(932,1310,o),
(1053,1256,o),
(1175,1148,c),
(1246,1314,l),
(1136,1428,o),
(964,1492,o),
(772,1492,cs),
(368,1492,o),
(114,1203,o),
(114,738,cs),
(114,271,o),
(369,-20,o),
(772,-20,cs)
);
},
{
closed = 1;
nodes = (
(723,779,l),
(723,619,l),
(1327,619,l),
(1327,779,l)
);
},
{
closed = 1;
nodes = (
(1191,0,l),
(1327,0,l),
(1327,619,l),
(1163,619,l),
(1163,377,l)
);
}
);
width = 1491;
},
{
anchors = (
{
name = bottom;
position = "{746, 0}";
},
{
name = top;
position = "{746, 1472}";
}
);
layerId = "5CA5D978-5DFF-4019-A5DD-99A0755926E0";
shapes = (
{
closed = 1;
nodes = (
(844,-16,o),
(942,8,o),
(1028,55,cs),
(1120,105,o),
(1223,250,o),
(1239,349,cs),
(1290,670,l),
(1218,670,l),
(1218,256,o),
(1062,52,o),
(746,52,cs),
(402,52,o),
(212,300,o),
(212,738,cs),
(212,1172,o),
(402,1420,o),
(746,1420,cs),
(926,1420,o),
(1054,1366,o),
(1180,1238,c),
(1218,1294,l),
(1104,1424,o),
(944,1488,o),
(746,1488,cs),
(364,1488,o),
(138,1208,o),
(138,738,cs),
(138,266,o),
(368,-16,o),
(746,-16,cs)
);
},
{
closed = 1;
nodes = (
(706,736,l),
(706,670,l),
(1290,670,l),
(1290,736,l)
);
},
{
closed = 1;
nodes = (
(1218,0,l),
(1290,0,l),
(1290,670,l),
(1218,670,l),
(1218,338,l)
);
}
);
width = 1468;
}
);
leftKerningGroup = O;
rightKerningGroup = O;
unicode = 71;
}
{
color = 11;
glyphname = H;
layers = (
{
anchors = (
{
name = bottom;
position = "{782, 0}";
},
{
name = center;
position = "{782, 1186}";
},
{
name = top;
position = "{784, 1472}";
},
{
name = topleft;
position = "{40, 1472}";
}
);
layerId = "A6805B89-47EA-471F-88E2-6C6BDB91AD06";
shapes = (
{
closed = 1;
nodes = (
(498,0,l),
(498,592,l),
(1070,592,l),
(1070,0,l),
(1440,0,l),
(1440,1472,l),
(1070,1472,l),
(1070,900,l),
(498,900,l),
(498,1472,l),
(130,1472,l),
(130,0,l)
);
}
);
width = 1570;
},
{
anchors = (
{
name = bottom;
position = "{761, 0}";
},
{
name = center;
position = "{761, 1161}";
},
{
name = top;
position = "{761, 1472}";
},
{
name = topleft;
position = "{46, 1472}";
}
);
layerId = "74EDEEDC-441F-4395-93E2-DA3D8F4EBC35";
shapes = (
{
closed = 1;
nodes = (
(370,0,l),
(370,657,l),
(1151,657,l),
(1151,0,l),
(1361,0,l),
(1361,1472,l),
(1151,1472,l),
(1151,836,l),
(370,836,l),
(370,1472,l),
(162,1472,l),
(162,0,l)
);
}
);
width = 1523;
},
{
anchors = (
{
name = bottom;
position = "{750, 0}";
},
{
name = center;
position = "{750, 1138}";
},
{
name = top;
position = "{748, 1472}";
},
{
name = topleft;
position = "{58, 1472}";
}
);
layerId = "5CA5D978-5DFF-4019-A5DD-99A0755926E0";
shapes = (
{
closed = 1;
nodes = (
(264,0,l),
(264,714,l),
(1230,714,l),
(1230,0,l),
(1298,0,l),
(1298,1472,l),
(1230,1472,l),
(1230,780,l),
(264,780,l),
(264,1472,l),
(198,1472,l),
(198,0,l)
);
}
);
width = 1494;
}
);
leftKerningGroup = H;
rightKerningGroup = H;
unicode = 72;
}
{
color = 11;
glyphname = I;
layers = (
{
anchors = (
{
name = bottom;
position = "{314, 0}";
},
{
name = ogonek;
position = "{408, 0}";
},
{
name = top;
position = "{314, 1472}";
},
{
name = topleft;
position = "{40, 1472}";
}
);
layerId = "B0FE6CA3-3B5A-43B9-ADCC-06CF5CDDB79F";
shapes = (
{
closed = 1;
nodes = (
(498,0,l),
(498,1472,l),
(130,1472,l),
(130,0,l)
);
}
);
width = 628;
},
{
anchors = (
{
name = bottom;
position = "{261, 0}";
},
{
name = ogonek;
position = "{327, 0}";
},
{
name = top;
position = "{261, 1472}";
},
{
name = topleft;
position = "{42, 1472}";
}
);
layerId = "FE1B4F78-E1AE-46DB-B09E-A4EC5EE567EB";
shapes = (
{
closed = 1;
nodes = (
(366,0,l),
(366,1472,l),
(158,1472,l),
(158,0,l)
);
}
);
width = 524;
},
{
anchors = (
{
name = bottom;
position = "{230, 0}";
},
{
name = ogonek;
position = "{270, 0}";
},
{
name = top;
position = "{230, 1472}";
},
{
name = topleft;
position = "{58, 1472}";
}
);
layerId = "958021ED-7CC5-4835-9393-1BA2EA52DC8F";
shapes = (
{
closed = 1;
nodes = (
(264,0,l),
(264,1472,l),
(198,1472,l),
(198,0,l)
);
}
);
width = 462;
}
);
leftKerningGroup = H;
rightKerningGroup = H;
unicode = 73;
}
{
color = 11;
glyphname = J;
layers = (
{
anchors = (
{
name = bottom;
position = "{584, 0}";
},
{
name = top;
position = "{932, 1472}";
}
);
layerId = "A6805B89-47EA-471F-88E2-6C6BDB91AD06";
shapes = (
{
closed = 1;
nodes = (
(940,-24,o),
(1122,150,o),
(1122,500,cs),
(1122,1472,l),
(756,1472,l),
(756,500,ls),
(756,356,o),
(698,286,o),
(584,286,cs),
(472,286,o),
(412,356,o),
(412,500,c),
(46,500,l),
(44,148,o),
(230,-24,o),
(588,-24,cs)
);
}
);
width = 1252;
},
{
anchors = (
{
name = bottom;
position = "{510, 0}";
},
{
name = top;
position = "{867, 1472}";
}
);
layerId = "74EDEEDC-441F-4395-93E2-DA3D8F4EBC35";
shapes = (
{
closed = 1;
nodes = (
(817,-20,o),
(975,140,o),
(975,451,cs),
(975,1472,l),
(766,1472,l),
(766,451,ls),
(766,255,o),
(682,161,o),
(510,161,cs),
(340,161,o),
(254,255,o),
(254,451,c),
(48,451,l),
(47,140,o),
(206,-20,o),
(513,-20,cs)
);
}
);
width = 1130;
},
{
anchors = (
{
name = bottom;
position = "{462, 0}";
},
{
name = top;
position = "{826, 1472}";
}
);
layerId = "5CA5D978-5DFF-4019-A5DD-99A0755926E0";
shapes = (
{
closed = 1;
nodes = (
(726,-16,o),
(862,132,o),
(862,408,cs),
(862,1472,l),
(792,1472,l),
(792,408,ls),
(792,166,o),
(684,50,o),
(462,50,cs),
(240,50,o),
(132,166,o),
(132,408,c),
(66,408,l),
(66,132,o),
(202,-16,o),
(464,-16,cs)
);
}
);
width = 1056;
}
);
leftKerningGroup = J;
rightKerningGroup = J;
unicode = 74;
}
{
color = 11;
glyphname = K;
layers = (
{
anchors = (
{
name = bottom;
position = "{686, 0}";
},
{
name = top;
position = "{686, 1472}";
},
{
name = topleft;
position = "{40, 1472}";
}
);
layerId = "7B66E43B-35BC-4CDD-B71B-7D56A9572330";
shapes = (
{
closed = 1;
nodes = (
(1450,1472,l),
(1010,1472,l),
(502,868,l),
(502,1472,l),
(130,1472,l),
(130,0,l),
(498,0,l),
(498,340,l)
);
},
{
closed = 1;
nodes = (
(598,580,l),
(1052,0,l),
(1476,0,l),
(822,840,l)
);
}
);
width = 1396;
},
{
anchors = (
{
name = bottom;
position = "{628, 0}";
},
{
name = top;
position = "{627, 1472}";
},
{
name = topleft;
position = "{39, 1472}";
}
);
layerId = "FC5D3D8C-AB50-41A9-8405-C9FF1CAE1726";
shapes = (
{
closed = 1;
nodes = (
(1261,1472,l),
(1006,1472,l),
(365,725,l),
(365,1472,l),
(155,1472,l),
(155,0,l),
(363,0,l),
(363,422,l)
);
},
{
closed = 1;
nodes = (
(511,667,l),
(1055,0,l),
(1300,0,l),
(640,816,l)
);
}
);
width = 1252;
},
{
anchors = (
{
name = bottom;
position = "{598, 0}";
},
{
name = top;
position = "{596, 1472}";
},
{
name = topleft;
position = "{58, 1472}";
}
);
layerId = "EA701F3C-7533-4E12-969A-F8F539424701";
shapes = (
{
closed = 1;
nodes = (
(1114,1472,l),
(1024,1472,l),
(264,598,l),
(264,1472,l),
(198,1472,l),
(198,0,l),
(264,0,l),
(264,494,l)
);
},
{
closed = 1;
nodes = (
(454,744,l),
(1078,0,l),
(1166,0,l),
(500,794,l)
);
}
);
width = 1166;
}
);
leftKerningGroup = H;
rightKerningGroup = K;
unicode = 75;
}
{
color = 11;
glyphname = L;
layers = (
{
anchors = (
{
name = bottom;
position = "{644, 0}";
},
{
name = center;
position = "{408, 808}";
},
{
name = dot;
position = "{900, 832}";
},
{
name = top;
position = "{314, 1472}";
},
{
name = topright;
position = "{708, 1472}";
}
);
layerId = "A6805B89-47EA-471F-88E2-6C6BDB91AD06";
shapes = (
{
closed = 1;
nodes = (
(1152,0,l),
(1152,310,l),
(498,310,l),
(498,1472,l),
(130,1472,l),
(130,0,l)
);
}
);
width = 1204;
},
{
anchors = (
{
name = bottom;
position = "{619, 0}";
},
{
name = center;
position = "{354, 808}";
},
{
name = dot;
position = "{820, 817}";
},
{
name = top;
position = "{263, 1472}";
},
{
name = topright;
position = "{596, 1472}";
}
);
layerId = "74EDEEDC-441F-4395-93E2-DA3D8F4EBC35";
shapes = (
{
closed = 1;
nodes = (
(1093,0,l),
(1093,180,l),
(368,180,l),
(368,1472,l),
(160,1472,l),
(160,0,l)
);
}
);
width = 1127;
},
{
anchors = (
{
name = bottom;
position = "{608, 0}";
},
{
name = center;
position = "{318, 808}";
},
{
name = dot;
position = "{760, 804}";
},
{
name = top;
position = "{230, 1472}";
},
{
name = topright;
position = "{508, 1472}";
}
);
layerId = "5CA5D978-5DFF-4019-A5DD-99A0755926E0";
shapes = (
{
closed = 1;
nodes = (
(1052,0,l),
(1052,66,l),
(264,66,l),
(264,1472,l),
(198,1472,l),
(198,0,l)
);
}
);
width = 1080;
}
);
leftKerningGroup = H;
rightKerningGroup = L;
unicode = 76;
}
{
color = 11;
glyphname = M;
layers = (
{
anchors = (
{
name = bottom;
position = "{884, 0}";
},
{
name = top;
position = "{884, 1472}";
}
);
layerId = "A6805B89-47EA-471F-88E2-6C6BDB91AD06";
shapes = (
{
closed = 1;
nodes = (
(470,0,l),
(470,892,l),
(424,892,l),
(782,222,l),
(982,222,l),
(1338,890,l),
(1298,890,l),
(1298,0,l),
(1636,0,l),
(1636,1472,l),
(1328,1472,l),
(854,558,l),
(924,558,l),
(446,1472,l),
(134,1472,l),
(134,0,l)
);
}
);
width = 1768;
},
{
anchors = (
{
name = bottom;
position = "{858, 0}";
},
{
name = top;
position = "{858, 1472}";
}
);
layerId = "74EDEEDC-441F-4395-93E2-DA3D8F4EBC35";
shapes = (
{
closed = 1;
nodes = (
(357,0,l),
(357,1171,l),
(310,1171,l),
(794,226,l),
(920,226,l),
(1400,1169,l),
(1357,1169,l),
(1357,0,l),
(1549,0,l),
(1549,1472,l),
(1373,1472,l),
(830,395,l),
(891,395,l),
(343,1472,l),
(166,1472,l),
(166,0,l)
);
}
);
width = 1713;
},
{
anchors = (
{
name = bottom;
position = "{842, 0}";
},
{
name = top;
position = "{842, 1472}";
}
);
layerId = "5CA5D978-5DFF-4019-A5DD-99A0755926E0";
shapes = (
{
closed = 1;
nodes = (
(264,0,l),
(264,1418,l),
(216,1418,l),
(812,230,l),
(872,230,l),
(1462,1416,l),
(1416,1416,l),
(1416,0,l),
(1480,0,l),
(1480,1472,l),
(1420,1472,l),
(816,252,l),
(870,252,l),
(260,1472,l),
(202,1472,l),
(202,0,l)
);
}
);
width = 1680;
}
);
leftKerningGroup = H;
rightKerningGroup = H;
unicode = 77;
}
{
color = 11;
glyphname = N;
layers = (
{
anchors = (
{
name = bottom;
position = "{756, 0}";
},
{
name = top;
position = "{756, 1472}";
}
);
layerId = "7B66E43B-35BC-4CDD-B71B-7D56A9572330";
shapes = (
{
closed = 1;
nodes = (
(474,0,l),
(474,938,l),
(412,938,l),
(1110,0,l),
(1384,0,l),
(1384,1472,l),
(1038,1472,l),
(1038,534,l),
(1102,534,l),
(400,1472,l),
(130,1472,l),
(130,0,l)
);
}
);
width = 1514;
},
{
anchors = (
{
name = bottom;
position = "{739, 0}";
},
{
name = top;
position = "{739, 1472}";
}
);
layerId = "FC5D3D8C-AB50-41A9-8405-C9FF1CAE1726";
shapes = (
{
closed = 1;
nodes = (
(357,0,l),
(357,1192,l),
(305,1192,l),
(1157,0,l),
(1316,0,l),
(1316,1472,l),
(1120,1472,l),
(1120,280,l),
(1173,280,l),
(322,1472,l),
(163,1472,l),
(163,0,l)
);
}
);
width = 1479;
},
{
anchors = (
{
name = bottom;
position = "{730, 0}";
},
{
name = top;
position = "{730, 1472}";
}
);
layerId = "EA701F3C-7533-4E12-969A-F8F539424701";
shapes = (
{
closed = 1;
nodes = (
(260,0,l),
(260,1416,l),
(216,1416,l),
(1204,0,l),
(1262,0,l),
(1262,1472,l),
(1198,1472,l),
(1198,56,l),
(1242,56,l),
(258,1472,l),
(198,1472,l),
(198,0,l)
);
}
);
width = 1458;
}
);
leftKerningGroup = H;
rightKerningGroup = H;
unicode = 78;
}
{
color = 11;
glyphname = O;
layers = (
{
anchors = (
{
name = Qtail;
position = "{806, -24}";
},
{
name = bottom;
position = "{806, 0}";
},
{
name = center;
position = "{804, 738}";
},
{
name = ogonek;
position = "{930, 0}";
},
{
name = top;
position = "{806, 1472}";
},
{
name = topleft;
position = "{54, 1472}";
},
{
name = topright;
position = "{936, 1472}";
}
);
layerId = "A6805B89-47EA-471F-88E2-6C6BDB91AD06";
shapes = (
{
closed = 1;
nodes = (
(1238,-24,o),
(1520,274,o),
(1520,738,cs),
(1520,1200,o),
(1238,1496,o),
(808,1496,cs),
(378,1496,o),
(94,1198,o),
(94,738,cs),
(94,276,o),
(376,-24,o),
(808,-24,cs)
);
},
{
closed = 1;
nodes = (
(600,286,o),
(480,450,o),
(480,738,cs),
(480,1026,o),
(600,1186,o),
(808,1186,cs),
(1016,1186,o),
(1136,1022,o),
(1136,738,cs),
(1136,452,o),
(1016,286,o),
(808,286,cs)
);
}
);
width = 1614;
},
{
anchors = (
{
name = Qtail;
position = "{768, -20}";
},
{
name = bottom;
position = "{768, 0}";
},
{
name = center;
position = "{769, 738}";
},
{
name = ogonek;
position = "{884, 0}";
},
{
name = top;
position = "{768, 1472}";
},
{
name = topleft;
position = "{48, 1472}";
},
{
name = topright;
position = "{907, 1472}";
}
);
layerId = "74EDEEDC-441F-4395-93E2-DA3D8F4EBC35";
shapes = (
{
closed = 1;
nodes = (
(1173,-20,o),
(1427,270,o),
(1427,739,cs),
(1427,1204,o),
(1174,1492,o),
(769,1492,cs),
(365,1492,o),
(111,1203,o),
(111,738,cs),
(111,271,o),
(366,-20,o),
(769,-20,cs)
);
},
{
closed = 1;
nodes = (
(489,162,o),
(332,370,o),
(332,738,cs),
(332,1104,o),
(489,1310,o),
(769,1310,cs),
(1050,1310,o),
(1208,1103,o),
(1208,738,cs),
(1208,371,o),
(1049,162,o),
(769,162,cs)
);
}
);
width = 1538;
},
{
anchors = (
{
name = Qtail;
position = "{746, -16}";
},
{
name = bottom;
position = "{746, 0}";
},
{
name = center;
position = "{750, 738}";
},
{
name = ogonek;
position = "{854, 0}";
},
{
name = top;
position = "{746, 1472}";
},
{
name = topleft;
position = "{54, 1472}";
},
{
name = topright;
position = "{892, 1472}";
}
);
layerId = "5CA5D978-5DFF-4019-A5DD-99A0755926E0";
shapes = (
{
closed = 1;
nodes = (
(1126,-16,o),
(1356,266,o),
(1356,740,cs),
(1356,1208,o),
(1128,1488,o),
(746,1488,cs),
(364,1488,o),
(138,1208,o),
(138,738,cs),
(138,266,o),
(368,-16,o),
(746,-16,cs)
);
},
{
closed = 1;
nodes = (
(402,52,o),
(212,300,o),
(212,738,cs),
(212,1172,o),
(402,1420,o),
(746,1420,cs),
(1092,1420,o),
(1282,1174,o),
(1282,738,cs),
(1282,300,o),
(1090,52,o),
(746,52,cs)
);
}
);
width = 1492;
}
);
leftKerningGroup = O;
rightKerningGroup = O;
unicode = 79;
}
{
color = 11;
glyphname = P;
layers = (
{
anchors = (
{
name = bottom;
position = "{684, 0}";
},
{
name = top;
position = "{682, 1472}";
}
);
layerId = "A6805B89-47EA-471F-88E2-6C6BDB91AD06";
shapes = (
{
closed = 1;
nodes = (
(498,0,l),
(498,512,l),
(806,512,ls),
(1122,512,o),
(1306,692,o),
(1306,994,cs),
(1306,1292,o),
(1122,1472,o),
(806,1472,cs),
(130,1472,l),
(130,0,l)
);
},
{
closed = 1;
nodes = (
(498,1184,l),
(738,1184,ls),
(874,1184,o),
(952,1122,o),
(952,994,cs),
(952,862,o),
(874,798,o),
(738,798,cs),
(498,798,l)
);
}
);
width = 1352;
},
{
anchors = (
{
name = bottom;
position = "{649, 0}";
},
{
name = top;
position = "{648, 1472}";
}
);
layerId = "74EDEEDC-441F-4395-93E2-DA3D8F4EBC35";
shapes = (
{
closed = 1;
nodes = (
(368,0,l),
(368,574,l),
(739,574,ls),
(1044,574,o),
(1217,739,o),
(1217,1023,cs),
(1217,1307,o),
(1044,1472,o),
(739,1472,cs),
(160,1472,l),
(160,0,l)
);
},
{
closed = 1;
nodes = (
(368,1302,l),
(709,1302,ls),
(907,1302,o),
(1012,1207,o),
(1012,1023,cs),
(1012,839,o),
(907,743,o),
(709,743,cs),
(368,743,l)
);
}
);
width = 1272;
},
{
anchors = (
{
name = bottom;
position = "{630, 0}";
},
{
name = top;
position = "{630, 1472}";
}
);
layerId = "5CA5D978-5DFF-4019-A5DD-99A0755926E0";
shapes = (
{
closed = 1;
nodes = (
(264,0,l),
(264,628,l),
(692,628,ls),
(986,628,o),
(1150,780,o),
(1150,1048,cs),
(1150,1320,o),
(986,1472,o),
(692,1472,cs),
(198,1472,l),
(198,0,l)
);
},
{
closed = 1;
nodes = (
(264,1406,l),
(694,1406,ls),
(948,1406,o),
(1076,1282,o),
(1076,1048,cs),
(1076,818,o),
(948,694,o),
(694,694,cs),
(264,694,l)
);
}
);
width = 1224;
}
);
leftKerningGroup = H;
rightKerningGroup = P;
unicode = 80;
}
{
color = 11;
glyphname = R;
layers = (
{
anchors = (
{
name = bottom;
position = "{714, 0}";
},
{
name = top;
position = "{714, 1472}";
}
);
layerId = "B0FE6CA3-3B5A-43B9-ADCC-06CF5CDDB79F";
shapes = (
{
closed = 1;
nodes = (
(498,1184,l),
(738,1184,ls),
(874,1184,o),
(952,1126,o),
(952,1002,cs),
(952,876,o),
(874,814,o),
(738,814,cs),
(498,814,l)
);
},
{
closed = 1;
nodes = (
(806,552,ls),
(1122,552,o),
(1306,728,o),
(1306,1014,cs),
(1306,1300,o),
(1122,1472,o),
(806,1472,cs),
(130,1472,l),
(130,0,l),
(498,0,l),
(498,552,l)
);
},
{
closed = 1;
nodes = (
(610,704,l),
(990,0,l),
(1400,0,l),
(1020,704,l)
);
}
);
width = 1414;
},
{
anchors = (
{
name = bottom;
position = "{683, 0}";
},
{
name = top;
position = "{683, 1472}";
}
);
layerId = "FE1B4F78-E1AE-46DB-B09E-A4EC5EE567EB";
shapes = (
{
closed = 1;
nodes = (
(368,1302,l),
(705,1302,ls),
(906,1302,o),
(1012,1212,o),
(1012,1037,cs),
(1012,860,o),
(906,766,o),
(705,766,cs),
(368,766,l)
);
},
{
closed = 1;
nodes = (
(739,609,ls),
(1044,609,o),
(1217,768,o),
(1217,1041,cs),
(1217,1315,o),
(1044,1472,o),
(739,1472,cs),
(160,1472,l),
(160,0,l),
(368,0,l),
(368,609,l)
);
},
{
closed = 1;
nodes = (
(688,704,l),
(1068,0,l),
(1299,0,l),
(918,704,l)
);
}
);
width = 1344;
},
{
anchors = (
{
name = bottom;
position = "{666, 0}";
},
{
name = top;
position = "{666, 1472}";
}
);
layerId = "958021ED-7CC5-4835-9393-1BA2EA52DC8F";
shapes = (
{
closed = 1;
nodes = (
(264,1406,l),
(688,1406,ls),
(946,1406,o),
(1076,1288,o),
(1076,1068,cs),
(1076,846,o),
(946,724,o),
(688,724,cs),
(264,724,l)
);
},
{
closed = 1;
nodes = (
(692,660,ls),
(986,660,o),
(1150,804,o),
(1150,1064,cs),
(1150,1328,o),
(986,1472,o),
(692,1472,cs),
(198,1472,l),
(198,0,l),
(264,0,l),
(264,660,l)
);
},
{
closed = 1;
nodes = (
(768,704,l),
(1148,0,l),
(1222,0,l),
(840,704,l)
);
}
);
width = 1302;
}
);
leftKerningGroup = H;
rightKerningGroup = R;
unicode = 82;
}
{
color = 11;
glyphname = S;
layers = (
{
anchors = (
{
name = bottom;
position = "{662, 0}";
},
{
name = top;
position = "{676, 1472}";
}
);
layerId = "B0FE6CA3-3B5A-43B9-ADCC-06CF5CDDB79F";
shapes = (
{
closed = 1;
nodes = (
(1014,-24,o),
(1248,162,o),
(1248,444,cs),
(1248,656,o),
(1124,790,o),
(866,852,cs),
(632,904,ls),
(514,930,o),
(472,976,o),
(472,1038,cs),
(472,1130,o),
(554,1190,o),
(704,1190,cs),
(854,1190,o),
(992,1144,o),
(1092,1066,c),
(1196,1340,l),
(1084,1434,o),
(896,1496,o),
(706,1496,cs),
(350,1496,o),
(110,1304,o),
(110,1016,cs),
(110,798,o),
(234,662,o),
(488,604,cs),
(720,550,ls),
(842,522,o),
(886,482,o),
(886,414,cs),
(886,336,o),
(820,282,o),
(652,282,cs),
(486,282,o),
(310,336,o),
(186,420,c),
(84,132,l),
(216,38,o),
(432,-24,o),
(652,-24,cs)
);
}
);
width = 1304;
},
{
anchors = (
{
name = bottom;
position = "{633, 0}";
},
{
name = top;
position = "{631, 1472}";
}
);
layerId = "FE1B4F78-E1AE-46DB-B09E-A4EC5EE567EB";
shapes = (
{
closed = 1;
nodes = (
(955,-20,o),
(1162,149,o),
(1162,403,cs),
(1162,605,o),
(1038,724,o),
(773,786,cs),
(558,833,ls),
(395,868,o),
(328,940,o),
(328,1059,cs),
(328,1213,o),
(450,1312,o),
(650,1312,cs),
(809,1312,o),
(940,1262,o),
(1054,1160,c),
(1122,1320,l),
(1010,1429,o),
(839,1492,o),
(650,1492,cs),
(334,1492,o),
(120,1314,o),
(120,1049,cs),
(120,837,o),
(243,711,o),
(493,655,cs),
(707,606,ls),
(884,567,o),
(954,503,o),
(954,390,cs),
(954,250,o),
(849,160,o),
(627,160,cs),
(439,160,o),
(290,213,o),
(158,314,c),
(90,147,l),
(220,42,o),
(410,-20,o),
(627,-20,cs)
);
}
);
width = 1234;
},
{
anchors = (
{
name = bottom;
position = "{618, 0}";
},
{
name = top;
position = "{602, 1472}";
}
);
layerId = "958021ED-7CC5-4835-9393-1BA2EA52DC8F";
shapes = (
{
closed = 1;
nodes = (
(914,-16,o),
(1098,138,o),
(1098,366,cs),
(1098,560,o),
(974,666,o),
(702,728,cs),
(504,770,ls),
(302,814,o),
(212,908,o),
(212,1078,cs),
(212,1286,o),
(370,1420,o),
(614,1420,cs),
(780,1420,o),
(906,1366,o),
(1032,1242,c),
(1068,1302,l),
(956,1424,o),
(800,1488,o),
(612,1488,cs),
(332,1488,o),
(140,1322,o),
(140,1078,cs),
(140,872,o),
(262,754,o),
(508,700,cs),
(706,656,ls),
(932,606,o),
(1026,522,o),
(1026,368,cs),
(1026,174,o),
(886,52,o),
(616,52,cs),
(408,52,o),
(284,104,o),
(144,220,c),
(106,160,l),
(234,46,o),
(402,-16,o),
(616,-16,cs)
);
}
);
width = 1192;
}
);
leftKerningGroup = S;
rightKerningGroup = S;
unicode = 83;
}
{
color = 11;
glyphname = T;
layers = (
{
anchors = (
{
name = bottom;
position = "{646, 0}";
},
{
name = center;
position = "{644, 748}";
},
{
name = top;
position = "{644, 1472}";
}
);
layerId = "7B66E43B-35BC-4CDD-B71B-7D56A9572330";
shapes = (
{
closed = 1;
nodes = (
(830,0,l),
(830,1170,l),
(1274,1170,l),
(1274,1472,l),
(14,1472,l),
(14,1170,l),
(460,1170,l),
(460,0,l)
);
}
);
width = 1290;
},
{
anchors = (
{
name = bottom;
position = "{606, 0}";
},
{
name = center;
position = "{605, 748}";
},
{
name = top;
position = "{605, 1472}";
}
);
layerId = "FC5D3D8C-AB50-41A9-8405-C9FF1CAE1726";
shapes = (
{
closed = 1;
nodes = (
(710,0,l),
(710,1295,l),
(1205,1295,l),
(1205,1472,l),
(5,1472,l),
(5,1295,l),
(502,1295,l),
(502,0,l)
);
}
);
width = 1211;
},
{
anchors = (
{
name = bottom;
position = "{582, 0}";
},
{
name = center;
position = "{582, 748}";
},
{
name = top;
position = "{582, 1472}";
}
);
layerId = "EA701F3C-7533-4E12-969A-F8F539424701";
shapes = (
{
closed = 1;
nodes = (
(616,0,l),
(616,1406,l),
(1156,1406,l),
(1156,1472,l),
(8,1472,l),
(8,1406,l),
(550,1406,l),
(550,0,l)
);
}
);
width = 1164;
}
);
leftKerningGroup = T;
rightKerningGroup = T;
unicode = 84;
}
{
color = 11;
glyphname = U;
layers = (
{
anchors = (
{
name = bottom;
position = "{750, 0}";
},
{
name = ogonek;
position = "{866, 0}";
},
{
name = top;
position = "{750, 1472}";
},
{
name = topright;
position = "{1122, 1472}";
}
);
layerId = "7B66E43B-35BC-4CDD-B71B-7D56A9572330";
shapes = (
{
closed = 1;
nodes = (
(1162,-24,o),
(1376,184,o),
(1376,614,cs),
(1376,1472,l),
(1012,1472,l),
(1012,608,ls),
(1012,394,o),
(922,286,o),
(750,286,cs),
(582,286,o),
(490,394,o),
(490,608,cs),
(490,1472,l),
(118,1472,l),
(118,614,ls),
(118,184,o),
(338,-24,o),
(750,-24,cs)
);
}
);
width = 1494;
},
{
anchors = (
{
name = bottom;
position = "{730, 0}";
},
{
name = ogonek;
position = "{844, 0}";
},
{
name = top;
position = "{730, 1472}";
},
{
name = topright;
position = "{1147, 1472}";
}
);
layerId = "FC5D3D8C-AB50-41A9-8405-C9FF1CAE1726";
shapes = (
{
closed = 1;
nodes = (
(1108,-20,o),
(1305,182,o),
(1305,579,cs),
(1305,1472,l),
(1097,1472,l),
(1097,585,ls),
(1097,299,o),
(974,162,o),
(730,162,cs),
(486,162,o),
(363,299,o),
(363,585,cs),
(363,1472,l),
(152,1472,l),
(152,579,ls),
(152,182,o),
(351,-20,o),
(730,-20,cs)
);
}
);
width = 1458;
},
{
anchors = (
{
name = bottom;
position = "{718, 0}";
},
{
name = ogonek;
position = "{830, 0}";
},
{
name = top;
position = "{718, 1472}";
},
{
name = topright;
position = "{1174, 1472}";
}
);
layerId = "EA701F3C-7533-4E12-969A-F8F539424701";
shapes = (
{
closed = 1;
nodes = (
(1066,-16,o),
(1248,180,o),
(1248,548,cs),
(1248,1472,l),
(1178,1472,l),
(1178,564,ls),
(1178,216,o),
(1026,52,o),
(718,52,cs),
(406,52,o),
(256,216,o),
(256,564,cs),
(256,1472,l),
(188,1472,l),
(188,548,ls),
(188,180,o),
(368,-16,o),
(718,-16,cs)
);
}
);
width = 1436;
}
);
leftKerningGroup = U;
rightKerningGroup = U;
unicode = 85;
}
{
color = 11;
glyphname = V;
layers = (
{
anchors = (
{
name = bottom;
position = "{784, 0}";
},
{
name = top;
position = "{782, 1472}";
}
);
layerId = "B0FE6CA3-3B5A-43B9-ADCC-06CF5CDDB79F";
shapes = (
{
closed = 1;
nodes = (
(932,0,l),
(1542,1472,l),
(1144,1472,l),
(722,360,l),
(838,360,l),
(416,1472,l),
(20,1472,l),
(632,0,l)
);
}
);
width = 1562;
},
{
anchors = (
{
name = bottom;
position = "{688, 0}";
},
{
name = top;
position = "{686, 1472}";
}
);
layerId = "FE1B4F78-E1AE-46DB-B09E-A4EC5EE567EB";
shapes = (
{
closed = 1;
nodes = (
(777,0,l),
(1364,1472,l),
(1142,1472,l),
(645,183,l),
(724,183,l),
(228,1472,l),
(6,1472,l),
(597,0,l)
);
}
);
width = 1372;
},
{
anchors = (
{
name = bottom;
position = "{632, 0}";
},
{
name = top;
position = "{630, 1472}";
}
);
layerId = "958021ED-7CC5-4835-9393-1BA2EA52DC8F";
shapes = (
{
closed = 1;
nodes = (
(668,0,l),
(1236,1472,l),
(1168,1472,l),
(606,26,l),
(652,26,l),
(90,1472,l),
(22,1472,l),
(594,0,l)
);
}
);
width = 1258;
}
);
leftKerningGroup = V;
rightKerningGroup = V;
unicode = 86;
}
{
color = 11;
glyphname = W;
layers = (
{
anchors = (
{
name = bottom;
position = "{1040, 0}";
},
{
name = top;
position = "{1040, 1472}";
}
);
layerId = "7B66E43B-35BC-4CDD-B71B-7D56A9572330";
shapes = (
{
closed = 1;
nodes = (
(798,0,l),
(1082,964,l),
(1008,964,l),
(1292,0,l),
(1620,0,l),
(2068,1472,l),
(1690,1472,l),
(1384,402,l),
(1502,402,l),
(1202,1472,l),
(890,1472,l),
(600,402,l),
(704,402,l),
(400,1472,l),
(20,1472,l),
(472,0,l)
);
}
);
width = 2090;
},
{
anchors = (
{
name = bottom;
position = "{984, 0}";
},
{
name = top;
position = "{983, 1472}";
}
);
layerId = "FC5D3D8C-AB50-41A9-8405-C9FF1CAE1726";
shapes = (
{
closed = 1;
nodes = (
(643,0,l),
(1012,1203,l),
(959,1203,l),
(1329,0,l),
(1516,0,l),
(1958,1472,l),
(1746,1472,l),
(1375,205,l),
(1458,205,l),
(1076,1472,l),
(896,1472,l),
(519,205,l),
(595,205,l),
(225,1472,l),
(12,1472,l),
(456,0,l)
);
}
);
width = 1971;
},
{
anchors = (
{
name = bottom;
position = "{952, 0}";
},
{
name = top;
position = "{950, 1472}";
}
);
layerId = "EA701F3C-7533-4E12-969A-F8F539424701";
shapes = (
{
closed = 1;
nodes = (
(524,0,l),
(968,1414,l),
(932,1414,l),
(1378,0,l),
(1442,0,l),
(1878,1472,l),
(1812,1472,l),
(1384,32,l),
(1436,32,l),
(982,1472,l),
(918,1472,l),
(464,32,l),
(516,32,l),
(88,1472,l),
(22,1472,l),
(458,0,l)
);
}
);
width = 1900;
}
);
leftKerningGroup = V;
rightKerningGroup = V;
unicode = 87;
}
{
color = 11;
glyphname = X;
layers = (
{
anchors = (
{
name = bottom;
position = "{702, 0}";
},
{
name = top;
position = "{700, 1472}";
}
);
layerId = "7B66E43B-35BC-4CDD-B71B-7D56A9572330";
shapes = (
{
closed = 1;
nodes = (
(382,0,l),
(758,556,l),
(638,556,l),
(1014,0,l),
(1446,0,l),
(844,828,l),
(844,660,l),
(1438,1472,l),
(1004,1472,l),
(638,928,l),
(758,928,l),
(394,1472,l),
(-40,1472,l),
(550,660,l),
(550,828,l),
(-50,0,l)
);
}
);
width = 1396;
},
{
anchors = (
{
name = bottom;
position = "{656, 0}";
},
{
name = top;
position = "{655, 1472}";
}
);
layerId = "FC5D3D8C-AB50-41A9-8405-C9FF1CAE1726";
shapes = (
{
closed = 1;
nodes = (
(245,0,l),
(692,645,l),
(615,645,l),
(1060,0,l),
(1307,0,l),
(739,792,l),
(739,709,l),
(1288,1472,l),
(1041,1472,l),
(621,859,l),
(688,859,l),
(267,1472,l),
(21,1472,l),
(565,709,l),
(565,792,l),
(-1,0,l)
);
}
);
width = 1307;
},
{
anchors = (
{
name = bottom;
position = "{628, 0}";
},
{
name = top;
position = "{628, 1472}";
}
);
layerId = "EA701F3C-7533-4E12-969A-F8F539424701";
shapes = (
{
closed = 1;
nodes = (
(138,0,l),
(646,724,l),
(608,724,l),
(1114,0,l),
(1198,0,l),
(660,760,l),
(660,752,l),
(1168,1472,l),
(1086,1472,l),
(620,798,l),
(640,798,l),
(168,1472,l),
(88,1472,l),
(592,752,l),
(592,760,l),
(56,0,l)
);
}
);
width = 1254;
}
);
leftKerningGroup = X;
rightKerningGroup = X;
unicode = 88;
}
{
color = 11;
glyphname = Y;
layers = (
{
anchors = (
{
name = bottom;
position = "{648, 0}";
},
{
name = top;
position = "{644, 1472}";
},
{
name = topleft;
position = "{36, 1472}";
}
);
layerId = "B0FE6CA3-3B5A-43B9-ADCC-06CF5CDDB79F";
shapes = (
{
closed = 1;
nodes = (
(832,0,l),
(832,752,l),
(754,548,l),
(1370,1472,l),
(956,1472,l),
(614,934,l),
(686,934,l),
(344,1472,l),
(-80,1472,l),
(534,548,l),
(462,752,l),
(462,0,l)
);
}
);
width = 1290;
},
{
anchors = (
{
name = bottom;
position = "{601, 0}";
},
{
name = top;
position = "{599, 1472}";
},
{
name = topleft;
position = "{30, 1472}";
}
);
layerId = "FE1B4F78-E1AE-46DB-B09E-A4EC5EE567EB";
shapes = (
{
closed = 1;
nodes = (
(705,0,l),
(705,759,l),
(659,626,l),
(1241,1472,l),
(1007,1472,l),
(579,839,l),
(627,839,l),
(199,1472,l),
(-41,1472,l),
(539,626,l),
(496,759,l),
(496,0,l)
);
}
);
width = 1199;
},
{
anchors = (
{
name = bottom;
position = "{572, 0}";
},
{
name = top;
position = "{572, 1472}";
},
{
name = topleft;
position = "{38, 1472}";
}
);
layerId = "958021ED-7CC5-4835-9393-1BA2EA52DC8F";
shapes = (
{
closed = 1;
nodes = (
(606,0,l),
(606,766,l),
(588,694,l),
(1140,1472,l),
(1066,1472,l),
(562,756,l),
(588,756,l),
(84,1472,l),
(6,1472,l),
(556,694,l),
(540,766,l),
(540,0,l)
);
}
);
width = 1144;
}
);
leftKerningGroup = Y;
rightKerningGroup = Y;
unicode = 89;
}
{
color = 11;
glyphname = Z;
layers = (
{
anchors = (
{
name = bottom;
position = "{642, 0}";
},
{
name = top;
position = "{642, 1472}";
}
);
layerId = "B0FE6CA3-3B5A-43B9-ADCC-06CF5CDDB79F";
shapes = (
{
closed = 1;
nodes = (
(1208,0,l),
(1208,304,l),
(440,304,l),
(440,202,l),
(1176,1198,l),
(1176,1472,l),
(92,1472,l),
(92,1168,l),
(828,1168,l),
(828,1270,l),
(92,274,l),
(92,0,l)
);
}
);
width = 1250;
},
{
anchors = (
{
name = bottom;
position = "{615, 0}";
},
{
name = top;
position = "{614, 1472}";
}
);
layerId = "FE1B4F78-E1AE-46DB-B09E-A4EC5EE567EB";
shapes = (
{
closed = 1;
nodes = (
(1142,0,l),
(1142,178,l),
(288,178,l),
(288,106,l),
(1114,1318,l),
(1114,1472,l),
(91,1472,l),
(91,1294,l),
(918,1294,l),
(918,1366,l),
(91,154,l),
(91,0,l)
);
}
);
width = 1184;
},
{
anchors = (
{
name = bottom;
position = "{600, 0}";
},
{
name = top;
position = "{598, 1472}";
}
);
layerId = "958021ED-7CC5-4835-9393-1BA2EA52DC8F";
shapes = (
{
closed = 1;
nodes = (
(1094,0,l),
(1094,66,l),
(164,66,l),
(164,22,l),
(1068,1424,l),
(1068,1472,l),
(100,1472,l),
(100,1406,l),
(1006,1406,l),
(1006,1450,l),
(100,48,l),
(100,0,l)
);
}
);
width = 1144;
}
);
leftKerningGroup = Z;
rightKerningGroup = Z;
unicode = 90;
}
{
color = 11;
glyphname = bracketleft;
layers = (
{
layerId = "A6805B89-47EA-471F-88E2-6C6BDB91AD06";
shapes = (
{
closed = 1;
nodes = (
(770,-188,l),
(770,78,l),
(566,78,l),
(566,1394,l),
(770,1394,l),
(770,1660,l),
(204,1660,l),
(204,-188,l)
);
}
);
width = 808;
},
{
layerId = "74EDEEDC-441F-4395-93E2-DA3D8F4EBC35";
shapes = (
{
closed = 1;
nodes = (
(636,-188,l),
(636,-29,l),
(411,-29,l),
(411,1502,l),
(636,1502,l),
(636,1660,l),
(204,1660,l),
(204,-188,l)
);
}
);
width = 647;
},
{
layerId = "5CA5D978-5DFF-4019-A5DD-99A0755926E0";
shapes = (
{
closed = 1;
nodes = (
(540,-188,l),
(540,-124,l),
(296,-124,l),
(296,1598,l),
(540,1598,l),
(540,1660,l),
(226,1660,l),
(226,-188,l)
);
}
);
width = 550;
}
);
leftKerningGroup = parenleft;
rightKerningGroup = braceleft;
unicode = 91;
}
{
color = 11;
glyphname = backslash;
layers = (
{
layerId = "A6805B89-47EA-471F-88E2-6C6BDB91AD06";
shapes = (
{
closed = 1;
nodes = (
(742,-92,l),
(224,1604,l),
(-38,1530,l),
(480,-170,l)
);
}
);
width = 704;
},
{
layerId = "74EDEEDC-441F-4395-93E2-DA3D8F4EBC35";
shapes = (
{
closed = 1;
nodes = (
(623,-93,l),
(112,1576,l),
(-46,1531,l),
(466,-138,l)
);
}
);
width = 579;
},
{
layerId = "5CA5D978-5DFF-4019-A5DD-99A0755926E0";
shapes = (
{
closed = 1;
nodes = (
(536,-94,l),
(32,1552,l),
(-34,1532,l),
(472,-110,l)
);
}
);
width = 504;
}
);
leftKerningGroup = backslash;
rightKerningGroup = backslash;
unicode = 92;
}
{
color = 11;
glyphname = bracketright;
layers = (
{
layerId = "A6805B89-47EA-471F-88E2-6C6BDB91AD06";
shapes = (
{
closed = 1;
nodes = (
(600,-188,l),
(600,1660,l),
(36,1660,l),
(36,1394,l),
(240,1394,l),
(240,78,l),
(36,78,l),
(36,-188,l)
);
}
);
width = 808;
},
{
layerId = "74EDEEDC-441F-4395-93E2-DA3D8F4EBC35";
shapes = (
{
closed = 1;
nodes = (
(441,-188,l),
(441,1660,l),
(10,1660,l),
(10,1502,l),
(238,1502,l),
(238,-29,l),
(10,-29,l),
(10,-188,l)
);
}
);
width = 647;
},
{
layerId = "5CA5D978-5DFF-4019-A5DD-99A0755926E0";
shapes = (
{
closed = 1;
nodes = (
(324,-188,l),
(324,1660,l),
(10,1660,l),
(10,1598,l),
(258,1598,l),
(258,-124,l),
(10,-124,l),
(10,-188,l)
);
}
);
width = 550;
}
);
leftKerningGroup = braceright;
rightKerningGroup = parenright;
unicode = 93;
}
{
color = 11;
glyphname = asciicircum;
layers = (
{
layerId = "191F2DA0-BCD2-452E-AB1D-772258B19E47";
associatedMasterId = "7B66E43B-35BC-4CDD-B71B-7D56A9572330";
name = "21년 12월 19일 02:30";
shapes = (
{
closed = 1;
nodes = (
(338,466,l),
(686,1384,l),
(512,1384,l),
(860,466,l),
(1128,466,l),
(734,1472,l),
(468,1472,l),
(72,466,l)
);
}
);
width = 1200;
},
{
layerId = "7B66E43B-35BC-4CDD-B71B-7D56A9572330";
shapes = (
{
closed = 1;
nodes = (
(516,1204,l),
(440,1204,l),
(614,828,l),
(910,828,l),
(610,1472,l),
(346,1472,l),
(46,828,l),
(342,828,l)
);
}
);
width = 956;
},
{
layerId = "FC5D3D8C-AB50-41A9-8405-C9FF1CAE1726";
shapes = (
{
closed = 1;
nodes = (
(474,1315,l),
(434,1315,l),
(676,843,l),
(851,843,l),
(533,1472,l),
(375,1472,l),
(57,843,l),
(232,843,l)
);
}
);
width = 909;
},
{
layerId = "4D89234D-42B5-44C2-91FF-C1440488C236";
associatedMasterId = "EA701F3C-7533-4E12-969A-F8F539424701";
name = "21년 12월 19일 02:34";
shapes = (
{
closed = 1;
nodes = (
(170,468,l),
(618,1414,l),
(582,1414,l),
(1028,468,l),
(1106,468,l),
(630,1472,l),
(568,1472,l),
(92,468,l)
);
}
);
width = 1200;
},
{
layerId = "EA701F3C-7533-4E12-969A-F8F539424701";
shapes = (
{
closed = 1;
nodes = (
(444,1412,l),
(436,1412,l),
(738,856,l),
(806,856,l),
(472,1472,l),
(408,1472,l),
(74,856,l),
(142,856,l)
);
}
);
width = 880;
}
);
unicode = 94;
}
{
color = 11;
glyphname = underscore;
layers = (
{
layerId = "A06B8506-BBE1-4A28-92E2-491406422708";
shapes = (
{
closed = 1;
nodes = (
(874,-266,l),
(874,6,l),
(42,6,l),
(42,-266,l)
);
}
);
width = 916;
},
{
layerId = "2D3E1F4A-4F79-435C-922D-C1502E296E5C";
shapes = (
{
closed = 1;
nodes = (
(874,-156,l),
(874,4,l),
(42,4,l),
(42,-156,l)
);
}
);
width = 916;
},
{
layerId = "F480A0F6-CE20-4515-90A8-C409EEC2FB0B";
shapes = (
{
closed = 1;
nodes = (
(874,-58,l),
(874,2,l),
(42,2,l),
(42,-58,l)
);
}
);
width = 916;
}
);
leftKerningGroup = period;
rightKerningGroup = period;
unicode = 95;
}
{
color = 11;
glyphname = a;
layers = (
{
anchors = (
{
name = bottom;
position = "{634, 0}";
},
{
name = ogonek;
position = "{1044, 0}";
},
{
name = top;
position = "{642, 1010}";
}
);
layerId = "7B66E43B-35BC-4CDD-B71B-7D56A9572330";
shapes = (
{
closed = 1;
nodes = (
(676,-24,o),
(790,70,o),
(820,216,c),
(802,216,l),
(802,189,ls),
(802,126,o),
(813,62,o),
(838,0,c),
(1164,0,l),
(1152,99,o),
(1148,201,o),
(1148,299,cs),
(1148,660,ls),
(1148,982,o),
(972,1126,o),
(626,1126,cs),
(452,1126,o),
(234,1072,o),
(116,992,c),
(212,742,l),
(336,816,o),
(478,854,o),
(606,854,cs),
(742,854,o),
(798,814,o),
(798,704,cs),
(798,424,ls),
(798,300,o),
(704,228,o),
(584,228,cs),
(484,228,o),
(430,274,o),
(430,348,cs),
(430,430,o),
(498,478,o),
(712,478,cs),
(838,478,l),
(838,660,l),
(710,660,ls),
(228,660,o),
(76,558,o),
(76,340,cs),
(76,138,o),
(242,-24,o),
(502,-24,cs)
);
}
);
width = 1266;
},
{
anchors = (
{
name = bottom;
position = "{605, 0}";
},
{
name = ogonek;
position = "{998, 0}";
},
{
name = top;
position = "{612, 1010}";
}
);
layerId = "FC5D3D8C-AB50-41A9-8405-C9FF1CAE1726";
shapes = (
{
closed = 1;
nodes = (
(698,-21,o),
(828,85,o),
(867,243,c),
(844,243,l),
(844,211,ls),
(844,141,o),
(852,70,o),
(867,0,c),
(1058,0,l),
(1046,97,o),
(1041,195,o),
(1041,291,cs),
(1041,710,ls),
(1041,1003,o),
(888,1124,o),
(607,1124,cs),
(449,1124,o),
(267,1074,o),
(154,994,c),
(219,844,l),
(337,923,o),
(467,960,o),
(601,960,cs),
(764,960,o),
(841,896,o),
(841,727,cs),
(841,434,ls),
(841,248,o),
(713,132,o),
(549,132,cs),
(406,132,o),
(317,210,o),
(317,331,cs),
(317,463,o),
(404,517,o),
(750,517,cs),
(873,517,l),
(873,641,l),
(748,641,ls),
(256,641,o),
(110,547,o),
(110,326,cs),
(110,127,o),
(273,-21,o),
(510,-21,cs)
);
}
);
width = 1197;
},
{
anchors = (
{
name = bottom;
position = "{590, 0}";
},
{
name = ogonek;
position = "{968, 0}";
},
{
name = top;
position = "{596, 1010}";
}
);
layerId = "EA701F3C-7533-4E12-969A-F8F539424701";
shapes = (
{
closed = 1;
nodes = (
(728,-18,o),
(872,98,o),
(920,266,c),
(892,266,l),
(892,217,ls),
(892,145,o),
(898,72,o),
(911,0,c),
(974,0,l),
(962,94,o),
(958,190,o),
(958,284,cs),
(958,754,ls),
(958,1022,o),
(826,1122,o),
(602,1122,cs),
(458,1122,o),
(308,1076,o),
(198,996,c),
(236,934,l),
(350,1018,o),
(468,1054,o),
(608,1054,cs),
(794,1054,o),
(890,968,o),
(890,748,cs),
(890,442,ls),
(890,202,o),
(732,48,o),
(530,48,cs),
(348,48,o),
(228,154,o),
(228,316,cs),
(228,492,o),
(332,552,o),
(794,552,cs),
(916,552,l),
(916,624,l),
(792,624,ls),
(292,624,o),
(152,538,o),
(152,314,cs),
(152,118,o),
(312,-18,o),
(528,-18,cs)
);
}
);
width = 1156;
}
);
leftKerningGroup = a;
rightKerningGroup = n;
unicode = 97;
}
{
color = 11;
glyphname = b;
layers = (
{
anchors = (
{
name = bottom;
position = "{686, 0}";
},
{
name = top;
position = "{718, 1472}";
}
);
layerId = "A06B8506-BBE1-4A28-92E2-491406422708";
shapes = (
{
closed = 1;
nodes = (
(1107,-24,o),
(1315,170,o),
(1315,502,cs),
(1315,602,ls),
(1315,932,o),
(1107,1126,o),
(832,1126,cs),
(666,1126,o),
(520,1044,o),
(466,912,c),
(494,912,l),
(494,1472,l),
(124,1472,l),
(124,0,l),
(488,0,l),
(488,198,l),
(464,198,l),
(516,60,o),
(662,-24,o),
(832,-24,cs)
);
},
{
closed = 1;
nodes = (
(574,252,o),
(490,344,o),
(490,552,cs),
(490,760,o),
(574,850,o),
(716,850,cs),
(844,850,o),
(942,775,o),
(942,602,cs),
(942,502,ls),
(942,329,o),
(844,252,o),
(716,252,cs)
);
}
);
width = 1386;
},
{
anchors = (
{
name = bottom;
position = "{697, 0}";
},
{
name = top;
position = "{696, 1472}";
}
);
layerId = "2D3E1F4A-4F79-435C-922D-C1502E296E5C";
shapes = (
{
closed = 1;
nodes = (
(1016,-20,o),
(1226,168,o),
(1226,498,cs),
(1226,609,ls),
(1226,937,o),
(1016,1124,o),
(741,1124,cs),
(547,1124,o),
(393,1024,o),
(339,850,c),
(367,850,l),
(367,1472,l),
(168,1472,l),
(168,0,l),
(364,0,l),
(364,257,l),
(338,257,l),
(392,80,o),
(545,-20,o),
(741,-20,cs)
);
},
{
closed = 1;
nodes = (
(493,138,o),
(364,277,o),
(364,553,cs),
(364,830,o),
(493,965,o),
(694,965,cs),
(880,965,o),
(1022,849,o),
(1022,609,cs),
(1022,498,ls),
(1022,258,o),
(880,138,o),
(694,138,cs)
);
}
);
width = 1326;
},
{
anchors = (
{
name = bottom;
position = "{706, 0}";
},
{
name = top;
position = "{678, 1472}";
}
);
layerId = "F480A0F6-CE20-4515-90A8-C409EEC2FB0B";
shapes = (
{
closed = 1;
nodes = (
(946,-16,o),
(1156,167,o),
(1156,495,cs),
(1156,614,ls),
(1156,941,o),
(945,1122,o),
(670,1122,cs),
(454,1122,o),
(294,1008,o),
(240,802,c),
(268,802,l),
(268,1472,l),
(202,1472,l),
(202,0,l),
(268,0,l),
(268,302,l),
(240,302,l),
(296,96,o),
(454,-16,o),
(670,-16,cs)
);
},
{
closed = 1;
nodes = (
(430,50,o),
(266,224,o),
(266,554,cs),
(266,884,o),
(430,1054,o),
(676,1054,cs),
(908,1054,o),
(1084,906,o),
(1084,614,cs),
(1084,494,ls),
(1084,202,o),
(908,50,o),
(676,50,cs)
);
}
);
width = 1280;
}
);
leftKerningGroup = h;
rightKerningGroup = o;
unicode = 98;
}
{
color = 11;
glyphname = c;
layers = (
{
anchors = (
{
name = bottom;
position = "{648, 0}";
},
{
name = top;
position = "{648, 1010}";
}
);
layerId = "A06B8506-BBE1-4A28-92E2-491406422708";
shapes = (
{
closed = 1;
nodes = (
(824,-24,o),
(978,18,o),
(1072,100,c),
(960,350,l),
(888,290,o),
(794,258,o),
(712,258,cs),
(563,258,o),
(452,340,o),
(452,501,cs),
(452,602,ls),
(452,767,o),
(562,846,o),
(712,846,cs),
(796,846,o),
(890,812,o),
(960,754,c),
(1072,1004,l),
(980,1082,o),
(830,1126,o),
(674,1126,cs),
(330,1126,o),
(72,939,o),
(72,602,cs),
(72,502,ls),
(72,169,o),
(330,-24,o),
(674,-24,cs)
);
}
);
width = 1084;
},
{
anchors = (
{
name = bottom;
position = "{629, 0}";
},
{
name = top;
position = "{629, 1010}";
}
);
layerId = "2D3E1F4A-4F79-435C-922D-C1502E296E5C";
shapes = (
{
closed = 1;
nodes = (
(780,-20,o),
(923,28,o),
(1017,124,c),
(940,268,l),
(857,185,o),
(752,148,o),
(653,148,cs),
(457,148,o),
(313,268,o),
(313,497,cs),
(313,610,ls),
(313,842,o),
(456,958,o),
(653,958,cs),
(757,958,o),
(858,916,o),
(940,836,c),
(1017,982,l),
(926,1072,o),
(788,1124,o),
(636,1124,cs),
(332,1124,o),
(98,945,o),
(98,610,cs),
(98,497,ls),
(98,167,o),
(329,-20,o),
(637,-20,cs)
);
}
);
width = 1048;
},
{
anchors = (
{
name = bottom;
position = "{618, 0}";
},
{
name = top;
position = "{618, 1010}";
}
);
layerId = "F480A0F6-CE20-4515-90A8-C409EEC2FB0B";
shapes = (
{
closed = 1;
nodes = (
(746,-16,o),
(880,36,o),
(974,146,c),
(928,196,l),
(836,92,o),
(720,50,o),
(606,50,cs),
(369,50,o),
(196,206,o),
(196,494,cs),
(196,614,ls),
(196,905,o),
(367,1056,o),
(606,1056,cs),
(728,1056,o),
(836,1008,o),
(928,908,c),
(974,962,l),
(884,1064,o),
(756,1122,o),
(608,1122,cs),
(338,1122,o),
(125,950,o),
(125,614,cs),
(125,494,ls),
(125,166,o),
(334,-16,o),
(610,-16,cs)
);
}
);
width = 1026;
}
);
leftKerningGroup = o;
rightKerningGroup = c;
unicode = 99;
}
{
color = 11;
glyphname = d;
layers = (
{
anchors = (
{
name = bottom;
position = "{696, 0}";
},
{
name = center;
position = "{674, 554}";
},
{
name = stroke;
position = "{962, 1326}";
},
{
name = top;
position = "{694, 1324}";
},
{
name = topright;
position = "{1340, 1472}";
}
);
layerId = "A06B8506-BBE1-4A28-92E2-491406422708";
shapes = (
{
closed = 1;
nodes = (
(724,-24,o),
(874,60,o),
(922,196,c),
(900,196,l),
(900,0,l),
(1262,0,l),
(1262,1472,l),
(892,1472,l),
(892,916,l),
(920,916,l),
(868,1046,o),
(720,1126,o),
(554,1126,cs),
(279,1126,o),
(71,933,o),
(71,602,cs),
(71,502,ls),
(71,172,o),
(281,-24,o),
(554,-24,cs)
);
},
{
closed = 1;
nodes = (
(544,254,o),
(444,330,o),
(444,502,cs),
(444,602,ls),
(444,774,o),
(544,852,o),
(672,852,cs),
(812,852,o),
(898,760,o),
(898,554,cs),
(898,346,o),
(812,254,o),
(672,254,cs)
);
}
);
width = 1386;
},
{
anchors = (
{
name = bottom;
position = "{664, 0}";
},
{
name = center;
position = "{655, 556}";
},
{
name = stroke;
position = "{941, 1325}";
},
{
name = top;
position = "{660, 1310}";
},
{
name = topright;
position = "{1260, 1472}";
}
);
layerId = "2D3E1F4A-4F79-435C-922D-C1502E296E5C";
shapes = (
{
closed = 1;
nodes = (
(775,-20,o),
(931,79,o),
(980,251,c),
(955,251,l),
(955,0,l),
(1160,0,l),
(1160,1472,l),
(952,1472,l),
(952,857,l),
(980,857,l),
(928,1027,o),
(773,1124,o),
(583,1124,cs),
(304,1124,o),
(96,939,o),
(96,610,cs),
(96,497,ls),
(96,168,o),
(306,-20,o),
(583,-20,cs)
);
},
{
closed = 1;
nodes = (
(448,146,o),
(307,261,o),
(307,497,cs),
(307,610,ls),
(307,845,o),
(448,959,o),
(631,959,cs),
(828,959,o),
(956,826,o),
(956,554,cs),
(956,281,o),
(828,146,o),
(631,146,cs)
);
}
);
width = 1320;
},
{
anchors = (
{
name = bottom;
position = "{646, 0}";
},
{
name = center;
position = "{648, 558}";
},
{
name = stroke;
position = "{932, 1324}";
},
{
name = top;
position = "{640, 1298}";
},
{
name = topright;
position = "{1198, 1472}";
}
);
layerId = "F480A0F6-CE20-4515-90A8-C409EEC2FB0B";
shapes = (
{
closed = 1;
nodes = (
(830,-16,o),
(990,96,o),
(1040,300,c),
(1012,300,l),
(1012,0,l),
(1080,0,l),
(1080,1472,l),
(1014,1472,l),
(1014,804,l),
(1042,804,l),
(990,1010,o),
(830,1122,o),
(618,1122,cs),
(333,1122,o),
(126,941,o),
(126,614,cs),
(126,494,ls),
(126,166,o),
(335,-16,o),
(618,-16,cs)
);
},
{
closed = 1;
nodes = (
(372,50,o),
(196,202,o),
(196,494,cs),
(196,614,ls),
(196,906,o),
(372,1054,o),
(604,1054,cs),
(852,1054,o),
(1016,884,o),
(1016,554,cs),
(1016,224,o),
(852,50,o),
(604,50,cs)
);
}
);
width = 1280;
}
);
leftKerningGroup = o;
rightKerningGroup = l;
unicode = 100;
}
{
color = 11;
glyphname = e;
layers = (
{
anchors = (
{
name = bottom;
position = "{646, 0}";
},
{
name = ogonek;
position = "{892, 0}";
},
{
name = top;
position = "{654, 1010}";
}
);
layerId = "A06B8506-BBE1-4A28-92E2-491406422708";
shapes = (
{
closed = 1;
nodes = (
(888,-24,o),
(1064,26,o),
(1170,112,c),
(1068,352,l),
(980,284,o),
(850,252,o),
(732,252,cs),
(533,252,o),
(424,328,o),
(424,502,cs),
(424,602,ls),
(424,790,o),
(513,876,o),
(662,876,cs),
(798,876,o),
(872,798,o),
(874,620,c),
(912,656,l),
(380,656,l),
(380,474,l),
(1184,474,l),
(1184,556,ls),
(1184,902,o),
(982,1126,o),
(650,1126,cs),
(324,1126,o),
(72,911,o),
(72,602,cs),
(72,502,ls),
(72,169,o),
(341,-24,o),
(720,-24,cs)
);
}
);
width = 1238;
},
{
anchors = (
{
name = bottom;
position = "{636, 0}";
},
{
name = ogonek;
position = "{828, 0}";
},
{
name = top;
position = "{639, 1010}";
}
);
layerId = "2D3E1F4A-4F79-435C-922D-C1502E296E5C";
shapes = (
{
closed = 1;
nodes = (
(842,-20,o),
(1008,34,o),
(1105,133,c),
(1038,268,l),
(938,176,o),
(813,138,o),
(684,138,cs),
(450,138,o),
(297,254,o),
(297,498,cs),
(297,609,ls),
(297,846,o),
(438,977,o),
(642,977,cs),
(840,977,o),
(946,854,o),
(947,603,c),
(985,634,l),
(256,634,l),
(256,512,l),
(1119,512,l),
(1119,581,ls),
(1119,922,o),
(938,1124,o),
(638,1124,cs),
(339,1124,o),
(102,925,o),
(102,609,cs),
(102,498,ls),
(102,165,o),
(341,-20,o),
(676,-20,cs)
);
}
);
width = 1205;
},
{
anchors = (
{
name = bottom;
position = "{628, 0}";
},
{
name = ogonek;
position = "{778, 0}";
},
{
name = top;
position = "{628, 1010}";
}
);
layerId = "F480A0F6-CE20-4515-90A8-C409EEC2FB0B";
shapes = (
{
closed = 1;
nodes = (
(806,-16,o),
(964,40,o),
(1054,150,c),
(1014,202,l),
(906,92,o),
(784,50,o),
(646,50,cs),
(386,50,o),
(198,196,o),
(198,494,cs),
(198,614,ls),
(198,890,o),
(380,1056,o),
(626,1056,cs),
(872,1056,o),
(1004,898,o),
(1004,590,c),
(1042,616,l),
(160,616,l),
(160,542,l),
(1068,542,l),
(1068,600,ls),
(1068,938,o),
(904,1122,o),
(628,1122,cs),
(351,1122,o),
(125,936,o),
(125,614,cs),
(125,494,ls),
(125,162,o),
(341,-16,o),
(642,-16,cs)
);
}
);
width = 1180;
}
);
leftKerningGroup = o;
rightKerningGroup = e;
unicode = 101;
}
{
color = 11;
glyphname = g;
layers = (
{
anchors = (
{
name = top;
position = "{696, 1010}";
}
);
layerId = "A06B8506-BBE1-4A28-92E2-491406422708";
shapes = (
{
closed = 1;
nodes = (
(1060,-398,o),
(1272,-222,o),
(1272,134,cs),
(1272,1104,l),
(908,1104,l),
(908,918,l),
(928,918,l),
(882,1048,o),
(738,1126,o),
(564,1126,cs),
(273,1126,o),
(71,930,o),
(71,602,cs),
(71,502,ls),
(71,200,o),
(288,26,o),
(566,26,cs),
(740,26,o),
(884,108,o),
(932,240,c),
(912,240,l),
(912,94,ls),
(912,-58,o),
(820,-126,o),
(630,-126,cs),
(482,-126,o),
(314,-88,o),
(208,-22,c),
(112,-270,l),
(236,-360,o),
(432,-398,o),
(654,-398,cs)
);
},
{
closed = 1;
nodes = (
(554,302,o),
(446,366,o),
(446,502,cs),
(446,602,ls),
(446,768,o),
(539,850,o),
(678,850,cs),
(822,850,o),
(908,760,o),
(908,576,cs),
(908,392,o),
(822,302,o),
(678,302,cs)
);
}
);
width = 1396;
},
{
anchors = (
{
name = top;
position = "{670, 1010}";
}
);
layerId = "2D3E1F4A-4F79-435C-922D-C1502E296E5C";
shapes = (
{
closed = 1;
nodes = (
(991,-395,o),
(1165,-236,o),
(1165,80,cs),
(1165,1104,l),
(968,1104,l),
(968,853,l),
(992,853,l),
(945,1027,o),
(791,1124,o),
(594,1124,cs),
(304,1124,o),
(103,934,o),
(103,609,cs),
(103,498,ls),
(103,198,o),
(317,25,o),
(595,25,cs),
(792,25,o),
(946,124,o),
(994,296,c),
(972,296,l),
(972,56,ls),
(972,-138,o),
(861,-239,o),
(648,-239,cs),
(487,-239,o),
(352,-203,o),
(225,-113,c),
(162,-254,l),
(286,-351,o),
(457,-395,o),
(655,-395,cs)
);
},
{
closed = 1;
nodes = (
(455,183,o),
(306,290,o),
(306,498,cs),
(306,609,ls),
(306,844,o),
(442,965,o),
(638,965,cs),
(840,965,o),
(970,832,o),
(970,574,cs),
(970,318,o),
(840,183,o),
(638,183,cs)
);
}
);
width = 1332;
},
{
anchors = (
{
name = top;
position = "{650, 1010}";
}
);
layerId = "F480A0F6-CE20-4515-90A8-C409EEC2FB0B";
shapes = (
{
closed = 1;
nodes = (
(938,-392,o),
(1082,-246,o),
(1082,38,cs),
(1082,1104,l),
(1014,1104,l),
(1014,802,l),
(1042,802,l),
(994,1010,o),
(832,1122,o),
(618,1122,cs),
(328,1122,o),
(127,937,o),
(127,614,cs),
(127,494,ls),
(127,196,o),
(340,24,o),
(618,24,cs),
(832,24,o),
(994,136,o),
(1042,340,c),
(1018,340,l),
(1018,26,ls),
(1018,-200,o),
(892,-326,o),
(662,-326,cs),
(490,-326,o),
(382,-292,o),
(238,-184,c),
(200,-242,l),
(324,-344,o),
(476,-392,o),
(656,-392,cs)
);
},
{
closed = 1;
nodes = (
(378,90,o),
(197,231,o),
(197,494,cs),
(197,614,ls),
(197,903,o),
(367,1054,o),
(606,1054,cs),
(854,1054,o),
(1018,888,o),
(1018,572,cs),
(1018,260,o),
(854,90,o),
(606,90,cs)
);
}
);
width = 1282;
}
);
leftKerningGroup = o;
rightKerningGroup = u;
unicode = 103;
}
{
color = 11;
glyphname = h;
layers = (
{
anchors = (
{
name = bottom;
position = "{682, 0}";
},
{
name = center;
position = "{682, 558}";
},
{
name = dot;
position = "{790, 786}";
},
{
name = stroke;
position = "{422, 1236}";
},
{
name = top;
position = "{682, 1472}";
},
{
name = topright;
position = "{546, 1472}";
}
);
layerId = "7B66E43B-35BC-4CDD-B71B-7D56A9572330";
shapes = (
{
closed = 1;
nodes = (
(494,0,l),
(494,620,ls),
(494,750,o),
(580,842,o),
(710,842,cs),
(808,842,o),
(864,790,o),
(864,648,cs),
(864,0,l),
(1234,0,l),
(1234,662,ls),
(1234,980,o),
(1106,1126,o),
(846,1126,cs),
(678,1126,o),
(538,1048,o),
(468,912,c),
(496,912,l),
(494,1472,l),
(124,1472,l),
(124,0,l)
);
}
);
width = 1352;
},
{
anchors = (
{
name = bottom;
position = "{644, 0}";
},
{
name = center;
position = "{644, 559}";
},
{
name = dot;
position = "{593, 798}";
},
{
name = stroke;
position = "{377, 1222}";
},
{
name = top;
position = "{645, 1472}";
},
{
name = topright;
position = "{443, 1472}";
}
);
layerId = "FC5D3D8C-AB50-41A9-8405-C9FF1CAE1726";
shapes = (
{
closed = 1;
nodes = (
(369,0,l),
(369,634,ls),
(369,827,o),
(492,956,o),
(684,956,cs),
(843,956,o),
(923,877,o),
(923,675,cs),
(923,0,l),
(1131,0,l),
(1131,685,ls),
(1131,991,o),
(996,1124,o),
(740,1124,cs),
(553,1124,o),
(408,1033,o),
(343,875,c),
(370,875,l),
(369,1472,l),
(160,1472,l),
(160,0,l)
);
}
);
width = 1286;
},
{
anchors = (
{
name = bottom;
position = "{620, 0}";
},
{
name = center;
position = "{620, 560}";
},
{
name = dot;
position = "{428, 808}";
},
{
name = stroke;
position = "{346, 1210}";
},
{
name = top;
position = "{622, 1472}";
},
{
name = topright;
position = "{362, 1472}";
}
);
layerId = "EA701F3C-7533-4E12-969A-F8F539424701";
shapes = (
{
closed = 1;
nodes = (
(268,0,l),
(268,646,ls),
(268,894,o),
(424,1056,o),
(670,1056,cs),
(884,1056,o),
(984,954,o),
(984,698,cs),
(984,0,l),
(1050,0,l),
(1050,706,ls),
(1050,1000,o),
(908,1122,o),
(656,1122,cs),
(452,1122,o),
(302,1020,o),
(242,842,c),
(268,842,l),
(268,1472,l),
(202,1472,l),
(202,0,l)
);
}
);
width = 1246;
}
);
leftKerningGroup = h;
rightKerningGroup = n;
unicode = 104;
}
{
color = 11;
glyphname = i;
layers = (
{
anchors = (
{
name = bottom;
position = "{310, 0}";
},
{
name = ogonek;
position = "{406, 0}";
}
);
layerId = "A06B8506-BBE1-4A28-92E2-491406422708";
shapes = (
{
closed = 1;
nodes = (
(494,1256,l),
(494,1472,l),
(124,1472,l),
(124,1256,l)
);
},
{
closed = 1;
nodes = (
(494,0,l),
(494,1104,l),
(124,1104,l),
(124,0,l)
);
}
);
width = 616;
},
{
anchors = (
{
name = bottom;
position = "{262, 0}";
},
{
name = ogonek;
position = "{330, 0}";
}
);
layerId = "2D3E1F4A-4F79-435C-922D-C1502E296E5C";
shapes = (
{
closed = 1;
nodes = (
(367,1293,l),
(367,1472,l),
(158,1472,l),
(158,1293,l)
);
},
{
closed = 1;
nodes = (
(367,0,l),
(367,1104,l),
(158,1104,l),
(158,0,l)
);
}
);
width = 522;
},
{
anchors = (
{
name = bottom;
position = "{232, 0}";
},
{
name = ogonek;
position = "{276, 0}";
}
);
layerId = "F480A0F6-CE20-4515-90A8-C409EEC2FB0B";
shapes = (
{
closed = 1;
nodes = (
(268,1326,l),
(268,1472,l),
(202,1472,l),
(202,1326,l)
);
},
{
closed = 1;
nodes = (
(268,0,l),
(268,1104,l),
(202,1104,l),
(202,0,l)
);
}
);
width = 466;
}
);
leftKerningGroup = h;
rightKerningGroup = l;
unicode = 105;
}
{
color = 11;
glyphname = j;
layers = (
{
layerId = "B0FE6CA3-3B5A-43B9-ADCC-06CF5CDDB79F";
shapes = (
{
closed = 1;
nodes = (
(502,1256,l),
(502,1472,l),
(132,1472,l),
(132,1256,l)
);
},
{
closed = 1;
nodes = (
(10,-396,ls),
(386,-370,o),
(502,-238,o),
(502,64,cs),
(502,1104,l),
(132,1104,l),
(132,10,ls),
(132,-80,o),
(92,-122,o),
(-4,-130,cs),
(-116,-142,l),
(-92,-402,l)
);
}
);
width = 628;
},
{
layerId = "FE1B4F78-E1AE-46DB-B09E-A4EC5EE567EB";
shapes = (
{
closed = 1;
nodes = (
(371,1293,l),
(371,1472,l),
(162,1472,l),
(162,1293,l)
);
},
{
closed = 1;
nodes = (
(-21,-396,ls),
(255,-377,o),
(371,-249,o),
(371,2,cs),
(371,1104,l),
(162,1104,l),
(162,-22,ls),
(162,-154,o),
(97,-228,o),
(-33,-237,c),
(-135,-246,l),
(-120,-402,l)
);
}
);
width = 528;
},
{
layerId = "958021ED-7CC5-4835-9393-1BA2EA52DC8F";
shapes = (
{
closed = 1;
nodes = (
(270,1326,l),
(270,1472,l),
(204,1472,l),
(204,1326,l)
);
},
{
closed = 1;
nodes = (
(-34,-396,ls),
(154,-384,o),
(270,-258,o),
(270,-52,cs),
(270,1104,l),
(204,1104,l),
(204,-50,ls),
(204,-220,o),
(116,-322,o),
(-44,-332,cs),
(-136,-338,l),
(-130,-402,l)
);
}
);
width = 468;
}
);
leftKerningGroup = j;
rightKerningGroup = l;
unicode = 106;
}
{
color = 11;
glyphname = k;
layers = (
{
anchors = (
{
name = bottom;
position = "{640, 0}";
},
{
name = top;
position = "{682, 1472}";
}
);
layerId = "A06B8506-BBE1-4A28-92E2-491406422708";
shapes = (
{
closed = 1;
nodes = (
(604,400,l),
(916,0,l),
(1342,0,l),
(828,658,l)
);
},
{
closed = 1;
nodes = (
(1322,1104,l),
(864,1104,l),
(494,706,l),
(494,1472,l),
(124,1472,l),
(124,0,l),
(494,0,l),
(494,218,l)
);
}
);
width = 1280;
},
{
anchors = (
{
name = bottom;
position = "{564, 0}";
},
{
name = top;
position = "{639, 1472}";
}
);
layerId = "2D3E1F4A-4F79-435C-922D-C1502E296E5C";
shapes = (
{
closed = 1;
nodes = (
(497,518,l),
(921,0,l),
(1166,0,l),
(624,669,l)
);
},
{
closed = 1;
nodes = (
(1122,1104,l),
(858,1104,l),
(362,591,l),
(362,1472,l),
(153,1472,l),
(153,0,l),
(362,0,l),
(362,314,l)
);
}
);
width = 1128;
},
{
anchors = (
{
name = bottom;
position = "{518, 0}";
},
{
name = top;
position = "{622, 1472}";
}
);
layerId = "F480A0F6-CE20-4515-90A8-C409EEC2FB0B";
shapes = (
{
closed = 1;
nodes = (
(424,622,l),
(946,0,l),
(1032,0,l),
(464,678,l)
);
},
{
closed = 1;
nodes = (
(966,1104,l),
(874,1104,l),
(266,490,l),
(266,1472,l),
(200,1472,l),
(200,0,l),
(266,0,l),
(266,398,l)
);
}
);
width = 1036;
}
);
leftKerningGroup = h;
rightKerningGroup = k;
unicode = 107;
}
{
color = 11;
glyphname = l;
layers = (
{
anchors = (
{
name = bottom;
position = "{444, 0}";
},
{
name = center;
position = "{330, 802}";
},
{
name = dot;
position = "{808, 802}";
},
{
name = top;
position = "{308, 1472}";
},
{
name = topright;
position = "{570, 1472}";
}
);
layerId = "B0FE6CA3-3B5A-43B9-ADCC-06CF5CDDB79F";
shapes = (
{
closed = 1;
nodes = (
(714,0,l),
(738,266,l),
(626,266,ls),
(530,266,o),
(490,316,o),
(490,406,cs),
(490,1472,l),
(120,1472,l),
(120,460,ls),
(120,158,o),
(236,0,o),
(612,0,cs)
);
}
);
width = 766;
},
{
anchors = (
{
name = bottom;
position = "{416, 0}";
},
{
name = center;
position = "{282, 811}";
},
{
name = dot;
position = "{644, 811}";
},
{
name = top;
position = "{260, 1472}";
},
{
name = topright;
position = "{461, 1472}";
}
);
layerId = "FE1B4F78-E1AE-46DB-B09E-A4EC5EE567EB";
shapes = (
{
closed = 1;
nodes = (
(643,0,l),
(658,159,l),
(556,159,ls),
(426,159,o),
(361,242,o),
(361,374,cs),
(361,1472,l),
(152,1472,l),
(152,398,ls),
(152,147,o),
(268,0,o),
(545,0,cs)
);
}
);
width = 665;
},
{
anchors = (
{
name = bottom;
position = "{406, 0}";
},
{
name = center;
position = "{254, 818}";
},
{
name = dot;
position = "{514, 818}";
},
{
name = top;
position = "{232, 1472}";
},
{
name = topright;
position = "{380, 1472}";
}
);
layerId = "958021ED-7CC5-4835-9393-1BA2EA52DC8F";
shapes = (
{
closed = 1;
nodes = (
(596,0,l),
(602,64,l),
(510,64,ls),
(350,64,o),
(262,176,o),
(262,346,cs),
(262,1472,l),
(196,1472,l),
(196,344,ls),
(196,138,o),
(312,0,o),
(500,0,cs)
);
}
);
width = 604;
}
);
leftKerningGroup = h;
rightKerningGroup = ltail;
unicode = 108;
}
{
color = 11;
glyphname = m;
layers = (
{
anchors = (
{
name = bottom;
position = "{1012, 0}";
},
{
name = top;
position = "{1012, 1010}";
}
);
layerId = "B0FE6CA3-3B5A-43B9-ADCC-06CF5CDDB79F";
shapes = (
{
closed = 1;
nodes = (
(498,0,l),
(498,618,ls),
(498,752,o),
(572,842,o),
(688,842,cs),
(780,842,o),
(826,792,o),
(826,652,cs),
(826,0,l),
(1196,0,l),
(1196,618,ls),
(1196,752,o),
(1270,842,o),
(1386,842,cs),
(1476,842,o),
(1522,792,o),
(1522,652,cs),
(1522,0,l),
(1894,0,l),
(1894,662,ls),
(1894,980,o),
(1772,1126,o),
(1516,1126,cs),
(1344,1126,o),
(1196,1036,o),
(1128,888,c),
(1166,888,l),
(1114,1056,o),
(998,1126,o),
(830,1126,cs),
(666,1126,o),
(536,1046,o),
(470,912,c),
(492,912,l),
(492,1104,l),
(128,1104,l),
(128,0,l)
);
}
);
width = 2016;
},
{
anchors = (
{
name = bottom;
position = "{972, 0}";
},
{
name = top;
position = "{972, 1010}";
}
);
layerId = "FE1B4F78-E1AE-46DB-B09E-A4EC5EE567EB";
shapes = (
{
closed = 1;
nodes = (
(372,0,l),
(372,633,ls),
(372,829,o),
(481,956,o),
(653,956,cs),
(798,956,o),
(868,879,o),
(868,676,cs),
(868,0,l),
(1076,0,l),
(1076,633,ls),
(1076,829,o),
(1186,956,o),
(1359,956,cs),
(1504,956,o),
(1572,879,o),
(1572,676,cs),
(1572,0,l),
(1782,0,l),
(1782,685,ls),
(1782,993,o),
(1654,1124,o),
(1413,1124,cs),
(1228,1124,o),
(1082,1021,o),
(1024,866,c),
(1056,866,l),
(1011,1046,o),
(894,1124,o),
(714,1124,cs),
(537,1124,o),
(407,1031,o),
(345,875,c),
(369,875,l),
(369,1104,l),
(163,1104,l),
(163,0,l)
);
}
);
width = 1940;
},
{
anchors = (
{
name = bottom;
position = "{948, 0}";
},
{
name = top;
position = "{948, 1010}";
}
);
layerId = "958021ED-7CC5-4835-9393-1BA2EA52DC8F";
shapes = (
{
closed = 1;
nodes = (
(272,0,l),
(272,646,ls),
(272,896,o),
(412,1056,o),
(634,1056,cs),
(826,1056,o),
(916,956,o),
(916,698,cs),
(916,0,l),
(982,0,l),
(982,646,ls),
(982,896,o),
(1124,1056,o),
(1346,1056,cs),
(1540,1056,o),
(1628,956,o),
(1628,698,cs),
(1628,0,l),
(1694,0,l),
(1694,706,ls),
(1694,1004,o),
(1562,1122,o),
(1334,1122,cs),
(1136,1122,o),
(992,1008,o),
(944,846,c),
(970,846,l),
(932,1038,o),
(814,1122,o),
(622,1122,cs),
(434,1122,o),
(304,1018,o),
(246,842,c),
(272,842,l),
(272,1104,l),
(206,1104,l),
(206,0,l)
);
}
);
width = 1894;
}
);
leftKerningGroup = n;
rightKerningGroup = n;
unicode = 109;
}
{
color = 11;
glyphname = n;
layers = (
{
anchors = (
{
name = bottom;
position = "{680, 0}";
},
{
name = top;
position = "{680, 1010}";
}
);
layerId = "A06B8506-BBE1-4A28-92E2-491406422708";
shapes = (
{
closed = 1;
nodes = (
(494,0,l),
(494,620,ls),
(494,750,o),
(580,842,o),
(710,842,cs),
(808,842,o),
(864,790,o),
(864,648,cs),
(864,0,l),
(1234,0,l),
(1234,662,ls),
(1234,980,o),
(1106,1126,o),
(846,1126,cs),
(678,1126,o),
(536,1050,o),
(464,912,c),
(488,912,l),
(488,1104,l),
(124,1104,l),
(124,0,l)
);
}
);
width = 1352;
},
{
anchors = (
{
name = bottom;
position = "{643, 0}";
},
{
name = top;
position = "{643, 1010}";
}
);
layerId = "2D3E1F4A-4F79-435C-922D-C1502E296E5C";
shapes = (
{
closed = 1;
nodes = (
(369,0,l),
(369,634,ls),
(369,827,o),
(492,956,o),
(684,956,cs),
(843,956,o),
(923,877,o),
(923,675,cs),
(923,0,l),
(1131,0,l),
(1131,685,ls),
(1131,992,o),
(996,1124,o),
(740,1124,cs),
(553,1124,o),
(408,1035,o),
(341,875,c),
(366,875,l),
(366,1104,l),
(160,1104,l),
(160,0,l)
);
}
);
width = 1286;
},
{
anchors = (
{
name = bottom;
position = "{620, 0}";
},
{
name = top;
position = "{620, 1010}";
}
);
layerId = "F480A0F6-CE20-4515-90A8-C409EEC2FB0B";
shapes = (
{
closed = 1;
nodes = (
(268,0,l),
(268,646,ls),
(268,894,o),
(424,1056,o),
(670,1056,cs),
(884,1056,o),
(984,954,o),
(984,698,cs),
(984,0,l),
(1050,0,l),
(1050,706,ls),
(1050,1002,o),
(908,1122,o),
(656,1122,cs),
(452,1122,o),
(304,1022,o),
(242,842,c),
(268,842,l),
(268,1104,l),
(202,1104,l),
(202,0,l)
);
}
);
width = 1246;
}
);
leftKerningGroup = n;
rightKerningGroup = n;
unicode = 110;
}
{
color = 11;
glyphname = o;
layers = (
{
anchors = (
{
name = bottom;
position = "{672, 0}";
},
{
name = center;
position = "{672, 552}";
},
{
name = ogonek;
position = "{788, 0}";
},
{
name = top;
position = "{672, 1010}";
},
{
name = topright;
position = "{812, 1084}";
}
);
layerId = "A06B8506-BBE1-4A28-92E2-491406422708";
shapes = (
{
closed = 1;
nodes = (
(1020,-24,o),
(1268,175,o),
(1268,502,cs),
(1268,602,ls),
(1268,931,o),
(1020,1126,o),
(672,1126,cs),
(322,1126,o),
(72,931,o),
(72,602,cs),
(72,502,ls),
(72,175,o),
(322,-24,o),
(672,-24,cs)
);
},
{
closed = 1;
nodes = (
(544,252,o),
(444,328,o),
(444,502,cs),
(444,602,ls),
(444,776,o),
(544,850,o),
(672,850,cs),
(800,850,o),
(896,775,o),
(896,602,cs),
(896,502,ls),
(896,329,o),
(800,252,o),
(672,252,cs)
);
}
);
width = 1342;
},
{
anchors = (
{
name = bottom;
position = "{634, 0}";
},
{
name = center;
position = "{633, 553}";
},
{
name = ogonek;
position = "{740, 0}";
},
{
name = top;
position = "{634, 1010}";
},
{
name = topright;
position = "{751, 1096}";
}
);
layerId = "2D3E1F4A-4F79-435C-922D-C1502E296E5C";
shapes = (
{
closed = 1;
nodes = (
(942,-20,o),
(1163,170,o),
(1163,498,cs),
(1163,609,ls),
(1163,936,o),
(942,1124,o),
(634,1124,cs),
(327,1124,o),
(102,936,o),
(102,609,cs),
(102,498,ls),
(102,170,o),
(327,-20,o),
(634,-20,cs)
);
},
{
closed = 1;
nodes = (
(447,138,o),
(305,257,o),
(305,498,cs),
(305,609,ls),
(305,849,o),
(447,965,o),
(634,965,cs),
(820,965,o),
(962,849,o),
(962,609,cs),
(962,498,ls),
(962,258,o),
(820,138,o),
(634,138,cs)
);
}
);
width = 1268;
},
{
anchors = (
{
name = bottom;
position = "{604, 0}";
},
{
name = center;
position = "{602, 554}";
},
{
name = ogonek;
position = "{702, 0}";
},
{
name = top;
position = "{604, 1010}";
},
{
name = topright;
position = "{704, 1106}";
}
);
layerId = "F480A0F6-CE20-4515-90A8-C409EEC2FB0B";
shapes = (
{
closed = 1;
nodes = (
(881,-16,o),
(1082,166,o),
(1082,494,cs),
(1082,614,ls),
(1082,940,o),
(881,1122,o),
(604,1122,cs),
(331,1122,o),
(126,940,o),
(126,614,cs),
(126,494,ls),
(126,166,o),
(331,-16,o),
(604,-16,cs)
);
},
{
closed = 1;
nodes = (
(372,50,o),
(196,202,o),
(196,494,cs),
(196,614,ls),
(196,906,o),
(372,1054,o),
(604,1054,cs),
(836,1054,o),
(1014,906,o),
(1014,614,cs),
(1014,494,ls),
(1014,202,o),
(836,50,o),
(604,50,cs)
);
}
);
width = 1210;
}
);
leftKerningGroup = o;
rightKerningGroup = o;
unicode = 111;
}
{
color = 11;
glyphname = p;
layers = (
{
anchors = (
{
name = bottom;
position = "{690, 0}";
},
{
name = top;
position = "{690, 1010}";
}
);
layerId = "A06B8506-BBE1-4A28-92E2-491406422708";
shapes = (
{
closed = 1;
nodes = (
(494,-376,l),
(494,188,l),
(468,188,l),
(514,58,o),
(656,-24,o),
(828,-24,cs),
(1108,-24,o),
(1315,172,o),
(1315,502,cs),
(1315,602,ls),
(1315,933,o),
(1108,1126,o),
(828,1126,cs),
(652,1126,o),
(508,1042,o),
(464,906,c),
(490,906,l),
(490,1104,l),
(124,1104,l),
(124,-376,l)
);
},
{
closed = 1;
nodes = (
(574,252,o),
(490,344,o),
(490,552,cs),
(490,760,o),
(574,850,o),
(714,850,cs),
(842,850,o),
(942,772,o),
(942,602,cs),
(942,502,ls),
(942,328,o),
(842,252,o),
(714,252,cs)
);
}
);
width = 1386;
},
{
anchors = (
{
name = bottom;
position = "{660, 0}";
},
{
name = top;
position = "{660, 1010}";
}
);
layerId = "2D3E1F4A-4F79-435C-922D-C1502E296E5C";
shapes = (
{
closed = 1;
nodes = (
(367,-376,l),
(367,251,l),
(340,251,l),
(389,81,o),
(541,-20,o),
(737,-20,cs),
(1017,-20,o),
(1226,169,o),
(1226,498,cs),
(1226,609,ls),
(1226,938,o),
(1017,1124,o),
(737,1124,cs),
(540,1124,o),
(387,1024,o),
(338,850,c),
(365,850,l),
(365,1104,l),
(168,1104,l),
(168,-376,l)
);
},
{
closed = 1;
nodes = (
(493,138,o),
(364,277,o),
(364,553,cs),
(364,830,o),
(493,965,o),
(693,965,cs),
(879,965,o),
(1022,847,o),
(1022,609,cs),
(1022,498,ls),
(1022,257,o),
(879,138,o),
(693,138,cs)
);
}
);
width = 1326;
},
{
anchors = (
{
name = bottom;
position = "{636, 0}";
},
{
name = top;
position = "{636, 1010}";
}
);
layerId = "F480A0F6-CE20-4515-90A8-C409EEC2FB0B";
shapes = (
{
closed = 1;
nodes = (
(268,-376,l),
(268,300,l),
(240,300,l),
(292,98,o),
(452,-16,o),
(666,-16,cs),
(947,-16,o),
(1156,166,o),
(1156,494,cs),
(1156,614,ls),
(1156,941,o),
(947,1122,o),
(666,1122,cs),
(452,1122,o),
(292,1010,o),
(240,806,c),
(268,806,l),
(268,1104,l),
(202,1104,l),
(202,-376,l)
);
},
{
closed = 1;
nodes = (
(430,50,o),
(266,224,o),
(266,554,cs),
(266,884,o),
(430,1054,o),
(676,1054,cs),
(908,1054,o),
(1084,906,o),
(1084,614,cs),
(1084,494,ls),
(1084,202,o),
(908,50,o),
(676,50,cs)
);
}
);
width = 1280;
}
);
leftKerningGroup = n;
rightKerningGroup = o;
unicode = 112;
}
{
color = 11;
glyphname = q;
layers = (
{
anchors = (
{
name = bottom;
position = "{698, 0}";
},
{
name = top;
position = "{698, 1010}";
}
);
layerId = "A06B8506-BBE1-4A28-92E2-491406422708";
shapes = (
{
closed = 1;
nodes = (
(1262,-376,l),
(1262,1104,l),
(896,1104,l),
(896,906,l),
(920,906,l),
(876,1042,o),
(734,1126,o),
(556,1126,cs),
(279,1126,o),
(71,933,o),
(71,602,cs),
(71,502,ls),
(71,172,o),
(277,-24,o),
(556,-24,cs),
(732,-24,o),
(872,58,o),
(918,188,c),
(892,188,l),
(892,-376,l)
);
},
{
closed = 1;
nodes = (
(546,252,o),
(444,328,o),
(444,502,cs),
(444,602,ls),
(444,772,o),
(546,850,o),
(672,850,cs),
(812,850,o),
(898,760,o),
(898,552,cs),
(898,344,o),
(812,252,o),
(672,252,cs)
);
}
);
width = 1386;
},
{
anchors = (
{
name = bottom;
position = "{661, 0}";
},
{
name = top;
position = "{661, 1010}";
}
);
layerId = "2D3E1F4A-4F79-435C-922D-C1502E296E5C";
shapes = (
{
closed = 1;
nodes = (
(1160,-376,l),
(1160,1104,l),
(961,1104,l),
(961,850,l),
(988,850,l),
(940,1024,o),
(788,1124,o),
(591,1124,cs),
(311,1124,o),
(102,938,o),
(102,609,cs),
(102,498,ls),
(102,169,o),
(309,-20,o),
(591,-20,cs),
(787,-20,o),
(938,81,o),
(988,251,c),
(961,251,l),
(961,-376,l)
);
},
{
closed = 1;
nodes = (
(448,138,o),
(305,257,o),
(305,498,cs),
(305,609,ls),
(305,847,o),
(448,965,o),
(634,965,cs),
(835,965,o),
(964,830,o),
(964,553,cs),
(964,277,o),
(835,138,o),
(634,138,cs)
);
}
);
width = 1326;
},
{
anchors = (
{
name = bottom;
position = "{632, 0}";
},
{
name = top;
position = "{632, 1010}";
}
);
layerId = "F480A0F6-CE20-4515-90A8-C409EEC2FB0B";
shapes = (
{
closed = 1;
nodes = (
(1080,-376,l),
(1080,1104,l),
(1012,1104,l),
(1012,806,l),
(1040,806,l),
(990,1010,o),
(830,1122,o),
(618,1122,cs),
(335,1122,o),
(126,941,o),
(126,614,cs),
(126,494,ls),
(126,166,o),
(333,-16,o),
(618,-16,cs),
(830,-16,o),
(990,98,o),
(1042,300,c),
(1014,300,l),
(1014,-376,l)
);
},
{
closed = 1;
nodes = (
(372,50,o),
(196,202,o),
(196,494,cs),
(196,614,ls),
(196,906,o),
(372,1054,o),
(604,1054,cs),
(852,1054,o),
(1016,884,o),
(1016,554,cs),
(1016,224,o),
(852,50,o),
(604,50,cs)
);
}
);
width = 1280;
}
);
leftKerningGroup = o;
rightKerningGroup = q;
unicode = 113;
}
{
color = 11;
glyphname = r;
layers = (
{
anchors = (
{
name = bottom;
position = "{312, 0}";
},
{
name = top;
position = "{534, 1010}";
}
);
layerId = "A6805B89-47EA-471F-88E2-6C6BDB91AD06";
shapes = (
{
closed = 1;
nodes = (
(500,0,l),
(500,572,ls),
(500,718,o),
(576,786,o),
(752,802,cs),
(946,822,l),
(924,1132,l),
(822,1124,ls),
(620,1110,o),
(492,1014,o),
(462,834,c),
(486,834,l),
(486,1104,l),
(124,1104,l),
(124,0,l)
);
}
);
width = 952;
},
{
anchors = (
{
name = bottom;
position = "{260, 0}";
},
{
name = top;
position = "{482, 1010}";
}
);
layerId = "74EDEEDC-441F-4395-93E2-DA3D8F4EBC35";
shapes = (
{
closed = 1;
nodes = (
(366,0,l),
(366,637,ls),
(366,816,o),
(472,921,o),
(678,940,cs),
(804,953,l),
(789,1131,l),
(718,1125,ls),
(512,1110,o),
(382,1025,o),
(334,848,c),
(358,848,l),
(358,1104,l),
(154,1104,l),
(154,0,l)
);
}
);
width = 806;
},
{
anchors = (
{
name = bottom;
position = "{234, 0}";
},
{
name = top;
position = "{456, 1010}";
}
);
layerId = "5CA5D978-5DFF-4019-A5DD-99A0755926E0";
shapes = (
{
closed = 1;
nodes = (
(268,0,l),
(268,694,ls),
(268,902,o),
(400,1040,o),
(634,1062,cs),
(700,1068,l),
(690,1130,l),
(646,1126,ls),
(438,1110,o),
(306,1034,o),
(242,860,c),
(266,860,l),
(266,1104,l),
(202,1104,l),
(202,0,l)
);
}
);
width = 718;
}
);
leftKerningGroup = n;
rightKerningGroup = r;
unicode = 114;
}
{
color = 11;
glyphname = s;
layers = (
{
anchors = (
{
name = bottom;
position = "{560, 0}";
},
{
name = top;
position = "{576, 1010}";
}
);
layerId = "A6805B89-47EA-471F-88E2-6C6BDB91AD06";
shapes = (
{
closed = 1;
nodes = (
(856,-24,o),
(1062,116,o),
(1062,348,cs),
(1062,516,o),
(952,614,o),
(756,650,cs),
(520,688,l),
(448,704,o),
(418,732,o),
(418,774,cs),
(418,836,o),
(470,874,o),
(592,874,cs),
(706,874,o),
(836,838,o),
(936,776,c),
(1034,1008,l),
(930,1088,o),
(774,1126,o),
(596,1126,cs),
(284,1126,o),
(88,968,o),
(88,758,cs),
(88,592,o),
(192,486,o),
(386,452,cs),
(626,412,l),
(696,398,o),
(728,372,o),
(728,324,cs),
(728,262,o),
(672,228,o),
(568,228,cs),
(428,228,o),
(264,272,o),
(154,336,c),
(64,98,l),
(176,20,o),
(352,-24,o),
(560,-24,cs)
);
}
);
width = 1112;
},
{
anchors = (
{
name = bottom;
position = "{547, 0}";
},
{
name = top;
position = "{561, 1010}";
}
);
layerId = "74EDEEDC-441F-4395-93E2-DA3D8F4EBC35";
shapes = (
{
closed = 1;
nodes = (
(813,-20,o),
(992,109,o),
(992,312,cs),
(992,470,o),
(888,563,o),
(692,603,cs),
(483,642,l),
(373,666,o),
(326,718,o),
(326,794,cs),
(326,899,o),
(406,970,o),
(569,970,cs),
(692,970,o),
(809,927,o),
(900,849,c),
(969,988,l),
(881,1076,o),
(737,1124,o),
(571,1124,cs),
(296,1124,o),
(131,977,o),
(131,786,cs),
(131,632,o),
(226,531,o),
(418,492,cs),
(629,452,l),
(746,427,o),
(794,381,o),
(794,302,cs),
(794,197,o),
(708,133,o),
(554,133,cs),
(409,133,o),
(271,176,o),
(166,255,c),
(101,115,l),
(196,31,o),
(360,-20,o),
(548,-20,cs)
);
}
);
width = 1087;
},
{
anchors = (
{
name = bottom;
position = "{540, 0}";
},
{
name = top;
position = "{552, 1010}";
}
);
layerId = "5CA5D978-5DFF-4019-A5DD-99A0755926E0";
shapes = (
{
closed = 1;
nodes = (
(778,-16,o),
(934,102,o),
(934,280,cs),
(934,430,o),
(836,518,o),
(640,562,cs),
(454,602,ls),
(310,632,o),
(248,706,o),
(248,812,cs),
(248,954,o),
(354,1054,o),
(552,1054,cs),
(684,1054,o),
(788,1006,o),
(872,914,c),
(916,970,l),
(842,1066,o),
(708,1122,o),
(552,1122,cs),
(310,1122,o),
(172,984,o),
(172,810,cs),
(172,668,o),
(260,570,o),
(450,528,cs),
(636,488,ls),
(794,452,o),
(856,388,o),
(856,282,cs),
(856,140,o),
(744,50,o),
(546,50,cs),
(396,50,o),
(280,92,o),
(180,184,c),
(138,130,l),
(218,40,o),
(370,-16,o),
(542,-16,cs)
);
}
);
width = 1072;
}
);
leftKerningGroup = s;
rightKerningGroup = s;
unicode = 115;
}
{
color = 11;
glyphname = t;
layers = (
{
anchors = (
{
name = bottom;
position = "{546, 0}";
},
{
name = center;
position = "{436, 574}";
},
{
name = top;
position = "{390, 1378}";
},
{
name = topright;
position = "{670, 1472}";
}
);
layerId = "A06B8506-BBE1-4A28-92E2-491406422708";
shapes = (
{
closed = 1;
nodes = (
(770,-24,o),
(864,-2,o),
(934,32,c),
(884,298,l),
(832,284,o),
(790,274,o),
(748,274,cs),
(628,274,o),
(576,328,o),
(576,440,cs),
(576,832,l),
(896,832,l),
(896,1104,l),
(576,1104,l),
(576,1378,l),
(206,1378,l),
(206,1104,l),
(-6,1104,l),
(-6,832,l),
(206,832,l),
(206,426,ls),
(206,126,o),
(360,-24,o),
(680,-24,cs)
);
}
);
width = 934;
},
{
anchors = (
{
name = bottom;
position = "{484, 0}";
},
{
name = center;
position = "{370, 602}";
},
{
name = top;
position = "{314, 1385}";
},
{
name = topright;
position = "{563, 1472}";
}
);
layerId = "2D3E1F4A-4F79-435C-922D-C1502E296E5C";
shapes = (
{
closed = 1;
nodes = (
(683,-20,o),
(768,0,o),
(814,25,c),
(780,181,l),
(736,167,o),
(689,154,o),
(638,154,cs),
(486,154,o),
(419,235,o),
(419,393,cs),
(419,946,l),
(763,946,l),
(763,1104,l),
(419,1104,l),
(419,1385,l),
(210,1385,l),
(210,1104,l),
(-7,1104,l),
(-7,946,l),
(210,946,l),
(210,376,ls),
(210,118,o),
(345,-20,o),
(605,-20,cs)
);
}
);
width = 788;
},
{
anchors = (
{
name = bottom;
position = "{450, 0}";
},
{
name = center;
position = "{332, 626}";
},
{
name = top;
position = "{268, 1392}";
},
{
name = topright;
position = "{490, 1472}";
}
);
layerId = "F480A0F6-CE20-4515-90A8-C409EEC2FB0B";
shapes = (
{
closed = 1;
nodes = (
(626,-16,o),
(704,2,o),
(728,18,c),
(708,78,l),
(672,64,o),
(620,48,o),
(562,48,cs),
(382,48,o),
(302,152,o),
(302,352,cs),
(302,1046,l),
(666,1046,l),
(666,1104,l),
(302,1104,l),
(302,1392,l),
(234,1392,l),
(234,1104,l),
(12,1104,l),
(12,1046,l),
(234,1046,l),
(234,332,ls),
(234,110,o),
(352,-16,o),
(560,-16,cs)
);
}
);
width = 700;
}
);
leftKerningGroup = t;
rightKerningGroup = t;
unicode = 116;
}
{
color = 11;
glyphname = u;
layers = (
{
anchors = (
{
name = bottom;
position = "{668, 0}";
},
{
name = ogonek;
position = "{1136, 0}";
},
{
name = top;
position = "{668, 1010}";
},
{
name = topright;
position = "{952, 1086}";
}
);
layerId = "A06B8506-BBE1-4A28-92E2-491406422708";
shapes = (
{
closed = 1;
nodes = (
(690,-24,o),
(814,56,o),
(888,194,c),
(856,194,l),
(856,0,l),
(1216,0,l),
(1216,1104,l),
(848,1104,l),
(848,486,ls),
(848,348,o),
(762,262,o),
(642,262,cs),
(544,262,o),
(490,314,o),
(490,448,cs),
(490,1104,l),
(120,1104,l),
(120,440,ls),
(120,126,o),
(248,-24,o),
(522,-24,cs)
);
}
);
width = 1342;
},
{
anchors = (
{
name = bottom;
position = "{634, 0}";
},
{
name = ogonek;
position = "{1077, 0}";
},
{
name = top;
position = "{634, 1011}";
},
{
name = topright;
position = "{947, 1097}";
}
);
layerId = "2D3E1F4A-4F79-435C-922D-C1502E296E5C";
shapes = (
{
closed = 1;
nodes = (
(733,-20,o),
(869,73,o),
(935,232,c),
(907,232,l),
(907,0,l),
(1110,0,l),
(1110,1104,l),
(903,1104,l),
(903,472,ls),
(903,277,o),
(780,149,o),
(599,149,cs),
(442,149,o),
(364,228,o),
(364,427,cs),
(364,1104,l),
(155,1104,l),
(155,419,ls),
(155,115,o),
(290,-20,o),
(549,-20,cs)
);
}
);
width = 1272;
},
{
anchors = (
{
name = bottom;
position = "{616, 0}";
},
{
name = ogonek;
position = "{1036, 0}";
},
{
name = top;
position = "{616, 1012}";
},
{
name = topright;
position = "{954, 1106}";
}
);
layerId = "F480A0F6-CE20-4515-90A8-C409EEC2FB0B";
shapes = (
{
closed = 1;
nodes = (
(782,-16,o),
(928,88,o),
(988,266,c),
(964,266,l),
(964,0,l),
(1028,0,l),
(1028,1104,l),
(962,1104,l),
(962,460,ls),
(962,214,o),
(808,50,o),
(572,50,cs),
(364,50,o),
(264,152,o),
(264,408,cs),
(264,1104,l),
(198,1104,l),
(198,400,ls),
(198,106,o),
(338,-16,o),
(584,-16,cs)
);
}
);
width = 1230;
}
);
leftKerningGroup = u;
rightKerningGroup = u;
unicode = 117;
}
{
color = 11;
glyphname = v;
layers = (
{
anchors = (
{
name = bottom;
position = "{610, 0}";
},
{
name = top;
position = "{610, 1010}";
}
);
layerId = "7B66E43B-35BC-4CDD-B71B-7D56A9572330";
shapes = (
{
closed = 1;
nodes = (
(764,0,l),
(1248,1104,l),
(882,1104,l),
(574,348,l),
(656,348,l),
(356,1104,l),
(-34,1104,l),
(446,0,l)
);
}
);
width = 1210;
},
{
anchors = (
{
name = bottom;
position = "{584, 0}";
},
{
name = top;
position = "{584, 1010}";
}
);
layerId = "FC5D3D8C-AB50-41A9-8405-C9FF1CAE1726";
shapes = (
{
closed = 1;
nodes = (
(679,0,l),
(1154,1104,l),
(939,1104,l),
(554,167,l),
(618,167,l),
(235,1104,l),
(10,1104,l),
(483,0,l)
);
}
);
width = 1161;
},
{
anchors = (
{
name = bottom;
position = "{568, 0}";
},
{
name = top;
position = "{568, 1010}";
}
);
layerId = "EA701F3C-7533-4E12-969A-F8F539424701";
shapes = (
{
closed = 1;
nodes = (
(612,0,l),
(1078,1104,l),
(996,1104,l),
(544,8,l),
(592,8,l),
(136,1104,l),
(56,1104,l),
(524,0,l)
);
}
);
width = 1132;
}
);
leftKerningGroup = v;
rightKerningGroup = v;
unicode = 118;
}
{
color = 11;
glyphname = w;
layers = (
{
anchors = (
{
name = bottom;
position = "{978, 0}";
},
{
name = top;
position = "{978, 1010}";
}
);
layerId = "A06B8506-BBE1-4A28-92E2-491406422708";
shapes = (
{
closed = 1;
nodes = (
(666,0,l),
(898,754,l),
(844,754,l),
(1078,0,l),
(1394,0,l),
(1752,1104,l),
(1374,1104,l),
(1142,346,l),
(1258,346,l),
(1034,1104,l),
(722,1104,l),
(494,346,l),
(590,346,l),
(358,1104,l),
(-20,1104,l),
(338,0,l)
);
}
);
width = 1732;
},
{
anchors = (
{
name = bottom;
position = "{904, 0}";
},
{
name = top;
position = "{904, 1010}";
}
);
layerId = "2D3E1F4A-4F79-435C-922D-C1502E296E5C";
shapes = (
{
closed = 1;
nodes = (
(583,0,l),
(882,922,l),
(828,922,l),
(1128,0,l),
(1310,0,l),
(1663,1104,l),
(1450,1104,l),
(1164,193,l),
(1239,193,l),
(948,1104,l),
(769,1104,l),
(476,193,l),
(539,193,l),
(254,1104,l),
(42,1104,l),
(394,0,l)
);
}
);
width = 1705;
},
{
anchors = (
{
name = bottom;
position = "{842, 0}";
},
{
name = top;
position = "{842, 1010}";
}
);
layerId = "F480A0F6-CE20-4515-90A8-C409EEC2FB0B";
shapes = (
{
closed = 1;
nodes = (
(514,0,l),
(872,1070,l),
(818,1070,l),
(1176,0,l),
(1240,0,l),
(1588,1104,l),
(1520,1104,l),
(1188,58,l),
(1226,58,l),
(876,1104,l),
(814,1104,l),
(464,58,l),
(498,58,l),
(166,1104,l),
(100,1104,l),
(448,0,l)
);
}
);
width = 1688;
}
);
leftKerningGroup = v;
rightKerningGroup = v;
unicode = 119;
}
{
color = 11;
glyphname = x;
layers = (
{
anchors = (
{
name = bottom;
position = "{638, 0}";
},
{
name = top;
position = "{638, 1010}";
}
);
layerId = "7B66E43B-35BC-4CDD-B71B-7D56A9572330";
shapes = (
{
closed = 1;
nodes = (
(388,0,l),
(698,400,l),
(578,400,l),
(884,0,l),
(1318,0,l),
(788,652,l),
(788,486,l),
(1286,1104,l),
(860,1104,l),
(580,732,l),
(700,732,l),
(422,1104,l),
(-12,1104,l),
(488,488,l),
(488,650,l),
(-40,0,l)
);
}
);
width = 1274;
},
{
anchors = (
{
name = bottom;
position = "{593, 0}";
},
{
name = top;
position = "{593, 1010}";
}
);
layerId = "FC5D3D8C-AB50-41A9-8405-C9FF1CAE1726";
shapes = (
{
closed = 1;
nodes = (
(259,0,l),
(627,468,l),
(558,468,l),
(923,0,l),
(1174,0,l),
(679,615,l),
(679,523,l),
(1146,1104,l),
(901,1104,l),
(560,666,l),
(628,666,l),
(291,1104,l),
(41,1104,l),
(510,520,l),
(510,622,l),
(14,0,l)
);
}
);
width = 1184;
},
{
anchors = (
{
name = bottom;
position = "{566, 0}";
},
{
name = top;
position = "{566, 1010}";
}
);
layerId = "EA701F3C-7533-4E12-969A-F8F539424701";
shapes = (
{
closed = 1;
nodes = (
(158,0,l),
(578,528,l),
(554,528,l),
(970,0,l),
(1060,0,l),
(596,582,l),
(596,556,l),
(1036,1104,l),
(950,1104,l),
(556,608,l),
(578,608,l),
(188,1104,l),
(100,1104,l),
(542,548,l),
(542,598,l),
(74,0,l)
);
}
);
width = 1130;
}
);
leftKerningGroup = x;
rightKerningGroup = x;
unicode = 120;
}
{
color = 11;
glyphname = y;
layers = (
{
anchors = (
{
name = bottom;
position = "{964, 0}";
},
{
name = top;
position = "{606, 1010}";
}
);
layerId = "7B66E43B-35BC-4CDD-B71B-7D56A9572330";
shapes = (
{
closed = 1;
nodes = (
(666,326,l),
(328,1104,l),
(-36,1104,l),
(460,-38,l)
);
},
{
closed = 1;
nodes = (
(402,10,ls),
(362,-82,o),
(328,-120,o),
(232,-130,cs),
(118,-142,l),
(144,-402,l),
(246,-396,ls),
(622,-374,o),
(660,-238,o),
(792,64,c),
(1250,1104,l),
(884,1104,l)
);
}
);
width = 1208;
},
{
anchors = (
{
name = bottom;
position = "{888, 0}";
},
{
name = top;
position = "{582, 1010}";
}
);
layerId = "FC5D3D8C-AB50-41A9-8405-C9FF1CAE1726";
shapes = (
{
closed = 1;
nodes = (
(627,149,l),
(218,1104,l),
(9,1104,l),
(504,-51,l)
);
},
{
closed = 1;
nodes = (
(460,-22,ls),
(403,-155,o),
(360,-227,o),
(229,-237,cs),
(127,-246,l),
(142,-402,l),
(241,-396,ls),
(517,-379,o),
(573,-249,o),
(681,3,cs),
(1156,1104,l),
(945,1104,l)
);
}
);
width = 1161;
},
{
anchors = (
{
name = bottom;
position = "{828, 0}";
},
{
name = top;
position = "{568, 1010}";
}
);
layerId = "EA701F3C-7533-4E12-969A-F8F539424701";
shapes = (
{
closed = 1;
nodes = (
(600,-8,l),
(128,1104,l),
(56,1104,l),
(550,-62,l)
);
},
{
closed = 1;
nodes = (
(518,-50,ls),
(446,-220,o),
(396,-322,o),
(234,-332,cs),
(142,-338,l),
(148,-402,l),
(244,-396,ls),
(432,-384,o),
(504,-258,o),
(590,-50,c),
(1080,1104,l),
(1006,1104,l)
);
}
);
width = 1132;
}
);
leftKerningGroup = v;
rightKerningGroup = v;
unicode = 121;
}
{
color = 11;
glyphname = z;
layers = (
{
anchors = (
{
name = bottom;
position = "{556, 0}";
},
{
name = top;
position = "{556, 1010}";
}
);
layerId = "B0FE6CA3-3B5A-43B9-ADCC-06CF5CDDB79F";
shapes = (
{
closed = 1;
nodes = (
(1036,0,l),
(1036,272,l),
(420,272,l),
(424,176,l),
(1012,862,l),
(1012,1104,l),
(98,1104,l),
(98,832,l),
(680,832,l),
(678,922,l),
(98,240,l),
(98,0,l)
);
}
);
width = 1088;
},
{
anchors = (
{
name = bottom;
position = "{539, 0}";
},
{
name = top;
position = "{539, 1010}";
}
);
layerId = "FE1B4F78-E1AE-46DB-B09E-A4EC5EE567EB";
shapes = (
{
closed = 1;
nodes = (
(985,0,l),
(985,159,l),
(302,159,l),
(304,101,l),
(960,966,l),
(960,1104,l),
(116,1104,l),
(116,946,l),
(769,946,l),
(770,1002,l),
(116,138,l),
(116,0,l)
);
}
);
width = 1046;
},
{
anchors = (
{
name = bottom;
position = "{530, 0}";
},
{
name = top;
position = "{530, 1010}";
}
);
layerId = "958021ED-7CC5-4835-9393-1BA2EA52DC8F";
shapes = (
{
closed = 1;
nodes = (
(946,0,l),
(946,60,l),
(204,60,l),
(204,34,l),
(920,1058,l),
(920,1104,l),
(138,1104,l),
(138,1046,l),
(854,1046,l),
(856,1072,l),
(138,48,l),
(138,0,l)
);
}
);
width = 1020;
}
);
leftKerningGroup = z;
rightKerningGroup = z;
unicode = 122;
}
{
color = 11;
glyphname = braceleft;
layers = (
{
layerId = "7B66E43B-35BC-4CDD-B71B-7D56A9572330";
shapes = (
{
closed = 1;
nodes = (
(846,-188,l),
(846,78,l),
(724,78,ls),
(666,78,o),
(640,104,o),
(640,170,cs),
(640,482,ls),
(640,616,o),
(542,738,o),
(432,738,c),
(432,728,l),
(542,728,o),
(640,852,o),
(640,988,cs),
(640,1302,ls),
(640,1368,o),
(666,1394,o),
(724,1394,cs),
(846,1394,l),
(846,1660,l),
(572,1660,ls),
(388,1660,o),
(278,1548,o),
(278,1362,cs),
(278,1030,ls),
(278,920,o),
(250,880,o),
(170,872,cs),
(72,862,l),
(72,604,l),
(170,596,ls),
(250,590,o),
(278,548,o),
(278,438,cs),
(278,110,ls),
(278,-76,o),
(388,-188,o),
(572,-188,cs)
);
}
);
width = 880;
},
{
layerId = "FC5D3D8C-AB50-41A9-8405-C9FF1CAE1726";
shapes = (
{
closed = 1;
nodes = (
(712,-188,l),
(712,-29,l),
(572,-29,ls),
(513,-29,o),
(484,-1,o),
(484,65,cs),
(484,510,ls),
(484,638,o),
(401,740,o),
(297,740,c),
(297,730,l),
(401,730,o),
(484,833,o),
(484,963,cs),
(484,1407,ls),
(484,1473,o),
(513,1502,o),
(572,1502,cs),
(712,1502,l),
(712,1660,l),
(499,1660,ls),
(359,1660,o),
(278,1577,o),
(278,1430,cs),
(278,983,ls),
(278,869,o),
(242,825,o),
(146,817,cs),
(81,811,l),
(81,659,l),
(146,654,ls),
(242,648,o),
(278,603,o),
(278,489,cs),
(278,42,ls),
(278,-105,o),
(359,-188,o),
(499,-188,cs)
);
}
);
width = 720;
},
{
layerId = "EA701F3C-7533-4E12-969A-F8F539424701";
shapes = (
{
closed = 1;
nodes = (
(616,-188,l),
(616,-124,l),
(460,-124,ls),
(400,-124,o),
(368,-94,o),
(368,-28,cs),
(368,534,ls),
(368,658,o),
(300,742,o),
(200,742,c),
(200,732,l),
(300,732,o),
(368,816,o),
(368,940,cs),
(368,1500,ls),
(368,1566,o),
(400,1598,o),
(460,1598,cs),
(616,1598,l),
(616,1660,l),
(458,1660,ls),
(356,1660,o),
(300,1602,o),
(300,1490,cs),
(300,942,ls),
(300,824,o),
(258,776,o),
(148,768,cs),
(112,766,l),
(112,708,l),
(148,706,ls),
(258,700,o),
(300,652,o),
(300,534,cs),
(300,-18,ls),
(300,-130,o),
(356,-188,o),
(458,-188,cs)
);
}
);
width = 624;
}
);
leftKerningGroup = hyphen;
rightKerningGroup = braceleft;
unicode = 123;
}
{
color = 11;
glyphname = bar;
layers = (
{
layerId = "B0FE6CA3-3B5A-43B9-ADCC-06CF5CDDB79F";
shapes = (
{
closed = 1;
nodes = (
(500,-188,l),
(500,1660,l),
(138,1660,l),
(138,-188,l)
);
}
);
width = 638;
},
{
layerId = "FE1B4F78-E1AE-46DB-B09E-A4EC5EE567EB";
shapes = (
{
closed = 1;
nodes = (
(374,-188,l),
(374,1660,l),
(168,1660,l),
(168,-188,l)
);
}
);
width = 542;
},
{
layerId = "958021ED-7CC5-4835-9393-1BA2EA52DC8F";
shapes = (
{
closed = 1;
nodes = (
(276,-188,l),
(276,1660,l),
(208,1660,l),
(208,-188,l)
);
}
);
width = 484;
}
);
leftKerningGroup = H;
rightKerningGroup = H;
unicode = 124;
}
{
color = 11;
glyphname = braceright;
layers = (
{
layerId = "A06B8506-BBE1-4A28-92E2-491406422708";
shapes = (
{
closed = 1;
nodes = (
(306,-188,ls),
(492,-188,o),
(600,-78,o),
(600,110,cs),
(600,438,ls),
(600,546,o),
(632,588,o),
(712,596,cs),
(806,604,l),
(806,862,l),
(712,872,ls),
(632,882,o),
(600,922,o),
(600,1030,cs),
(600,1362,ls),
(600,1550,o),
(492,1660,o),
(306,1660,cs),
(36,1660,l),
(36,1394,l),
(158,1394,ls),
(216,1394,o),
(240,1368,o),
(240,1302,cs),
(240,988,ls),
(240,852,o),
(340,728,o),
(450,728,c),
(450,738,l),
(340,738,o),
(240,616,o),
(240,482,cs),
(240,170,ls),
(240,104,o),
(216,78,o),
(158,78,cs),
(36,78,l),
(36,-188,l)
);
}
);
width = 880;
},
{
layerId = "2D3E1F4A-4F79-435C-922D-C1502E296E5C";
shapes = (
{
closed = 1;
nodes = (
(221,-188,ls),
(362,-188,o),
(441,-105,o),
(441,42,cs),
(441,489,ls),
(441,603,o),
(479,649,o),
(576,654,c),
(638,659,l),
(638,811,l),
(576,817,ls),
(479,826,o),
(441,869,o),
(441,983,cs),
(441,1430,ls),
(441,1577,o),
(362,1660,o),
(221,1660,cs),
(10,1660,l),
(10,1502,l),
(150,1502,ls),
(209,1502,o),
(238,1473,o),
(238,1407,cs),
(238,963,ls),
(238,833,o),
(320,730,o),
(425,730,c),
(425,740,l),
(320,740,o),
(238,638,o),
(238,510,cs),
(238,65,ls),
(238,-1,o),
(209,-29,o),
(150,-29,cs),
(10,-29,l),
(10,-188,l)
);
}
);
width = 720;
},
{
layerId = "F480A0F6-CE20-4515-90A8-C409EEC2FB0B";
shapes = (
{
closed = 1;
nodes = (
(168,-188,ls),
(270,-188,o),
(324,-128,o),
(324,-18,cs),
(324,534,ls),
(324,654,o),
(366,702,o),
(478,706,cs),
(512,708,l),
(512,766,l),
(478,768,ls),
(366,776,o),
(324,822,o),
(324,942,cs),
(324,1490,ls),
(324,1600,o),
(270,1660,o),
(168,1660,cs),
(10,1660,l),
(10,1598,l),
(166,1598,ls),
(226,1598,o),
(258,1566,o),
(258,1500,cs),
(258,940,ls),
(258,816,o),
(324,732,o),
(426,732,c),
(426,742,l),
(324,742,o),
(258,658,o),
(258,534,cs),
(258,-28,ls),
(258,-94,o),
(226,-124,o),
(166,-124,cs),
(10,-124,l),
(10,-188,l)
);
}
);
width = 624;
}
);
leftKerningGroup = braceright;
rightKerningGroup = hyphen;
unicode = 125;
}
{
color = 11;
glyphname = asciitilde;
layers = (
{
layerId = "7B66E43B-35BC-4CDD-B71B-7D56A9572330";
shapes = (
{
closed = 1;
nodes = (
(934,554,o),
(1056,650,o),
(1096,786,c),
(918,904,l),
(894,822,o),
(848,784,o),
(786,784,cs),
(746,784,o),
(688,810,o),
(616,850,cs),
(528,900,o),
(456,918,o),
(392,918,cs),
(262,918,o),
(144,826,o),
(104,688,c),
(280,572,l),
(306,652,o),
(352,692,o),
(412,692,cs),
(458,692,o),
(512,664,o),
(588,626,c),
(684,570,o),
(744,554,o),
(808,554,cs)
);
}
);
width = 1200;
},
{
layerId = "FC5D3D8C-AB50-41A9-8405-C9FF1CAE1726";
shapes = (
{
closed = 1;
nodes = (
(946,583,o),
(1046,661,o),
(1096,793,c),
(978,863,l),
(946,774,o),
(888,729,o),
(813,729,cs),
(760,729,o),
(701,760,o),
(616,810,cs),
(516,868,o),
(445,889,o),
(376,889,cs),
(254,889,o),
(154,813,o),
(104,681,c),
(222,613,l),
(256,702,o),
(311,747,o),
(385,747,cs),
(437,747,o),
(490,720,o),
(581,670,c),
(685,606,o),
(757,583,o),
(825,583,cs)
);
}
);
width = 1200;
},
{
layerId = "EA701F3C-7533-4E12-969A-F8F539424701";
shapes = (
{
closed = 1;
nodes = (
(956,608,o),
(1038,670,o),
(1096,800,c),
(1030,826,l),
(992,732,o),
(924,680,o),
(836,680,cs),
(772,680,o),
(712,716,o),
(616,774,cs),
(506,840,o),
(436,864,o),
(362,864,cs),
(246,864,o),
(162,802,o),
(104,674,c),
(170,650,l),
(212,746,o),
(274,796,o),
(362,796,cs),
(418,796,o),
(470,770,o),
(574,708,cs),
(686,638,o),
(768,608,o),
(840,608,cs)
);
}
);
width = 1200;
}
);
unicode = 126;
}
{
color = 11;
glyphname = exclamdown;
layers = (
{
layerId = "A06B8506-BBE1-4A28-92E2-491406422708";
shapes = (
{
closed = 1;
nodes = (
(496,-376,l),
(384,632,l),
(166,632,l),
(54,-376,l)
);
},
{
closed = 1;
nodes = (
(460,750,l),
(460,1122,l),
(86,1122,l),
(86,750,l)
);
}
);
width = 550;
},
{
layerId = "2D3E1F4A-4F79-435C-922D-C1502E296E5C";
shapes = (
{
closed = 1;
nodes = (
(361,-376,l),
(297,710,l),
(171,710,l),
(108,-376,l)
);
},
{
closed = 1;
nodes = (
(353,870,l),
(353,1111,l),
(113,1111,l),
(113,870,l)
);
}
);
width = 468;
},
{
layerId = "F480A0F6-CE20-4515-90A8-C409EEC2FB0B";
shapes = (
{
closed = 1;
nodes = (
(254,-376,l),
(232,778,l),
(186,778,l),
(166,-376,l)
);
},
{
closed = 1;
nodes = (
(270,976,l),
(270,1102,l),
(148,1102,l),
(148,976,l)
);
}
);
width = 418;
}
);
leftKerningGroup = exclamdown;
rightKerningGroup = exclamdown;
unicode = 161;
}
{
color = 11;
glyphname = cent;
layers = (
{
layerId = "B0FE6CA3-3B5A-43B9-ADCC-06CF5CDDB79F";
shapes = (
{
closed = 1;
nodes = (
(797,-240,l),
(797,52,l),
(737,-20,l),
(879,-16,o),
(1019,32,o),
(1107,106,c),
(1009,348,l),
(939,292,o),
(851,262,o),
(777,262,cs),
(625,262,o),
(541,360,o),
(541,562,cs),
(541,766,o),
(623,862,o),
(777,862,cs),
(855,862,o),
(939,832,o),
(1009,776,c),
(1107,1018,l),
(1019,1096,o),
(875,1136,o),
(739,1140,c),
(797,1060,l),
(797,1362,l),
(517,1362,l),
(517,1036,l),
(585,1120,l),
(327,1072,o),
(169,856,o),
(169,560,cs),
(169,260,o),
(321,54,o),
(587,-4,c),
(517,74,l),
(517,-240,l)
);
}
);
width = 1254;
},
{
layerId = "FE1B4F78-E1AE-46DB-B09E-A4EC5EE567EB";
shapes = (
{
closed = 1;
nodes = (
(742,-252,l),
(742,32,l),
(702,-18,l),
(831,-15,o),
(969,36,o),
(1048,120,c),
(981,262,l),
(906,186,o),
(812,152,o),
(716,152,cs),
(524,152,o),
(412,294,o),
(412,557,cs),
(412,815,o),
(522,962,o),
(718,962,cs),
(814,962,o),
(906,929,o),
(982,849,c),
(1048,994,l),
(967,1081,o),
(831,1126,o),
(704,1128,c),
(742,1065,l),
(742,1359,l),
(573,1359,l),
(573,1055,l),
(614,1120,l),
(361,1087,o),
(202,872,o),
(202,557,cs),
(202,239,o),
(361,21,o),
(616,-9,c),
(573,40,l),
(573,-252,l)
);
}
);
width = 1254;
},
{
layerId = "958021ED-7CC5-4835-9393-1BA2EA52DC8F";
shapes = (
{
closed = 1;
nodes = (
(693,-262,l),
(693,14,l),
(671,-16,l),
(789,-14,o),
(925,40,o),
(995,132,c),
(957,186,l),
(877,92,o),
(777,54,o),
(663,54,cs),
(435,54,o),
(299,236,o),
(299,552,cs),
(299,858,o),
(433,1050,o),
(665,1050,cs),
(777,1050,o),
(877,1014,o),
(959,914,c),
(995,972,l),
(921,1068,o),
(793,1118,o),
(673,1118,c),
(693,1070,l),
(693,1356,l),
(623,1356,l),
(623,1072,l),
(639,1120,l),
(391,1100,o),
(231,886,o),
(231,554,cs),
(231,220,o),
(397,-8,o),
(641,-14,c),
(623,10,l),
(623,-262,l)
);
}
);
width = 1254;
}
);
unicode = 162;
}
{
color = 11;
glyphname = sterling;
layers = (
{
layerId = "A6805B89-47EA-471F-88E2-6C6BDB91AD06";
shapes = (
{
closed = 1;
nodes = (
(1163,0,l),
(1163,296,l),
(607,296,l),
(607,632,l),
(901,632,l),
(901,842,l),
(607,842,l),
(607,1030,ls),
(607,1138,o),
(655,1208,o),
(789,1208,cs),
(873,1208,o),
(971,1180,o),
(1075,1100,c),
(1195,1360,l),
(1087,1446,o),
(923,1496,o),
(757,1496,cs),
(403,1496,o),
(235,1300,o),
(235,1014,cs),
(235,842,l),
(103,842,l),
(103,632,l),
(235,632,l),
(235,296,l),
(103,296,l),
(103,0,l)
);
}
);
width = 1254;
},
{
layerId = "74EDEEDC-441F-4395-93E2-DA3D8F4EBC35";
shapes = (
{
closed = 1;
nodes = (
(1134,0,l),
(1134,174,l),
(509,174,l),
(509,671,l),
(852,671,l),
(852,802,l),
(509,802,l),
(509,1070,ls),
(509,1234,o),
(587,1321,o),
(756,1321,cs),
(878,1321,o),
(994,1279,o),
(1085,1183,c),
(1162,1339,l),
(1062,1436,o),
(904,1492,o),
(750,1492,cs),
(448,1492,o),
(299,1332,o),
(299,1062,cs),
(299,802,l),
(117,802,l),
(117,671,l),
(299,671,l),
(299,174,l),
(117,174,l),
(117,0,l)
);
}
);
width = 1254;
},
{
layerId = "5CA5D978-5DFF-4019-A5DD-99A0755926E0";
shapes = (
{
closed = 1;
nodes = (
(1109,0,l),
(1109,66,l),
(423,66,l),
(423,706,l),
(809,706,l),
(809,766,l),
(423,766,l),
(423,1106,ls),
(423,1318,o),
(527,1420,o),
(727,1420,cs),
(883,1420,o),
(1015,1366,o),
(1093,1256,c),
(1133,1320,l),
(1039,1428,o),
(887,1488,o),
(743,1488,cs),
(487,1488,o),
(355,1360,o),
(355,1104,cs),
(355,766,l),
(129,766,l),
(129,706,l),
(355,706,l),
(355,66,l),
(129,66,l),
(129,0,l)
);
}
);
width = 1254;
}
);
unicode = 163;
}
{
color = 11;
glyphname = currency;
layers = (
{
layerId = "B0FE6CA3-3B5A-43B9-ADCC-06CF5CDDB79F";
shapes = (
{
closed = 1;
nodes = (
(343,98,l),
(423,44,o),
(517,12,o),
(621,12,cs),
(727,12,o),
(825,44,o),
(907,100,c),
(1055,-54,l),
(1175,64,l),
(1025,220,l),
(1079,302,o),
(1113,406,o),
(1113,512,cs),
(1113,616,o),
(1081,716,o),
(1025,800,c),
(1179,954,l),
(1049,1080,l),
(897,926,l),
(821,982,o),
(723,1010,o),
(621,1010,cs),
(519,1010,o),
(425,980,o),
(345,924,c),
(195,1076,l),
(75,956,l),
(221,804,l),
(161,720,o),
(125,622,o),
(125,512,cs),
(125,400,o),
(161,300,o),
(221,218,c),
(75,64,l),
(195,-54,l)
);
},
{
closed = 1;
nodes = (
(497,286,o),
(405,388,o),
(405,510,cs),
(405,634,o),
(501,738,o),
(623,736,cs),
(739,734,o),
(839,634,o),
(839,512,cs),
(839,388,o),
(739,286,o),
(623,286,cs)
);
}
);
width = 1254;
},
{
layerId = "FE1B4F78-E1AE-46DB-B09E-A4EC5EE567EB";
shapes = (
{
closed = 1;
nodes = (
(330,112,l),
(412,49,o),
(514,12,o),
(625,12,cs),
(737,12,o),
(839,49,o),
(921,112,c),
(1069,-40,l),
(1161,50,l),
(1011,204,l),
(1075,289,o),
(1113,396,o),
(1113,512,cs),
(1113,626,o),
(1076,731,o),
(1011,817,c),
(1163,969,l),
(1066,1063,l),
(918,910,l),
(837,975,o),
(735,1009,o),
(625,1009,cs),
(515,1009,o),
(412,973,o),
(331,907,c),
(181,1062,l),
(90,970,l),
(238,817,l),
(174,732,o),
(136,625,o),
(136,511,cs),
(136,395,o),
(175,289,o),
(238,205,c),
(90,50,l),
(181,-40,l)
);
},
{
closed = 1;
nodes = (
(448,179,o),
(309,327,o),
(309,510,cs),
(309,694,o),
(450,842,o),
(625,842,c),
(800,841,o),
(941,695,o),
(941,512,cs),
(941,327,o),
(800,180,o),
(625,180,c)
);
}
);
width = 1254;
},
{
layerId = "958021ED-7CC5-4835-9393-1BA2EA52DC8F";
shapes = (
{
closed = 1;
nodes = (
(319,124,l),
(403,54,o),
(511,12,o),
(629,12,cs),
(745,12,o),
(851,54,o),
(933,122,c),
(1081,-28,l),
(1149,38,l),
(999,190,l),
(1071,278,o),
(1113,388,o),
(1113,512,cs),
(1113,634,o),
(1071,744,o),
(999,832,c),
(1149,982,l),
(1081,1048,l),
(937,896,l),
(851,968,o),
(745,1008,o),
(629,1008,cs),
(511,1008,o),
(401,966,o),
(319,892,c),
(169,1050,l),
(103,982,l),
(253,828,l),
(185,742,o),
(145,628,o),
(145,510,cs),
(145,390,o),
(187,280,o),
(253,194,c),
(103,38,l),
(169,-28,l)
);
},
{
closed = 1;
nodes = (
(405,84,o),
(225,274,o),
(225,510,cs),
(225,746,o),
(405,934,o),
(627,936,c),
(853,936,o),
(1031,748,o),
(1031,512,cs),
(1031,274,o),
(853,86,o),
(627,86,c)
);
}
);
width = 1254;
}
);
unicode = 164;
}
{
color = 11;
glyphname = yen;
layers = (
{
layerId = "A6805B89-47EA-471F-88E2-6C6BDB91AD06";
shapes = (
{
closed = 1;
nodes = (
(813,0,l),
(813,324,l),
(1097,324,l),
(1097,518,l),
(813,518,l),
(813,650,l),
(1097,650,l),
(1097,850,l),
(867,850,l),
(867,808,l),
(1283,1472,l),
(887,1472,l),
(589,948,l),
(663,948,l),
(363,1472,l),
(-31,1472,l),
(383,808,l),
(383,850,l),
(155,850,l),
(155,650,l),
(439,650,l),
(439,518,l),
(155,518,l),
(155,324,l),
(439,324,l),
(439,0,l)
);
}
);
width = 1254;
},
{
layerId = "74EDEEDC-441F-4395-93E2-DA3D8F4EBC35";
shapes = (
{
closed = 1;
nodes = (
(732,0,l),
(732,365,l),
(1083,365,l),
(1083,490,l),
(732,490,l),
(732,684,l),
(1083,684,l),
(1083,811,l),
(784,811,l),
(784,786,l),
(1244,1472,l),
(1016,1472,l),
(603,838,l),
(652,838,l),
(237,1472,l),
(9,1472,l),
(469,786,l),
(469,811,l),
(169,811,l),
(169,684,l),
(521,684,l),
(521,490,l),
(169,490,l),
(169,365,l),
(521,365,l),
(521,0,l)
);
}
);
width = 1254;
},
{
layerId = "5CA5D978-5DFF-4019-A5DD-99A0755926E0";
shapes = (
{
closed = 1;
nodes = (
(661,0,l),
(661,402,l),
(1071,402,l),
(1071,466,l),
(661,466,l),
(661,714,l),
(1071,714,l),
(1071,776,l),
(711,776,l),
(711,766,l),
(1209,1472,l),
(1129,1472,l),
(615,740,l),
(643,740,l),
(125,1472,l),
(45,1472,l),
(545,766,l),
(545,776,l),
(181,776,l),
(181,714,l),
(593,714,l),
(593,466,l),
(181,466,l),
(181,402,l),
(593,402,l),
(593,0,l)
);
}
);
width = 1254;
}
);
unicode = 165;
}
{
color = 11;
glyphname = brokenbar;
layers = (
{
layerId = "7B66E43B-35BC-4CDD-B71B-7D56A9572330";
shapes = (
{
closed = 1;
nodes = (
(500,962,l),
(500,1660,l),
(138,1660,l),
(138,962,l)
);
},
{
closed = 1;
nodes = (
(500,-188,l),
(500,510,l),
(138,510,l),
(138,-188,l)
);
}
);
width = 638;
},
{
layerId = "FC5D3D8C-AB50-41A9-8405-C9FF1CAE1726";
shapes = (
{
closed = 1;
nodes = (
(374,963,l),
(374,1660,l),
(168,1660,l),
(168,963,l)
);
},
{
closed = 1;
nodes = (
(374,-188,l),
(374,509,l),
(168,509,l),
(168,-188,l)
);
}
);
width = 542;
},
{
layerId = "EA701F3C-7533-4E12-969A-F8F539424701";
shapes = (
{
closed = 1;
nodes = (
(276,964,l),
(276,1660,l),
(208,1660,l),
(208,964,l)
);
},
{
closed = 1;
nodes = (
(276,-188,l),
(276,508,l),
(208,508,l),
(208,-188,l)
);
}
);
width = 484;
}
);
leftKerningGroup = H;
rightKerningGroup = H;
unicode = 166;
}
{
color = 11;
glyphname = section;
layers = (
{
layerId = "A06B8506-BBE1-4A28-92E2-491406422708";
shapes = (
{
closed = 1;
nodes = (
(870,-212,o),
(1064,-62,o),
(1064,184,cs),
(1064,278,o),
(1026,364,o),
(956,428,c),
(930,332,l),
(1078,420,o),
(1146,536,o),
(1146,684,cs),
(1146,840,o),
(1056,958,o),
(878,1042,cs),
(590,1176,ls),
(514,1212,o),
(478,1252,o),
(478,1312,cs),
(478,1394,o),
(536,1438,o),
(640,1438,cs),
(748,1438,o),
(882,1402,o),
(978,1346,c),
(1066,1572,l),
(970,1644,o),
(820,1684,o),
(638,1684,cs),
(328,1684,o),
(136,1530,o),
(136,1286,cs),
(136,1192,o),
(174,1110,o),
(244,1044,c),
(270,1140,l),
(126,1052,o),
(56,938,o),
(56,788,cs),
(56,632,o),
(146,512,o),
(322,430,cs),
(612,296,ls),
(690,258,o),
(724,216,o),
(724,160,cs),
(724,78,o),
(664,32,o),
(560,32,cs),
(434,32,o),
(278,86,o),
(190,146,c),
(100,-94,l),
(206,-164,o),
(374,-212,o),
(562,-212,cs)
);
},
{
closed = 1;
nodes = (
(370,904,o),
(384,946,o),
(418,994,c),
(338,980,l),
(364,956,o),
(408,928,o),
(440,912,cs),
(692,794,ls),
(786,750,o),
(830,690,o),
(830,612,cs),
(830,568,o),
(816,524,o),
(782,478,c),
(862,490,l),
(836,516,o),
(794,542,o),
(762,560,c),
(510,678,ls),
(416,722,o),
(370,782,o),
(370,860,cs)
);
}
);
width = 1200;
},
{
layerId = "2D3E1F4A-4F79-435C-922D-C1502E296E5C";
shapes = (
{
closed = 1;
nodes = (
(765,-208,o),
(946,-65,o),
(946,170,cs),
(946,257,o),
(919,324,o),
(879,369,c),
(863,311,l),
(966,382,o),
(1026,496,o),
(1026,619,cs),
(1026,772,o),
(950,878,o),
(749,978,cs),
(516,1092,ls),
(399,1148,o),
(351,1213,o),
(351,1314,cs),
(351,1451,o),
(446,1527,o),
(586,1527,cs),
(704,1527,o),
(833,1486,o),
(917,1418,c),
(978,1556,l),
(893,1634,o),
(753,1680,o),
(590,1680,cs),
(331,1680,o),
(151,1535,o),
(151,1302,cs),
(151,1215,o),
(179,1150,o),
(219,1105,c),
(235,1162,l),
(133,1091,o),
(71,978,o),
(71,854,cs),
(71,700,o),
(150,593,o),
(349,495,cs),
(584,382,l),
(703,322,o),
(748,255,o),
(748,159,cs),
(748,22,o),
(652,-57,o),
(504,-57,cs),
(377,-57,o),
(237,-9,o),
(155,63,c),
(93,-81,l),
(184,-159,o),
(332,-208,o),
(502,-208,cs)
);
},
{
closed = 1;
nodes = (
(256,956,o),
(279,1014,o),
(327,1065,c),
(269,1060,l),
(304,1013,o),
(365,965,o),
(447,924,cs),
(647,827,ls),
(792,754,o),
(842,683,o),
(842,584,cs),
(842,517,o),
(818,458,o),
(771,409,c),
(829,412,l),
(793,460,o),
(733,507,o),
(652,549,c),
(451,646,ls),
(306,718,o),
(256,789,o),
(256,889,cs)
);
}
);
width = 1099;
},
{
layerId = "F480A0F6-CE20-4515-90A8-C409EEC2FB0B";
shapes = (
{
closed = 1;
nodes = (
(688,-204,o),
(856,-68,o),
(856,158,cs),
(856,238,o),
(840,288,o),
(826,316,c),
(818,292,l),
(882,348,o),
(936,460,o),
(936,562,cs),
(936,712,o),
(872,808,o),
(650,922,cs),
(466,1018,l),
(312,1092,o),
(254,1178,o),
(254,1316,cs),
(254,1502,o),
(382,1606,o),
(554,1606,cs),
(680,1606,o),
(804,1560,o),
(878,1482,c),
(916,1542,l),
(840,1626,o),
(708,1676,o),
(562,1676,cs),
(348,1676,o),
(180,1540,o),
(180,1316,cs),
(180,1236,o),
(198,1186,o),
(212,1158,c),
(220,1182,l),
(154,1126,o),
(100,1014,o),
(100,912,cs),
(100,760,o),
(168,664,o),
(388,552,cs),
(574,458,ls),
(730,378,o),
(784,290,o),
(784,158,cs),
(784,-28,o),
(656,-136,o),
(470,-136,cs),
(342,-136,o),
(216,-92,o),
(140,-10,c),
(102,-70,l),
(180,-154,o),
(310,-204,o),
(464,-204,cs)
);
},
{
closed = 1;
nodes = (
(170,1002,o),
(202,1074,o),
(262,1128,c),
(224,1130,l),
(266,1064,o),
(342,998,o),
(468,934,cs),
(622,856,ls),
(812,758,o),
(868,676,o),
(868,560,cs),
(868,472,o),
(834,400,o),
(776,348,c),
(814,344,l),
(770,410,o),
(694,476,o),
(570,540,cs),
(414,618,ls),
(224,714,o),
(170,796,o),
(170,914,cs)
);
}
);
width = 1038;
}
);
leftKerningGroup = section;
rightKerningGroup = section;
unicode = 167;
}
{
color = 11;
glyphname = copyright;
layers = (
{
layerId = "A6805B89-47EA-471F-88E2-6C6BDB91AD06";
shapes = (
{
closed = 1;
nodes = (
(1230,-24,o),
(1540,300,o),
(1540,738,cs),
(1540,1174,o),
(1230,1496,o),
(814,1496,cs),
(398,1496,o),
(88,1172,o),
(88,738,cs),
(88,300,o),
(396,-24,o),
(814,-24,cs)
);
},
{
closed = 1;
nodes = (
(964,286,o),
(1084,320,o),
(1152,376,c),
(1072,578,l),
(1026,540,o),
(962,514,o),
(892,514,cs),
(774,514,o),
(706,590,o),
(706,734,cs),
(706,880,o),
(774,958,o),
(892,958,cs),
(962,958,o),
(1024,932,o),
(1072,894,c),
(1152,1096,l),
(1084,1152,o),
(966,1186,o),
(856,1186,cs),
(582,1186,o),
(410,1018,o),
(410,734,cs),
(410,454,o),
(582,286,o),
(856,286,cs)
);
},
{
closed = 1;
nodes = (
(468,106,o),
(228,370,o),
(228,738,cs),
(228,1102,o),
(468,1366,o),
(814,1366,cs),
(1158,1366,o),
(1400,1104,o),
(1400,738,cs),
(1400,370,o),
(1158,106,o),
(814,106,cs)
);
}
);
width = 1626;
},
{
layerId = "74EDEEDC-441F-4395-93E2-DA3D8F4EBC35";
shapes = (
{
closed = 1;
nodes = (
(1228,-20,o),
(1536,303,o),
(1536,738,cs),
(1536,1172,o),
(1228,1492,o),
(814,1492,cs),
(400,1492,o),
(92,1171,o),
(92,738,cs),
(92,303,o),
(399,-20,o),
(814,-20,cs)
);
},
{
closed = 1;
nodes = (
(949,286,o),
(1063,325,o),
(1131,390,c),
(1074,514,l),
(1012,457,o),
(935,429,o),
(857,429,cs),
(693,429,o),
(600,541,o),
(600,737,cs),
(600,936,o),
(694,1043,o),
(857,1043,cs),
(935,1043,o),
(1010,1016,o),
(1074,958,c),
(1131,1081,l),
(1063,1147,o),
(952,1186,o),
(841,1186,cs),
(581,1186,o),
(424,1019,o),
(424,738,cs),
(424,459,o),
(581,286,o),
(841,286,cs)
);
},
{
closed = 1;
nodes = (
(456,79,o),
(196,356,o),
(196,738,cs),
(196,1116,o),
(456,1393,o),
(814,1393,cs),
(1171,1393,o),
(1432,1118,o),
(1432,738,cs),
(1432,356,o),
(1171,79,o),
(814,79,cs)
);
}
);
width = 1627;
},
{
layerId = "5CA5D978-5DFF-4019-A5DD-99A0755926E0";
shapes = (
{
closed = 1;
nodes = (
(1226,-16,o),
(1532,306,o),
(1532,738,cs),
(1532,1170,o),
(1226,1488,o),
(814,1488,cs),
(402,1488,o),
(96,1170,o),
(96,738,cs),
(96,306,o),
(402,-16,o),
(814,-16,cs)
);
},
{
closed = 1;
nodes = (
(936,286,o),
(1044,330,o),
(1112,402,c),
(1076,458,l),
(1000,384,o),
(912,354,o),
(826,354,cs),
(622,354,o),
(506,498,o),
(506,740,cs),
(506,986,o),
(624,1118,o),
(826,1118,cs),
(912,1118,o),
(998,1090,o),
(1076,1014,c),
(1112,1068,l),
(1044,1142,o),
(940,1186,o),
(828,1186,cs),
(580,1186,o),
(436,1020,o),
(436,742,cs),
(436,464,o),
(580,286,o),
(828,286,cs)
);
},
{
closed = 1;
nodes = (
(446,56,o),
(168,344,o),
(168,738,cs),
(168,1128,o),
(446,1416,o),
(814,1416,cs),
(1182,1416,o),
(1460,1130,o),
(1460,738,cs),
(1460,344,o),
(1182,56,o),
(814,56,cs)
);
}
);
width = 1628;
}
);
leftKerningGroup = O;
rightKerningGroup = O;
unicode = 169;
}
{
color = 11;
glyphname = ordfeminine;
layers = (
{
layerId = "A06B8506-BBE1-4A28-92E2-491406422708";
shapes = (
{
closed = 1;
nodes = (
(402,844,o),
(466,890,o),
(504,976,c),
(510,976,l),
(510,858,l),
(728,858,l),
(728,1224,ls),
(728,1404,o),
(618,1496,o),
(390,1496,cs),
(276,1496,o),
(148,1468,o),
(72,1426,c),
(124,1272,l),
(196,1310,o),
(294,1328,o),
(368,1328,cs),
(460,1328,o),
(498,1306,o),
(498,1242,cs),
(498,1116,ls),
(498,1038,o),
(438,992,o),
(360,992,cs),
(298,992,o),
(266,1018,o),
(266,1054,cs),
(266,1104,o),
(320,1120,o),
(428,1120,cs),
(524,1120,l),
(524,1236,l),
(422,1236,ls),
(152,1236,o),
(36,1184,o),
(36,1050,cs),
(36,932,o),
(148,844,o),
(300,844,cs)
);
}
);
width = 788;
},
{
layerId = "2D3E1F4A-4F79-435C-922D-C1502E296E5C";
shapes = (
{
closed = 1;
nodes = (
(405,855,o),
(475,895,o),
(520,980,c),
(526,980,l),
(526,865,l),
(661,865,l),
(661,1245,ls),
(661,1409,o),
(566,1492,o),
(373,1492,cs),
(267,1492,o),
(155,1466,o),
(84,1422,c),
(121,1321,l),
(188,1363,o),
(278,1384,o),
(362,1384,cs),
(472,1384,o),
(521,1346,o),
(521,1255,cs),
(521,1130,ls),
(521,1022,o),
(441,955,o),
(333,955,cs),
(243,955,o),
(196,996,o),
(196,1050,cs),
(196,1117,o),
(267,1142,o),
(421,1142,cs),
(541,1142,l),
(541,1228,l),
(417,1228,ls),
(175,1228,o),
(52,1177,o),
(52,1049,cs),
(52,937,o),
(159,855,o),
(303,855,cs)
);
}
);
width = 739;
},
{
layerId = "F480A0F6-CE20-4515-90A8-C409EEC2FB0B";
shapes = (
{
closed = 1;
nodes = (
(416,864,o),
(490,900,o),
(542,984,c),
(548,984,l),
(548,872,l),
(610,872,l),
(610,1264,ls),
(610,1414,o),
(528,1488,o),
(366,1488,cs),
(266,1488,o),
(168,1464,o),
(102,1418,c),
(126,1364,l),
(188,1410,o),
(272,1434,o),
(364,1434,cs),
(490,1434,o),
(548,1382,o),
(548,1266,cs),
(548,1142,ls),
(548,1008,o),
(452,922,o),
(316,922,cs),
(202,922,o),
(142,976,o),
(142,1046,cs),
(142,1128,o),
(228,1162,o),
(422,1162,cs),
(564,1162,l),
(564,1220,l),
(420,1220,ls),
(202,1220,o),
(74,1170,o),
(74,1048,cs),
(74,942,o),
(176,864,o),
(314,864,cs)
);
}
);
width = 710;
}
);
leftKerningGroup = ord;
rightKerningGroup = ord;
unicode = 170;
}
{
color = 11;
glyphname = logicalnot;
layers = (
{
layerId = "A6805B89-47EA-471F-88E2-6C6BDB91AD06";
shapes = (
{
closed = 1;
nodes = (
(1096,416,l),
(1096,1062,l),
(104,1062,l),
(104,824,l),
(844,824,l),
(844,416,l)
);
}
);
width = 1200;
},
{
layerId = "74EDEEDC-441F-4395-93E2-DA3D8F4EBC35";
shapes = (
{
closed = 1;
nodes = (
(1096,449,l),
(1096,1021,l),
(104,1021,l),
(104,873,l),
(940,873,l),
(940,449,l)
);
}
);
width = 1200;
},
{
layerId = "5CA5D978-5DFF-4019-A5DD-99A0755926E0";
shapes = (
{
closed = 1;
nodes = (
(1096,478,l),
(1096,984,l),
(104,984,l),
(104,916,l),
(1024,916,l),
(1024,478,l)
);
}
);
width = 1200;
}
);
unicode = 172;
}
{
color = 11;
glyphname = registered;
layers = (
{
layerId = "A6805B89-47EA-471F-88E2-6C6BDB91AD06";
shapes = (
{
closed = 1;
nodes = (
(1230,-24,o),
(1540,302,o),
(1540,738,cs),
(1540,1172,o),
(1230,1496,o),
(814,1496,cs),
(398,1496,o),
(88,1172,o),
(88,738,cs),
(88,300,o),
(396,-24,o),
(814,-24,cs)
);
},
{
closed = 1;
nodes = (
(468,106,o),
(228,370,o),
(228,738,cs),
(228,1102,o),
(468,1366,o),
(814,1366,cs),
(1158,1366,o),
(1400,1104,o),
(1400,738,cs),
(1400,370,o),
(1158,106,o),
(814,106,cs)
);
},
{
closed = 1;
nodes = (
(742,296,l),
(742,636,l),
(706,614,l),
(782,614,ls),
(822,614,o),
(846,596,o),
(860,548,c),
(920,296,l),
(1188,296,l),
(1132,510,l),
(1100,648,o),
(1052,684,o),
(960,684,c),
(884,662,l),
(1066,662,o),
(1178,752,o),
(1178,916,cs),
(1178,1066,o),
(1064,1180,o),
(868,1180,cs),
(476,1180,l),
(476,296,l)
);
},
{
closed = 1;
nodes = (
(740,992,l),
(830,992,ls),
(890,992,o),
(928,964,o),
(928,900,cs),
(928,832,o),
(894,802,o),
(830,802,cs),
(740,802,l)
);
}
);
width = 1626;
},
{
layerId = "74EDEEDC-441F-4395-93E2-DA3D8F4EBC35";
shapes = (
{
closed = 1;
nodes = (
(1228,-20,o),
(1536,304,o),
(1536,738,cs),
(1536,1171,o),
(1228,1492,o),
(814,1492,cs),
(400,1492,o),
(92,1171,o),
(92,738,cs),
(92,303,o),
(399,-20,o),
(814,-20,cs)
);
},
{
closed = 1;
nodes = (
(456,79,o),
(196,356,o),
(196,738,cs),
(196,1116,o),
(456,1393,o),
(814,1393,cs),
(1171,1393,o),
(1432,1118,o),
(1432,738,cs),
(1432,356,o),
(1171,79,o),
(814,79,cs)
);
},
{
closed = 1;
nodes = (
(678,296,l),
(678,669,l),
(651,649,l),
(781,649,ls),
(844,649,o),
(886,629,o),
(911,563,c),
(1001,296,l),
(1168,296,l),
(1077,554,l),
(1044,659,o),
(994,691,o),
(913,691,c),
(871,672,l),
(1049,672,o),
(1156,761,o),
(1156,921,cs),
(1156,1078,o),
(1050,1178,o),
(866,1178,cs),
(515,1178,l),
(515,296,l)
);
},
{
closed = 1;
nodes = (
(677,1054,l),
(844,1054,ls),
(946,1054,o),
(998,1009,o),
(998,915,cs),
(998,818,o),
(947,773,o),
(844,773,cs),
(677,773,l)
);
}
);
width = 1627;
},
{
layerId = "5CA5D978-5DFF-4019-A5DD-99A0755926E0";
shapes = (
{
closed = 1;
nodes = (
(1226,-16,o),
(1532,306,o),
(1532,738,cs),
(1532,1170,o),
(1226,1488,o),
(814,1488,cs),
(402,1488,o),
(96,1170,o),
(96,738,cs),
(96,306,o),
(402,-16,o),
(814,-16,cs)
);
},
{
closed = 1;
nodes = (
(446,56,o),
(168,344,o),
(168,738,cs),
(168,1128,o),
(446,1416,o),
(814,1416,cs),
(1182,1416,o),
(1460,1130,o),
(1460,738,cs),
(1460,344,o),
(1182,56,o),
(814,56,cs)
);
},
{
closed = 1;
nodes = (
(622,296,l),
(622,698,l),
(602,680,l),
(780,680,ls),
(864,680,o),
(922,658,o),
(956,576,cs),
(1072,296,l),
(1150,296,l),
(1028,592,l),
(994,668,o),
(942,698,o),
(872,698,c),
(860,680,l),
(1034,680,o),
(1136,768,o),
(1136,926,cs),
(1136,1088,o),
(1038,1176,o),
(864,1176,cs),
(550,1176,l),
(550,296,l)
);
},
{
closed = 1;
nodes = (
(622,1108,l),
(856,1108,ls),
(996,1108,o),
(1060,1048,o),
(1060,928,cs),
(1060,806,o),
(994,748,o),
(856,748,cs),
(622,748,l)
);
}
);
width = 1628;
}
);
leftKerningGroup = O;
rightKerningGroup = O;
unicode = 174;
}
{
color = 11;
glyphname = degree;
layers = (
{
layerId = "A6805B89-47EA-471F-88E2-6C6BDB91AD06";
shapes = (
{
closed = 1;
nodes = (
(596,832,o),
(740,972,o),
(740,1164,cs),
(740,1350,o),
(594,1494,o),
(398,1494,cs),
(204,1494,o),
(58,1352,o),
(58,1164,cs),
(58,972,o),
(202,832,o),
(398,832,cs)
);
},
{
closed = 1;
nodes = (
(318,1014,o),
(258,1080,o),
(258,1164,cs),
(258,1248,o),
(318,1310,o),
(398,1310,cs),
(476,1310,o),
(538,1248,o),
(538,1164,cs),
(538,1080,o),
(476,1014,o),
(398,1014,cs)
);
}
);
width = 796;
},
{
layerId = "74EDEEDC-441F-4395-93E2-DA3D8F4EBC35";
shapes = (
{
closed = 1;
nodes = (
(559,876,o),
(692,1007,o),
(692,1183,cs),
(692,1357,o),
(558,1491,o),
(382,1491,cs),
(205,1491,o),
(71,1357,o),
(71,1183,cs),
(71,1008,o),
(204,876,o),
(382,876,cs)
);
},
{
closed = 1;
nodes = (
(280,1000,o),
(208,1077,o),
(208,1183,cs),
(208,1289,o),
(280,1365,o),
(382,1365,cs),
(484,1365,o),
(556,1289,o),
(556,1183,cs),
(556,1077,o),
(484,1000,o),
(382,1000,cs)
);
}
);
width = 764;
},
{
layerId = "5CA5D978-5DFF-4019-A5DD-99A0755926E0";
shapes = (
{
closed = 1;
nodes = (
(530,914,o),
(654,1038,o),
(654,1200,cs),
(654,1364,o),
(530,1488,o),
(372,1488,cs),
(210,1488,o),
(86,1362,o),
(86,1200,cs),
(86,1040,o),
(210,914,o),
(372,914,cs)
);
},
{
closed = 1;
nodes = (
(250,988,o),
(168,1074,o),
(168,1200,cs),
(168,1326,o),
(250,1414,o),
(372,1414,cs),
(494,1414,o),
(576,1326,o),
(576,1200,cs),
(576,1074,o),
(494,988,o),
(372,988,cs)
);
}
);
width = 744;
}
);
leftKerningGroup = degree;
rightKerningGroup = degree;
unicode = 176;
}
{
color = 11;
glyphname = plusminus;
layers = (
{
layerId = "7B66E43B-35BC-4CDD-B71B-7D56A9572330";
shapes = (
{
closed = 1;
nodes = (
(724,446,l),
(724,728,l),
(1096,728,l),
(1096,970,l),
(724,970,l),
(724,1250,l),
(474,1250,l),
(474,970,l),
(104,970,l),
(104,728,l),
(474,728,l),
(474,446,l)
);
},
{
closed = 1;
nodes = (
(1096,136,l),
(1096,376,l),
(104,376,l),
(104,136,l)
);
}
);
width = 1200;
},
{
layerId = "FC5D3D8C-AB50-41A9-8405-C9FF1CAE1726";
shapes = (
{
closed = 1;
nodes = (
(676,405,l),
(676,750,l),
(1096,750,l),
(1096,901,l),
(676,901,l),
(676,1246,l),
(522,1246,l),
(522,901,l),
(104,901,l),
(104,750,l),
(522,750,l),
(522,405,l)
);
},
{
closed = 1;
nodes = (
(1096,136,l),
(1096,286,l),
(104,286,l),
(104,136,l)
);
}
);
width = 1200;
},
{
layerId = "EA701F3C-7533-4E12-969A-F8F539424701";
shapes = (
{
closed = 1;
nodes = (
(634,368,l),
(634,770,l),
(1096,770,l),
(1096,840,l),
(634,840,l),
(634,1242,l),
(564,1242,l),
(564,840,l),
(104,840,l),
(104,770,l),
(564,770,l),
(564,368,l)
);
},
{
closed = 1;
nodes = (
(1096,136,l),
(1096,206,l),
(104,206,l),
(104,136,l)
);
}
);
width = 1200;
}
);
unicode = 177;
}
{
color = 11;
glyphname = micro;
layers = (
{
layerId = "A6805B89-47EA-471F-88E2-6C6BDB91AD06";
shapes = (
{
closed = 1;
nodes = (
(454,-376,l),
(424,68,l),
(424,68,l),
(454,6,o),
(492,-24,o),
(560,-24,cs),
(644,-24,o),
(720,52,o),
(738,180,c),
(744,180,l),
(744,0,l),
(1092,0,l),
(1092,1028,l),
(734,1028,l),
(734,442,ls),
(734,328,o),
(664,252,o),
(572,252,cs),
(494,252,o),
(454,298,o),
(454,402,cs),
(454,1028,l),
(94,1028,l),
(94,-376,l)
);
}
);
width = 1186;
},
{
layerId = "74EDEEDC-441F-4395-93E2-DA3D8F4EBC35";
shapes = (
{
closed = 1;
nodes = (
(366,-376,l),
(349,126,l),
(327,126,l),
(370,19,o),
(447,-20,o),
(554,-20,cs),
(687,-20,o),
(796,66,o),
(833,215,c),
(821,215,l),
(821,0,l),
(1020,0,l),
(1020,1018,l),
(816,1018,l),
(816,428,ls),
(816,257,o),
(709,146,o),
(558,146,cs),
(430,146,o),
(366,216,o),
(366,383,cs),
(366,1018,l),
(161,1018,l),
(161,-376,l)
);
}
);
width = 1181;
},
{
layerId = "5CA5D978-5DFF-4019-A5DD-99A0755926E0";
shapes = (
{
closed = 1;
nodes = (
(290,-376,l),
(284,178,l),
(244,178,l),
(298,30,o),
(410,-16,o),
(550,-16,cs),
(726,-16,o),
(864,78,o),
(918,246,c),
(890,246,l),
(890,0,l),
(958,0,l),
(958,1010,l),
(890,1010,l),
(890,416,ls),
(890,194,o),
(750,52,o),
(548,52,cs),
(376,52,o),
(290,144,o),
(290,366,cs),
(290,1010,l),
(222,1010,l),
(222,-376,l)
);
}
);
width = 1178;
}
);
leftKerningGroup = n;
rightKerningGroup = u;
unicode = 181;
}
{
color = 11;
glyphname = paragraph;
layers = (
{
layerId = "A6805B89-47EA-471F-88E2-6C6BDB91AD06";
shapes = (
{
closed = 1;
nodes = (
(758,-188,l),
(758,1414,l),
(964,1414,l),
(964,-188,l),
(1212,-188,l),
(1212,1660,l),
(518,1660,ls),
(236,1660,o),
(48,1474,o),
(48,1190,cs),
(48,900,o),
(236,716,o),
(508,716,c),
(508,-188,l)
);
}
);
width = 1338;
},
{
layerId = "74EDEEDC-441F-4395-93E2-DA3D8F4EBC35";
shapes = (
{
closed = 1;
nodes = (
(634,-188,l),
(634,1510,l),
(879,1510,l),
(879,-188,l),
(1034,-188,l),
(1034,1660,l),
(485,1660,ls),
(234,1660,o),
(68,1487,o),
(68,1238,cs),
(68,986,o),
(234,815,o),
(479,815,c),
(479,-188,l)
);
}
);
width = 1188;
},
{
layerId = "5CA5D978-5DFF-4019-A5DD-99A0755926E0";
shapes = (
{
closed = 1;
nodes = (
(548,-188,l),
(548,1594,l),
(826,1594,l),
(826,-188,l),
(900,-188,l),
(900,1660,l),
(478,1660,ls),
(254,1660,o),
(108,1498,o),
(108,1280,cs),
(108,1062,o),
(254,902,o),
(476,902,c),
(476,-188,l)
);
}
);
width = 1098;
}
);
leftKerningGroup = paragraph;
rightKerningGroup = H;
unicode = 182;
}
{
color = 11;
glyphname = periodcentered;
layers = (
{
layerId = "A06B8506-BBE1-4A28-92E2-491406422708";
shapes = (
{
closed = 1;
nodes = (
(460,552,l),
(460,922,l),
(86,922,l),
(86,552,l)
);
}
);
width = 550;
},
{
layerId = "2D3E1F4A-4F79-435C-922D-C1502E296E5C";
shapes = (
{
closed = 1;
nodes = (
(353,616,l),
(353,857,l),
(113,857,l),
(113,616,l)
);
}
);
width = 468;
},
{
layerId = "F480A0F6-CE20-4515-90A8-C409EEC2FB0B";
shapes = (
{
closed = 1;
nodes = (
(270,672,l),
(270,800,l),
(148,800,l),
(148,672,l)
);
}
);
width = 418;
}
);
leftKerningGroup = hyphen;
rightKerningGroup = hyphen;
unicode = 183;
}
{
color = 11;
glyphname = ordmasculine;
layers = (
{
layerId = "A6805B89-47EA-471F-88E2-6C6BDB91AD06";
shapes = (
{
closed = 1;
nodes = (
(634,846,o),
(788,972,o),
(788,1174,cs),
(788,1372,o),
(634,1496,o),
(412,1496,cs),
(190,1496,o),
(34,1372,o),
(34,1174,cs),
(34,972,o),
(190,846,o),
(412,846,cs)
);
},
{
closed = 1;
nodes = (
(326,1020,o),
(270,1072,o),
(270,1174,cs),
(270,1274,o),
(326,1322,o),
(412,1322,cs),
(498,1322,o),
(552,1272,o),
(552,1174,cs),
(552,1074,o),
(498,1020,o),
(412,1020,cs)
);
}
);
width = 824;
},
{
layerId = "74EDEEDC-441F-4395-93E2-DA3D8F4EBC35";
shapes = (
{
closed = 1;
nodes = (
(581,855,o),
(719,979,o),
(719,1175,cs),
(719,1369,o),
(581,1492,o),
(383,1492,cs),
(183,1492,o),
(43,1369,o),
(43,1175,cs),
(43,979,o),
(183,855,o),
(383,855,cs)
);
},
{
closed = 1;
nodes = (
(263,968,o),
(189,1038,o),
(189,1175,cs),
(189,1310,o),
(263,1380,o),
(383,1380,cs),
(502,1380,o),
(575,1309,o),
(575,1175,cs),
(575,1039,o),
(502,968,o),
(383,968,cs)
);
}
);
width = 765;
},
{
layerId = "5CA5D978-5DFF-4019-A5DD-99A0755926E0";
shapes = (
{
closed = 1;
nodes = (
(544,862,o),
(668,986,o),
(668,1176,cs),
(668,1366,o),
(544,1488,o),
(366,1488,cs),
(186,1488,o),
(60,1366,o),
(60,1176,cs),
(60,986,o),
(186,862,o),
(366,862,cs)
);
},
{
closed = 1;
nodes = (
(216,922,o),
(126,1008,o),
(126,1176,cs),
(126,1342,o),
(216,1432,o),
(366,1432,cs),
(514,1432,o),
(604,1342,o),
(604,1176,cs),
(604,1008,o),
(514,922,o),
(366,922,cs)
);
}
);
width = 730;
}
);
leftKerningGroup = ord;
rightKerningGroup = ord;
unicode = 186;
}
{
color = 11;
glyphname = questiondown;
layers = (
{
layerId = "7B66E43B-35BC-4CDD-B71B-7D56A9572330";
shapes = (
{
closed = 1;
nodes = (
(660,-398,o),
(838,-342,o),
(954,-242,c),
(838,22,l),
(740,-58,o),
(638,-94,o),
(536,-94,cs),
(428,-94,o),
(374,-46,o),
(374,32,cs),
(374,88,o),
(400,134,o),
(464,212,cs),
(566,334,o),
(588,422,o),
(588,532,cs),
(588,632,l),
(378,632,l),
(366,560,ls),
(354,480,o),
(316,420,o),
(202,318,c),
(64,204,o),
(10,98,o),
(10,-34,cs),
(10,-254,o),
(196,-398,o),
(476,-398,cs)
);
},
{
closed = 1;
nodes = (
(670,750,l),
(670,1122,l),
(296,1122,l),
(296,750,l)
);
}
);
width = 960;
},
{
layerId = "FC5D3D8C-AB50-41A9-8405-C9FF1CAE1726";
shapes = (
{
closed = 1;
nodes = (
(616,-395,o),
(788,-331,o),
(892,-218,c),
(817,-65,l),
(713,-169,o),
(597,-215,o),
(469,-215,cs),
(325,-215,o),
(246,-142,o),
(246,-24,cs),
(246,60,o),
(278,133,o),
(374,251,cs),
(500,409,o),
(531,514,o),
(531,645,cs),
(531,709,l),
(407,709,l),
(400,652,ls),
(388,542,o),
(346,465,o),
(223,327,c),
(85,179,o),
(37,76,o),
(37,-53,cs),
(37,-261,o),
(194,-395,o),
(443,-395,cs)
);
},
{
closed = 1;
nodes = (
(590,870,l),
(590,1111,l),
(348,1111,l),
(348,870,l)
);
}
);
width = 894;
},
{
layerId = "EA701F3C-7533-4E12-969A-F8F539424701";
shapes = (
{
closed = 1;
nodes = (
(586,-392,o),
(754,-322,o),
(846,-196,c),
(808,-142,l),
(698,-266,o),
(570,-322,o),
(420,-322,cs),
(244,-322,o),
(142,-226,o),
(142,-74,cs),
(142,36,o),
(180,132,o),
(304,286,cs),
(452,476,o),
(490,596,o),
(490,744,cs),
(490,776,l),
(442,776,l),
(440,734,l),
(428,596,o),
(382,504,o),
(250,334,cs),
(112,156,o),
(70,56,o),
(70,-70,cs),
(70,-268,o),
(202,-392,o),
(424,-392,cs)
);
},
{
closed = 1;
nodes = (
(528,976,l),
(528,1102,l),
(404,1102,l),
(404,976,l)
);
}
);
width = 854;
}
);
leftKerningGroup = questiondown;
rightKerningGroup = questiondown;
unicode = 191;
}
{
color = 11;
glyphname = AE;
layers = (
{
anchors = (
{
name = bottom;
position = "{928, 0}";
},
{
name = top;
position = "{930, 1472}";
}
);
layerId = "7B66E43B-35BC-4CDD-B71B-7D56A9572330";
shapes = (
{
closed = 1;
nodes = (
(272,0,l),
(480,394,l),
(346,300,l),
(1064,300,l),
(952,408,l),
(1032,0,l),
(1824,0,l),
(1824,294,l),
(1210,294,l),
(1336,192,l),
(1236,704,l),
(1162,600,l),
(1782,600,l),
(1782,894,l),
(1094,894,l),
(1218,788,l),
(1128,1264,l),
(1034,1178,l),
(1824,1178,l),
(1824,1472,l),
(714,1472,l),
(-122,0,l)
);
},
{
closed = 1;
nodes = (
(826,1056,l),
(936,488,l),
(1006,592,l),
(526,592,l),
(536,502,l),
(822,1056,l)
);
}
);
width = 1930;
},
{
anchors = (
{
name = bottom;
position = "{921, 0}";
},
{
name = top;
position = "{921, 1472}";
}
);
layerId = "FC5D3D8C-AB50-41A9-8405-C9FF1CAE1726";
shapes = (
{
closed = 1;
nodes = (
(169,0,l),
(392,415,l),
(313,363,l),
(1046,363,l),
(975,421,l),
(1055,0,l),
(1774,0,l),
(1774,173,l),
(1151,173,l),
(1228,106,l),
(1112,716,l),
(1065,661,l),
(1734,661,l),
(1734,833,l),
(1026,833,l),
(1099,774,l),
(989,1366,l),
(940,1299,l),
(1774,1299,l),
(1774,1472,l),
(758,1472,l),
(-54,0,l)
);
},
{
closed = 1;
nodes = (
(821,1226,l),
(964,478,l),
(1001,533,l),
(413,533,l),
(426,483,l),
(818,1226,l)
);
}
);
width = 1873;
},
{
anchors = (
{
name = bottom;
position = "{922, 0}";
},
{
name = top;
position = "{920, 1472}";
}
);
layerId = "EA701F3C-7533-4E12-969A-F8F539424701";
shapes = (
{
closed = 1;
nodes = (
(86,0,l),
(322,434,l),
(292,418,l),
(1038,418,l),
(1002,432,l),
(1082,0,l),
(1738,0,l),
(1738,66,l),
(1106,66,l),
(1140,30,l),
(1010,726,l),
(986,714,l),
(1700,714,l),
(1700,780,l),
(974,780,l),
(1002,762,l),
(874,1456,l),
(864,1406,l),
(1738,1406,l),
(1738,1472,l),
(804,1472,l),
(14,0,l)
);
},
{
closed = 1;
nodes = (
(824,1376,l),
(996,470,l),
(1004,480,l),
(320,480,l),
(336,466,l),
(822,1376,l)
);
}
);
width = 1838;
}
);
leftKerningGroup = A;
rightKerningGroup = E;
unicode = 198;
}
{
color = 11;
glyphname = multiply;
layers = (
{
layerId = "A06B8506-BBE1-4A28-92E2-491406422708";
shapes = (
{
closed = 1;
nodes = (
(600,566,l),
(904,262,l),
(1072,432,l),
(768,738,l),
(1072,1042,l),
(904,1212,l),
(600,908,l),
(294,1212,l),
(126,1042,l),
(432,738,l),
(126,432,l),
(294,262,l)
);
}
);
width = 1200;
},
{
layerId = "2D3E1F4A-4F79-435C-922D-C1502E296E5C";
shapes = (
{
closed = 1;
nodes = (
(600,630,l),
(968,262,l),
(1072,367,l),
(704,737,l),
(1072,1106,l),
(968,1211,l),
(600,843,l),
(231,1211,l),
(126,1106,l),
(495,737,l),
(126,367,l),
(231,262,l)
);
}
);
width = 1200;
},
{
layerId = "F480A0F6-CE20-4515-90A8-C409EEC2FB0B";
shapes = (
{
closed = 1;
nodes = (
(600,686,l),
(1024,262,l),
(1072,310,l),
(648,736,l),
(1072,1162,l),
(1024,1210,l),
(600,786,l),
(176,1210,l),
(126,1162,l),
(550,736,l),
(126,310,l),
(176,262,l)
);
}
);
width = 1200;
}
);
unicode = 215;
}
{
color = 11;
glyphname = Thorn;
layers = (
{
anchors = (
{
name = bottom;
position = "{692, 0}";
},
{
name = top;
position = "{690, 1472}";
}
);
layerId = "A6805B89-47EA-471F-88E2-6C6BDB91AD06";
shapes = (
{
closed = 1;
nodes = (
(498,0,l),
(498,288,l),
(810,288,ls),
(1128,288,o),
(1312,468,o),
(1312,766,cs),
(1312,1066,o),
(1128,1248,o),
(810,1248,cs),
(498,1248,l),
(498,1472,l),
(130,1472,l),
(130,0,l)
);
},
{
closed = 1;
nodes = (
(498,960,l),
(744,960,ls),
(880,960,o),
(958,896,o),
(958,766,cs),
(958,638,o),
(880,574,o),
(744,574,cs),
(498,574,l)
);
}
);
width = 1358;
},
{
anchors = (
{
name = bottom;
position = "{651, 0}";
},
{
name = top;
position = "{650, 1472}";
}
);
layerId = "74EDEEDC-441F-4395-93E2-DA3D8F4EBC35";
shapes = (
{
closed = 1;
nodes = (
(367,0,l),
(367,315,l),
(740,315,ls),
(1046,315,o),
(1219,480,o),
(1219,764,cs),
(1219,1049,o),
(1046,1213,o),
(740,1213,cs),
(367,1213,l),
(367,1472,l),
(159,1472,l),
(159,0,l)
);
},
{
closed = 1;
nodes = (
(367,1043,l),
(710,1043,ls),
(909,1043,o),
(1014,948,o),
(1014,764,cs),
(1014,580,o),
(909,486,o),
(710,486,cs),
(367,486,l)
);
}
);
width = 1274;
},
{
anchors = (
{
name = bottom;
position = "{628, 0}";
},
{
name = top;
position = "{628, 1472}";
}
);
layerId = "5CA5D978-5DFF-4019-A5DD-99A0755926E0";
shapes = (
{
closed = 1;
nodes = (
(264,0,l),
(264,338,l),
(692,338,ls),
(986,338,o),
(1150,490,o),
(1150,762,cs),
(1150,1034,o),
(986,1182,o),
(692,1182,cs),
(264,1182,l),
(264,1472,l),
(198,1472,l),
(198,0,l)
);
},
{
closed = 1;
nodes = (
(264,1116,l),
(694,1116,ls),
(948,1116,o),
(1076,994,o),
(1076,762,cs),
(1076,528,o),
(948,408,o),
(694,408,cs),
(264,408,l)
);
}
);
width = 1224;
}
);
leftKerningGroup = H;
rightKerningGroup = THORN;
unicode = 222;
}
{
color = 11;
glyphname = germandbls;
layers = (
{
layerId = "A06B8506-BBE1-4A28-92E2-491406422708";
shapes = (
{
closed = 1;
nodes = (
(1328,-24,o),
(1514,128,o),
(1514,354,cs),
(1514,522,o),
(1420,626,o),
(1202,688,cs),
(1042,732,o),
(1004,756,o),
(1004,804,cs),
(1004,846,o),
(1030,874,o),
(1112,944,cs),
(1214,1028,o),
(1252,1102,o),
(1252,1194,cs),
(1252,1384,o),
(1074,1496,o),
(758,1496,cs),
(342,1496,o),
(124,1304,o),
(124,936,cs),
(124,0,l),
(494,0,l),
(494,988,ls),
(494,1152,o),
(582,1240,o),
(762,1240,cs),
(860,1240,o),
(906,1206,o),
(906,1150,cs),
(906,1108,o),
(888,1078,o),
(824,1024,c),
(712,916,o),
(668,842,o),
(668,750,cs),
(668,600,o),
(758,510,o),
(982,454,cs),
(1142,414,o),
(1178,384,o),
(1178,334,cs),
(1178,272,o),
(1134,238,o),
(1050,238,cs),
(938,238,o),
(804,276,o),
(688,352,c),
(580,110,l),
(702,22,o),
(874,-24,o),
(1042,-24,cs)
);
}
);
width = 1548;
},
{
layerId = "2D3E1F4A-4F79-435C-922D-C1502E296E5C";
shapes = (
{
closed = 1;
nodes = (
(1170,-20,o),
(1339,114,o),
(1339,316,cs),
(1339,482,o),
(1240,574,o),
(1008,642,cs),
(838,691,o),
(777,727,o),
(777,801,cs),
(777,861,o),
(816,896,o),
(911,967,c),
(1027,1050,o),
(1079,1124,o),
(1079,1226,cs),
(1079,1395,o),
(931,1492,o),
(678,1492,cs),
(341,1492,o),
(152,1324,o),
(152,1009,cs),
(152,0,l),
(361,0,l),
(361,1033,ls),
(361,1232,o),
(470,1336,o),
(682,1336,cs),
(811,1336,o),
(879,1289,o),
(879,1205,cs),
(879,1142,o),
(843,1098,o),
(759,1038,c),
(635,940,o),
(583,871,o),
(583,774,cs),
(583,635,o),
(670,557,o),
(900,494,cs),
(1090,442,o),
(1142,393,o),
(1142,309,cs),
(1142,202,o),
(1059,138,o),
(920,138,cs),
(804,138,o),
(679,175,o),
(567,265,c),
(493,124,l),
(597,32,o),
(757,-20,o),
(915,-20,cs)
);
}
);
width = 1388;
},
{
layerId = "F480A0F6-CE20-4515-90A8-C409EEC2FB0B";
shapes = (
{
closed = 1;
nodes = (
(1054,-16,o),
(1208,102,o),
(1208,282,cs),
(1208,446,o),
(1104,528,o),
(860,602,cs),
(680,654,o),
(600,702,o),
(600,798,cs),
(600,874,o),
(650,916,o),
(756,988,c),
(884,1070,o),
(948,1144,o),
(948,1254,cs),
(948,1404,o),
(828,1488,o),
(630,1488,cs),
(362,1488,o),
(200,1342,o),
(200,1074,cs),
(200,0,l),
(266,0,l),
(266,1072,ls),
(266,1302,o),
(394,1420,o),
(634,1420,cs),
(790,1420,o),
(878,1362,o),
(878,1254,cs),
(878,1172,o),
(826,1116,o),
(724,1050,cs),
(590,962,o),
(530,896,o),
(530,796,cs),
(530,666,o),
(614,598,o),
(850,530,cs),
(1066,466,o),
(1132,400,o),
(1132,286,cs),
(1132,140,o),
(1016,50,o),
(828,50,cs),
(708,50,o),
(592,86,o),
(482,188,c),
(438,136,l),
(526,40,o),
(676,-16,o),
(826,-16,cs)
);
}
);
width = 1292;
}
);
leftKerningGroup = h;
rightKerningGroup = germandbls;
unicode = 223;
}
{
color = 11;
glyphname = ae;
layers = (
{
anchors = (
{
name = bottom;
position = "{944, 0}";
},
{
name = top;
position = "{944, 1010}";
}
);
layerId = "7B66E43B-35BC-4CDD-B71B-7D56A9572330";
shapes = (
{
closed = 1;
nodes = (
(750,-24,o),
(904,76,o),
(966,240,c),
(898,240,l),
(990,74,o),
(1174,-24,o),
(1434,-24,cs),
(1598,-24,o),
(1776,26,o),
(1882,112,c),
(1784,352,l),
(1694,284,o),
(1568,252,o),
(1452,252,cs),
(1244,252,o),
(1150,338,o),
(1150,556,cs),
(1150,582,ls),
(1150,780,o),
(1230,876,o),
(1374,876,cs),
(1512,876,o),
(1586,798,o),
(1586,620,c),
(1624,654,l),
(1108,654,l),
(1108,476,l),
(1896,476,l),
(1896,556,ls),
(1896,902,o),
(1694,1126,o),
(1360,1126,cs),
(1198,1126,o),
(1058,1062,o),
(966,936,c),
(1046,936,l),
(978,1064,o),
(834,1126,o),
(630,1126,cs),
(450,1126,o),
(236,1072,o),
(116,992,c),
(212,742,l),
(334,816,o),
(478,854,o),
(602,854,cs),
(736,854,o),
(792,812,o),
(792,704,cs),
(792,426,ls),
(792,302,o),
(704,228,o),
(584,228,cs),
(486,228,o),
(430,274,o),
(430,348,cs),
(430,436,o),
(506,476,o),
(712,476,cs),
(832,476,l),
(832,654,l),
(714,654,ls),
(238,654,o),
(76,564,o),
(76,340,cs),
(76,136,o),
(242,-24,o),
(528,-24,cs)
);
}
);
width = 1950;
},
{
anchors = (
{
name = bottom;
position = "{943, 0}";
},
{
name = top;
position = "{943, 1010}";
}
);
layerId = "FC5D3D8C-AB50-41A9-8405-C9FF1CAE1726";
shapes = (
{
closed = 1;
nodes = (
(749,-20,o),
(912,98,o),
(963,305,c),
(909,305,l),
(982,97,o),
(1159,-20,o),
(1421,-20,cs),
(1581,-20,o),
(1748,33,o),
(1845,132,c),
(1778,272,l),
(1679,183,o),
(1556,145,o),
(1430,145,cs),
(1188,145,o),
(1056,274,o),
(1056,553,cs),
(1056,571,ls),
(1056,831,o),
(1184,972,o),
(1382,972,cs),
(1577,972,o),
(1682,851,o),
(1682,605,c),
(1719,638,l),
(1023,638,l),
(1023,516,l),
(1860,516,l),
(1860,579,ls),
(1860,921,o),
(1679,1124,o),
(1378,1124,cs),
(1189,1124,o),
(1034,1029,o),
(951,865,c),
(1009,865,l),
(970,1036,o),
(840,1124,o),
(615,1124,cs),
(452,1124,o),
(273,1074,o),
(159,994,c),
(224,844,l),
(342,923,o),
(472,960,o),
(605,960,cs),
(772,960,o),
(851,895,o),
(851,725,cs),
(851,437,ls),
(851,250,o),
(725,132,o),
(555,132,cs),
(412,132,o),
(322,210,o),
(322,331,cs),
(322,469,o),
(421,516,o),
(755,516,cs),
(877,516,l),
(877,638,l),
(753,638,ls),
(273,638,o),
(115,554,o),
(115,326,cs),
(115,126,o),
(278,-21,o),
(527,-20,c)
);
}
);
width = 1946;
},
{
anchors = (
{
name = bottom;
position = "{944, 0}";
},
{
name = top;
position = "{944, 1010}";
}
);
layerId = "EA701F3C-7533-4E12-969A-F8F539424701";
shapes = (
{
closed = 1;
nodes = (
(750,-16,o),
(920,118,o),
(962,362,c),
(920,362,l),
(976,118,o),
(1148,-16,o),
(1412,-16,cs),
(1568,-16,o),
(1726,40,o),
(1814,150,c),
(1774,202,l),
(1668,94,o),
(1548,50,o),
(1412,50,cs),
(1140,50,o),
(974,218,o),
(974,550,cs),
(974,562,ls),
(974,876,o),
(1146,1056,o),
(1390,1056,cs),
(1636,1056,o),
(1768,898,o),
(1768,592,c),
(1804,624,l),
(950,624,l),
(950,552,l),
(1830,552,l),
(1830,600,ls),
(1830,938,o),
(1668,1122,o),
(1396,1122,cs),
(1182,1122,o),
(1014,1000,o),
(940,802,c),
(978,802,l),
(964,1012,o),
(848,1122,o),
(604,1122,cs),
(456,1122,o),
(308,1076,o),
(198,996,c),
(236,934,l),
(350,1018,o),
(468,1054,o),
(610,1054,cs),
(806,1054,o),
(904,968,o),
(904,744,cs),
(904,446,ls),
(904,204,o),
(746,48,o),
(532,48,cs),
(348,48,o),
(228,154,o),
(228,316,cs),
(228,498,o),
(348,552,o),
(794,552,cs),
(918,552,l),
(918,624,l),
(790,624,ls),
(306,624,o),
(152,546,o),
(152,314,cs),
(152,118,o),
(312,-18,o),
(528,-16,c)
);
}
);
width = 1944;
}
);
leftKerningGroup = a;
rightKerningGroup = e;
unicode = 230;
}
{
color = 11;
glyphname = eth;
layers = (
{
layerId = "A6805B89-47EA-471F-88E2-6C6BDB91AD06";
shapes = (
{
closed = 1;
nodes = (
(1056,-24,o),
(1284,212,o),
(1284,592,cs),
(1284,852,o),
(1166,1096,o),
(922,1268,c),
(910,1234,l),
(1164,1346,l),
(1092,1500,l),
(738,1342,l),
(794,1346,l),
(666,1416,o),
(506,1468,o),
(316,1498,c),
(262,1280,l),
(350,1264,o),
(428,1246,o),
(518,1212,c),
(514,1240,l),
(224,1116,l),
(294,964,l),
(710,1144,l),
(650,1146,l),
(830,1038,o),
(938,882,o),
(938,700,c),
(1014,700,l),
(944,866,o),
(810,940,o),
(614,940,cs),
(294,940,o),
(70,742,o),
(70,466,cs),
(70,174,o),
(306,-24,o),
(660,-24,cs)
);
},
{
closed = 1;
nodes = (
(528,252,o),
(442,332,o),
(442,464,cs),
(442,594,o),
(528,670,o),
(670,670,cs),
(816,670,o),
(896,592,o),
(896,464,cs),
(896,334,o),
(814,252,o),
(672,252,cs)
);
}
);
width = 1348;
},
{
layerId = "74EDEEDC-441F-4395-93E2-DA3D8F4EBC35";
shapes = (
{
closed = 1;
nodes = (
(973,-20,o),
(1173,201,o),
(1173,576,cs),
(1173,893,o),
(1052,1141,o),
(798,1305,c),
(790,1282,l),
(1053,1387,l),
(1007,1493,l),
(672,1357,l),
(712,1357,l),
(607,1414,o),
(478,1460,o),
(328,1491,c),
(293,1358,l),
(382,1337,o),
(461,1314,o),
(539,1280,c),
(541,1300,l),
(241,1182,l),
(287,1079,l),
(680,1233,l),
(628,1233,l),
(856,1103,o),
(977,902,o),
(975,665,c),
(1029,665,l),
(969,873,o),
(825,975,o),
(608,975,cs),
(299,975,o),
(92,777,o),
(92,481,cs),
(92,178,o),
(302,-20,o),
(625,-20,cs)
);
},
{
closed = 1;
nodes = (
(424,145,o),
(303,269,o),
(303,480,cs),
(303,691,o),
(426,812,o),
(628,812,cs),
(831,812,o),
(953,688,o),
(953,480,cs),
(953,271,o),
(830,145,o),
(628,145,cs)
);
}
);
width = 1263;
},
{
layerId = "5CA5D978-5DFF-4019-A5DD-99A0755926E0";
shapes = (
{
closed = 1;
nodes = (
(912,-16,o),
(1088,192,o),
(1088,562,cs),
(1088,930,o),
(964,1180,o),
(702,1338,c),
(698,1324,l),
(968,1424,l),
(946,1486,l),
(626,1370,l),
(652,1366,l),
(568,1412,o),
(466,1452,o),
(352,1484,c),
(334,1426,l),
(424,1402,o),
(504,1374,o),
(570,1340,c),
(578,1352,l),
(270,1240,l),
(294,1180,l),
(666,1312,l),
(622,1310,l),
(892,1160,o),
(1024,920,o),
(1020,634,c),
(1056,634,l),
(1004,880,o),
(852,1006,o),
(616,1006,cs),
(316,1006,o),
(124,808,o),
(124,494,cs),
(124,182,o),
(312,-16,o),
(608,-16,cs)
);
},
{
closed = 1;
nodes = (
(346,50,o),
(194,214,o),
(194,494,cs),
(194,776,o),
(350,938,o),
(604,938,cs),
(858,938,o),
(1016,772,o),
(1016,494,cs),
(1016,216,o),
(858,50,o),
(602,50,cs)
);
}
);
width = 1212;
}
);
leftKerningGroup = o;
rightKerningGroup = o;
unicode = 240;
}
{
color = 11;
glyphname = divide;
layers = (
{
layerId = "7B66E43B-35BC-4CDD-B71B-7D56A9572330";
shapes = (
{
closed = 1;
nodes = (
(1096,618,l),
(1096,856,l),
(104,856,l),
(104,618,l)
);
},
{
closed = 1;
nodes = (
(720,202,l),
(720,458,l),
(462,458,l),
(462,202,l)
);
},
{
closed = 1;
nodes = (
(720,1014,l),
(720,1270,l),
(462,1270,l),
(462,1014,l)
);
}
);
width = 1200;
},
{
layerId = "FC5D3D8C-AB50-41A9-8405-C9FF1CAE1726";
shapes = (
{
closed = 1;
nodes = (
(1096,664,l),
(1096,810,l),
(104,810,l),
(104,664,l)
);
},
{
closed = 1;
nodes = (
(686,228,l),
(686,419,l),
(495,419,l),
(495,228,l)
);
},
{
closed = 1;
nodes = (
(686,1054,l),
(686,1246,l),
(495,1246,l),
(495,1054,l)
);
}
);
width = 1200;
},
{
layerId = "EA701F3C-7533-4E12-969A-F8F539424701";
shapes = (
{
closed = 1;
nodes = (
(1096,704,l),
(1096,770,l),
(104,770,l),
(104,704,l)
);
},
{
closed = 1;
nodes = (
(656,250,l),
(656,384,l),
(524,384,l),
(524,250,l)
);
},
{
closed = 1;
nodes = (
(656,1090,l),
(656,1224,l),
(524,1224,l),
(524,1090,l)
);
}
);
width = 1200;
}
);
unicode = 247;
}
{
color = 11;
glyphname = thorn;
layers = (
{
anchors = (
{
name = bottom;
position = "{698, 0}";
},
{
name = top;
position = "{698, 1010}";
}
);
layerId = "A06B8506-BBE1-4A28-92E2-491406422708";
shapes = (
{
closed = 1;
nodes = (
(494,-376,l),
(494,188,l),
(468,188,l),
(514,58,o),
(656,-24,o),
(828,-24,cs),
(1106,-24,o),
(1314,175,o),
(1314,502,cs),
(1314,602,ls),
(1314,930,o),
(1106,1126,o),
(828,1126,cs),
(652,1126,o),
(508,1042,o),
(464,906,c),
(494,906,l),
(494,1472,l),
(124,1472,l),
(124,-376,l)
);
},
{
closed = 1;
nodes = (
(574,252,o),
(490,344,o),
(490,552,cs),
(490,760,o),
(574,850,o),
(714,850,cs),
(844,850,o),
(943,776,o),
(943,602,cs),
(943,503,ls),
(943,325,o),
(844,252,o),
(714,252,cs)
);
}
);
width = 1386;
},
{
anchors = (
{
name = bottom;
position = "{660, 0}";
},
{
name = top;
position = "{660, 1010}";
}
);
layerId = "2D3E1F4A-4F79-435C-922D-C1502E296E5C";
shapes = (
{
closed = 1;
nodes = (
(367,-376,l),
(367,251,l),
(340,251,l),
(389,81,o),
(541,-20,o),
(737,-20,cs),
(1017,-20,o),
(1225,169,o),
(1225,498,cs),
(1225,609,ls),
(1225,937,o),
(1017,1124,o),
(737,1124,cs),
(540,1124,o),
(387,1024,o),
(338,850,c),
(367,850,l),
(367,1472,l),
(168,1472,l),
(168,-376,l)
);
},
{
closed = 1;
nodes = (
(493,138,o),
(364,277,o),
(364,553,cs),
(364,830,o),
(493,965,o),
(693,965,cs),
(878,965,o),
(1022,845,o),
(1022,609,cs),
(1022,498,ls),
(1022,259,o),
(879,138,o),
(693,138,cs)
);
}
);
width = 1326;
},
{
anchors = (
{
name = bottom;
position = "{630, 0}";
},
{
name = top;
position = "{630, 1010}";
}
);
layerId = "F480A0F6-CE20-4515-90A8-C409EEC2FB0B";
shapes = (
{
closed = 1;
nodes = (
(268,-376,l),
(268,300,l),
(240,300,l),
(292,98,o),
(452,-16,o),
(666,-16,cs),
(948,-16,o),
(1156,164,o),
(1156,494,cs),
(1156,614,ls),
(1156,943,o),
(948,1122,o),
(666,1122,cs),
(452,1122,o),
(292,1010,o),
(240,806,c),
(268,806,l),
(268,1472,l),
(202,1472,l),
(202,-376,l)
);
},
{
closed = 1;
nodes = (
(430,50,o),
(266,224,o),
(266,554,cs),
(266,884,o),
(430,1054,o),
(676,1054,cs),
(905,1054,o),
(1083,899,o),
(1083,614,cs),
(1083,494,ls),
(1083,207,o),
(907,50,o),
(676,50,cs)
);
}
);
width = 1280;
}
);
leftKerningGroup = h;
rightKerningGroup = o;
unicode = 254;
}
{
color = 11;
glyphname = dcroat;
layers = (
{
layerId = "A06B8506-BBE1-4A28-92E2-491406422708";
shapes = (
{
closed = 1;
nodes = (
(1422,1124,l),
(1422,1374,l),
(714,1374,l),
(714,1124,l)
);
},
{
alignment = -1;
ref = d;
}
);
width = 1386;
},
{
layerId = "2D3E1F4A-4F79-435C-922D-C1502E296E5C";
shapes = (
{
closed = 1;
nodes = (
(1366,1187,l),
(1366,1336,l),
(543,1336,l),
(543,1187,l)
);
},
{
alignment = -1;
ref = d;
}
);
width = 1320;
},
{
layerId = "F480A0F6-CE20-4515-90A8-C409EEC2FB0B";
shapes = (
{
closed = 1;
nodes = (
(1300,1242,l),
(1300,1302,l),
(604,1302,l),
(604,1242,l)
);
},
{
alignment = -1;
ref = d;
}
);
width = 1280;
}
);
leftKerningGroup = o;
rightKerningGroup = l;
unicode = 273;
}
{
color = 11;
glyphname = Hbar;
layers = (
{
layerId = "7B66E43B-35BC-4CDD-B71B-7D56A9572330";
shapes = (
{
closed = 1;
nodes = (
(554,0,l),
(554,560,l),
(1124,560,l),
(1124,0,l),
(1496,0,l),
(1496,1050,l),
(1650,1050,l),
(1650,1310,l),
(1496,1310,l),
(1496,1472,l),
(1124,1472,l),
(1124,1310,l),
(554,1310,l),
(554,1472,l),
(184,1472,l),
(184,1310,l),
(30,1310,l),
(30,1050,l),
(184,1050,l),
(184,0,l)
);
},
{
closed = 1;
nodes = (
(554,1050,l),
(1124,1050,l),
(1124,868,l),
(554,868,l)
);
}
);
width = 1680;
},
{
layerId = "FC5D3D8C-AB50-41A9-8405-C9FF1CAE1726";
shapes = (
{
closed = 1;
nodes = (
(410,0,l),
(410,643,l),
(1189,643,l),
(1189,0,l),
(1400,0,l),
(1400,1079,l),
(1575,1079,l),
(1575,1236,l),
(1400,1236,l),
(1400,1472,l),
(1189,1472,l),
(1189,1236,l),
(410,1236,l),
(410,1472,l),
(200,1472,l),
(200,1236,l),
(26,1236,l),
(26,1079,l),
(200,1079,l),
(200,0,l)
);
},
{
closed = 1;
nodes = (
(410,1079,l),
(1189,1079,l),
(1189,822,l),
(410,822,l)
);
}
);
width = 1599;
},
{
layerId = "EA701F3C-7533-4E12-969A-F8F539424701";
shapes = (
{
closed = 1;
nodes = (
(294,0,l),
(294,716,l),
(1258,716,l),
(1258,0,l),
(1326,0,l),
(1326,1104,l),
(1520,1104,l),
(1520,1170,l),
(1326,1170,l),
(1326,1472,l),
(1258,1472,l),
(1258,1170,l),
(294,1170,l),
(294,1472,l),
(226,1472,l),
(226,1170,l),
(34,1170,l),
(34,1104,l),
(226,1104,l),
(226,0,l)
);
},
{
closed = 1;
nodes = (
(294,1104,l),
(1258,1104,l),
(1258,782,l),
(294,782,l)
);
}
);
width = 1550;
}
);
leftKerningGroup = H;
rightKerningGroup = H;
unicode = 294;
}
{
color = 11;
glyphname = hbar;
layers = (
{
layerId = "A6805B89-47EA-471F-88E2-6C6BDB91AD06";
shapes = (
{
closed = 1;
nodes = (
(494,0,l),
(494,558,ls),
(494,682,o),
(580,766,o),
(708,766,cs),
(814,766,o),
(864,712,o),
(864,582,cs),
(864,0,l),
(1234,0,l),
(1234,596,ls),
(1234,904,o),
(1108,1050,o),
(848,1050,cs),
(676,1050,o),
(534,970,o),
(460,836,c),
(494,836,l),
(494,1124,l),
(906,1124,l),
(906,1374,l),
(494,1374,l),
(494,1472,l),
(124,1472,l),
(124,1374,l),
(-68,1374,l),
(-68,1124,l),
(124,1124,l),
(124,0,l)
);
}
);
width = 1352;
},
{
layerId = "74EDEEDC-441F-4395-93E2-DA3D8F4EBC35";
shapes = (
{
closed = 1;
nodes = (
(369,0,l),
(369,614,ls),
(369,801,o),
(493,924,o),
(686,924,cs),
(847,924,o),
(923,845,o),
(923,654,cs),
(923,0,l),
(1131,0,l),
(1131,666,ls),
(1131,953,o),
(1004,1094,o),
(744,1094,cs),
(553,1094,o),
(404,1003,o),
(338,841,c),
(369,841,l),
(369,1187,l),
(799,1187,l),
(799,1336,l),
(369,1336,l),
(369,1472,l),
(160,1472,l),
(160,1336,l),
(-49,1336,l),
(-49,1187,l),
(160,1187,l),
(160,0,l)
);
}
);
width = 1286;
},
{
layerId = "5CA5D978-5DFF-4019-A5DD-99A0755926E0";
shapes = (
{
closed = 1;
nodes = (
(268,0,l),
(268,664,ls),
(268,906,o),
(426,1064,o),
(676,1064,cs),
(886,1064,o),
(984,962,o),
(984,718,cs),
(984,0,l),
(1050,0,l),
(1050,728,ls),
(1050,996,o),
(922,1132,o),
(662,1132,cs),
(454,1132,o),
(298,1032,o),
(240,846,c),
(268,846,l),
(268,1242,l),
(714,1242,l),
(714,1302,l),
(268,1302,l),
(268,1472,l),
(202,1472,l),
(202,1302,l),
(-22,1302,l),
(-22,1242,l),
(202,1242,l),
(202,0,l)
);
}
);
width = 1246;
}
);
leftKerningGroup = h;
rightKerningGroup = n;
unicode = 295;
}
{
color = 11;
glyphname = dotlessi;
layers = (
{
anchors = (
{
name = bottom;
position = "{310, 0}";
},
{
name = ogonek;
position = "{410, 0}";
},
{
name = top;
position = "{310, 1010}";
}
);
layerId = "B0FE6CA3-3B5A-43B9-ADCC-06CF5CDDB79F";
shapes = (
{
closed = 1;
nodes = (
(494,0,l),
(494,1104,l),
(124,1104,l),
(124,0,l)
);
}
);
width = 616;
},
{
anchors = (
{
name = bottom;
position = "{263, 0}";
},
{
name = ogonek;
position = "{332, 0}";
},
{
name = top;
position = "{263, 1010}";
}
);
layerId = "FE1B4F78-E1AE-46DB-B09E-A4EC5EE567EB";
shapes = (
{
closed = 1;
nodes = (
(367,0,l),
(367,1104,l),
(158,1104,l),
(158,0,l)
);
}
);
width = 522;
},
{
anchors = (
{
name = bottom;
position = "{234, 0}";
},
{
name = ogonek;
position = "{276, 0}";
},
{
name = top;
position = "{234, 1010}";
}
);
layerId = "958021ED-7CC5-4835-9393-1BA2EA52DC8F";
shapes = (
{
closed = 1;
nodes = (
(268,0,l),
(268,1104,l),
(202,1104,l),
(202,0,l)
);
}
);
width = 466;
}
);
leftKerningGroup = n;
rightKerningGroup = u;
unicode = 305;
}
{
color = 11;
glyphname = kgreenlandic;
layers = (
{
anchors = (
{
name = bottom;
position = "{640, 0}";
},
{
name = top;
position = "{640, 1010}";
}
);
layerId = "A06B8506-BBE1-4A28-92E2-491406422708";
shapes = (
{
closed = 1;
nodes = (
(604,400,l),
(916,0,l),
(1342,0,l),
(828,658,l)
);
},
{
closed = 1;
nodes = (
(1322,1104,l),
(864,1104,l),
(494,706,l),
(494,1104,l),
(124,1104,l),
(124,0,l),
(494,0,l),
(494,218,l)
);
}
);
width = 1282;
},
{
anchors = (
{
name = bottom;
position = "{565, 0}";
},
{
name = top;
position = "{565, 1010}";
}
);
layerId = "2D3E1F4A-4F79-435C-922D-C1502E296E5C";
shapes = (
{
closed = 1;
nodes = (
(497,518,l),
(921,0,l),
(1166,0,l),
(624,669,l)
);
},
{
closed = 1;
nodes = (
(1122,1104,l),
(858,1104,l),
(362,591,l),
(362,1104,l),
(153,1104,l),
(153,0,l),
(362,0,l),
(362,314,l)
);
}
);
width = 1130;
},
{
anchors = (
{
name = bottom;
position = "{520, 0}";
},
{
name = top;
position = "{520, 1010}";
}
);
layerId = "F480A0F6-CE20-4515-90A8-C409EEC2FB0B";
shapes = (
{
closed = 1;
nodes = (
(424,622,l),
(946,0,l),
(1032,0,l),
(464,678,l)
);
},
{
closed = 1;
nodes = (
(966,1104,l),
(874,1104,l),
(266,490,l),
(266,1104,l),
(200,1104,l),
(200,0,l),
(266,0,l),
(266,398,l)
);
}
);
width = 1038;
}
);
leftKerningGroup = n;
rightKerningGroup = k;
unicode = 312;
}
{
color = 11;
glyphname = Eng;
layers = (
{
anchors = (
{
name = bottom;
position = "{756, 0}";
},
{
name = top;
position = "{756, 1472}";
}
);
layerId = "A6805B89-47EA-471F-88E2-6C6BDB91AD06";
shapes = (
{
closed = 1;
nodes = (
(922,-396,ls),
(1272,-370,o),
(1384,-256,o),
(1384,46,cs),
(1384,1472,l),
(1038,1472,l),
(1038,534,l),
(1102,534,l),
(400,1472,l),
(130,1472,l),
(130,0,l),
(474,0,l),
(474,938,l),
(412,938,l),
(1110,0,l),
(1040,144,l),
(1040,-6,ls),
(1040,-94,o),
(1000,-130,o),
(916,-140,cs),
(812,-150,l),
(836,-402,l)
);
}
);
width = 1514;
},
{
anchors = (
{
name = bottom;
position = "{739, 0}";
},
{
name = top;
position = "{739, 1472}";
}
);
layerId = "74EDEEDC-441F-4395-93E2-DA3D8F4EBC35";
shapes = (
{
closed = 1;
nodes = (
(955,-396,ls),
(1211,-377,o),
(1316,-260,o),
(1316,-10,cs),
(1316,1472,l),
(1120,1472,l),
(1120,280,l),
(1173,280,l),
(322,1472,l),
(163,1472,l),
(163,0,l),
(357,0,l),
(357,1192,l),
(305,1192,l),
(1157,0,l),
(1121,92,l),
(1121,-34,ls),
(1121,-167,o),
(1061,-231,o),
(947,-242,cs),
(856,-250,l),
(869,-402,l)
);
}
);
width = 1479;
},
{
anchors = (
{
name = bottom;
position = "{730, 0}";
},
{
name = top;
position = "{730, 1472}";
}
);
layerId = "5CA5D978-5DFF-4019-A5DD-99A0755926E0";
shapes = (
{
closed = 1;
nodes = (
(990,-396,ls),
(1162,-384,o),
(1262,-264,o),
(1262,-60,cs),
(1262,1472,l),
(1198,1472,l),
(1198,56,l),
(1242,56,l),
(258,1472,l),
(198,1472,l),
(198,0,l),
(260,0,l),
(260,1416,l),
(216,1416,l),
(1204,0,l),
(1198,46,l),
(1198,-58,ls),
(1198,-232,o),
(1120,-320,o),
(980,-332,cs),
(900,-338,l),
(904,-402,l)
);
}
);
width = 1458;
}
);
leftKerningGroup = H;
rightKerningGroup = H;
unicode = 330;
}
{
color = 11;
glyphname = eng;
layers = (
{
layerId = "B0FE6CA3-3B5A-43B9-ADCC-06CF5CDDB79F";
shapes = (
{
closed = 1;
nodes = (
(742,-396,ls),
(1118,-370,o),
(1234,-238,o),
(1234,64,cs),
(1234,662,ls),
(1234,980,o),
(1106,1126,o),
(846,1126,cs),
(678,1126,o),
(536,1050,o),
(464,912,c),
(488,912,l),
(488,1104,l),
(124,1104,l),
(124,0,l),
(494,0,l),
(494,620,ls),
(494,750,o),
(580,842,o),
(710,842,cs),
(808,842,o),
(864,790,o),
(864,648,cs),
(864,10,ls),
(864,-80,o),
(824,-122,o),
(728,-130,cs),
(614,-142,l),
(638,-402,l)
);
}
);
width = 1352;
},
{
layerId = "FE1B4F78-E1AE-46DB-B09E-A4EC5EE567EB";
shapes = (
{
closed = 1;
nodes = (
(739,-396,ls),
(1015,-377,o),
(1131,-249,o),
(1131,2,cs),
(1131,685,ls),
(1131,992,o),
(996,1124,o),
(740,1124,cs),
(553,1124,o),
(408,1035,o),
(341,875,c),
(366,875,l),
(366,1104,l),
(160,1104,l),
(160,0,l),
(369,0,l),
(369,634,ls),
(369,827,o),
(492,956,o),
(684,956,cs),
(843,956,o),
(923,877,o),
(923,675,cs),
(923,-22,ls),
(923,-154,o),
(858,-227,o),
(727,-237,cs),
(624,-246,l),
(638,-402,l)
);
}
);
width = 1286;
},
{
layerId = "958021ED-7CC5-4835-9393-1BA2EA52DC8F";
shapes = (
{
closed = 1;
nodes = (
(746,-396,ls),
(934,-384,o),
(1050,-258,o),
(1050,-52,cs),
(1050,706,ls),
(1050,1002,o),
(908,1122,o),
(656,1122,cs),
(452,1122,o),
(304,1022,o),
(242,842,c),
(268,842,l),
(268,1104,l),
(202,1104,l),
(202,0,l),
(268,0,l),
(268,646,ls),
(268,894,o),
(424,1056,o),
(670,1056,cs),
(884,1056,o),
(984,954,o),
(984,698,cs),
(984,-50,ls),
(984,-220,o),
(898,-320,o),
(736,-332,cs),
(642,-338,l),
(648,-402,l)
);
}
);
width = 1246;
}
);
leftKerningGroup = n;
rightKerningGroup = n;
unicode = 331;
}
